<svg width="915" height="606" viewBox="0 0 915 606" fill="none" xmlns="http://www.w3.org/2000/svg">
<path fill-rule="evenodd" clip-rule="evenodd" d="M480.303 460.114C548.978 460.114 604.995 404.102 604.995 335.427C604.995 266.752 548.978 210.734 480.303 210.734C411.628 210.734 355.615 266.747 355.615 335.427C355.615 404.107 411.628 460.114 480.303 460.114Z" fill="white"/>
<path fill-rule="evenodd" clip-rule="evenodd" d="M480.303 460.114C548.978 460.114 604.995 404.102 604.995 335.427C604.995 266.752 548.978 210.734 480.303 210.734C411.628 210.734 355.615 266.747 355.615 335.427C355.615 404.107 411.628 460.114 480.303 460.114Z" fill="white"/>
<path d="M334.545 123.727C334.545 128.697 333.636 132.97 331.818 136.545C330 140.106 327.508 142.848 324.341 144.773C321.189 146.682 317.606 147.636 313.591 147.636C309.561 147.636 305.962 146.682 302.795 144.773C299.644 142.848 297.159 140.098 295.341 136.523C293.523 132.947 292.614 128.682 292.614 123.727C292.614 118.758 293.523 114.492 295.341 110.932C297.159 107.356 299.644 104.614 302.795 102.705C305.962 100.78 309.561 99.8182 313.591 99.8182C317.606 99.8182 321.189 100.78 324.341 102.705C327.508 104.614 330 107.356 331.818 110.932C333.636 114.492 334.545 118.758 334.545 123.727ZM327.591 123.727C327.591 119.939 326.977 116.75 325.75 114.159C324.538 111.553 322.871 109.583 320.75 108.25C318.644 106.902 316.258 106.227 313.591 106.227C310.909 106.227 308.515 106.902 306.409 108.25C304.303 109.583 302.636 111.553 301.409 114.159C300.197 116.75 299.591 119.939 299.591 123.727C299.591 127.515 300.197 130.712 301.409 133.318C302.636 135.909 304.303 137.879 306.409 139.227C308.515 140.561 310.909 141.227 313.591 141.227C316.258 141.227 318.644 140.561 320.75 139.227C322.871 137.879 324.538 135.909 325.75 133.318C326.977 130.712 327.591 127.515 327.591 123.727ZM357.46 147.705C354.188 147.705 351.331 146.955 348.892 145.455C346.453 143.955 344.559 141.856 343.21 139.159C341.862 136.462 341.188 133.311 341.188 129.705C341.188 126.083 341.862 122.917 343.21 120.205C344.559 117.492 346.453 115.386 348.892 113.886C351.331 112.386 354.188 111.636 357.46 111.636C360.733 111.636 363.589 112.386 366.028 113.886C368.468 115.386 370.362 117.492 371.71 120.205C373.059 122.917 373.733 126.083 373.733 129.705C373.733 133.311 373.059 136.462 371.71 139.159C370.362 141.856 368.468 143.955 366.028 145.455C363.589 146.955 360.733 147.705 357.46 147.705ZM357.483 142C359.604 142 361.362 141.439 362.756 140.318C364.15 139.197 365.18 137.705 365.847 135.841C366.528 133.977 366.869 131.924 366.869 129.682C366.869 127.455 366.528 125.409 365.847 123.545C365.18 121.667 364.15 120.159 362.756 119.023C361.362 117.886 359.604 117.318 357.483 117.318C355.347 117.318 353.574 117.886 352.165 119.023C350.771 120.159 349.733 121.667 349.051 123.545C348.384 125.409 348.051 127.455 348.051 129.682C348.051 131.924 348.384 133.977 349.051 135.841C349.733 137.705 350.771 139.197 352.165 140.318C353.574 141.439 355.347 142 357.483 142ZM381.318 160.091V112.091H387.955V117.75H388.523C388.917 117.023 389.485 116.182 390.227 115.227C390.97 114.273 392 113.439 393.318 112.727C394.636 112 396.379 111.636 398.545 111.636C401.364 111.636 403.879 112.348 406.091 113.773C408.303 115.197 410.038 117.25 411.295 119.932C412.568 122.614 413.205 125.841 413.205 129.614C413.205 133.386 412.576 136.621 411.318 139.318C410.061 142 408.333 144.068 406.136 145.523C403.939 146.962 401.432 147.682 398.614 147.682C396.492 147.682 394.758 147.326 393.409 146.614C392.076 145.902 391.03 145.068 390.273 144.114C389.515 143.159 388.932 142.311 388.523 141.568H388.114V160.091H381.318ZM387.977 129.545C387.977 132 388.333 134.152 389.045 136C389.758 137.848 390.788 139.295 392.136 140.341C393.485 141.371 395.136 141.886 397.091 141.886C399.121 141.886 400.818 141.348 402.182 140.273C403.545 139.182 404.576 137.705 405.273 135.841C405.985 133.977 406.341 131.879 406.341 129.545C406.341 127.242 405.992 125.174 405.295 123.341C404.614 121.508 403.583 120.061 402.205 119C400.841 117.939 399.136 117.409 397.091 117.409C395.121 117.409 393.455 117.917 392.091 118.932C390.742 119.947 389.72 121.364 389.023 123.182C388.326 125 387.977 127.121 387.977 129.545ZM446.977 120.614L440.818 121.705C440.561 120.917 440.152 120.167 439.591 119.455C439.045 118.742 438.303 118.159 437.364 117.705C436.424 117.25 435.25 117.023 433.841 117.023C431.917 117.023 430.311 117.455 429.023 118.318C427.735 119.167 427.091 120.265 427.091 121.614C427.091 122.78 427.523 123.72 428.386 124.432C429.25 125.144 430.644 125.727 432.568 126.182L438.114 127.455C441.326 128.197 443.72 129.341 445.295 130.886C446.871 132.432 447.659 134.439 447.659 136.909C447.659 139 447.053 140.864 445.841 142.5C444.644 144.121 442.97 145.394 440.818 146.318C438.682 147.242 436.205 147.705 433.386 147.705C429.477 147.705 426.288 146.871 423.818 145.205C421.348 143.523 419.833 141.136 419.273 138.045L425.841 137.045C426.25 138.758 427.091 140.053 428.364 140.932C429.636 141.795 431.295 142.227 433.341 142.227C435.568 142.227 437.348 141.765 438.682 140.841C440.015 139.902 440.682 138.758 440.682 137.409C440.682 136.318 440.273 135.402 439.455 134.659C438.652 133.917 437.417 133.356 435.75 132.977L429.841 131.682C426.583 130.939 424.174 129.758 422.614 128.136C421.068 126.515 420.295 124.462 420.295 121.977C420.295 119.917 420.871 118.114 422.023 116.568C423.174 115.023 424.765 113.818 426.795 112.955C428.826 112.076 431.152 111.636 433.773 111.636C437.545 111.636 440.515 112.455 442.682 114.091C444.848 115.712 446.28 117.886 446.977 120.614ZM459.608 147.432C458.366 147.432 457.297 146.992 456.403 146.114C455.509 145.22 455.062 144.144 455.062 142.886C455.062 141.644 455.509 140.583 456.403 139.705C457.297 138.811 458.366 138.364 459.608 138.364C460.85 138.364 461.919 138.811 462.812 139.705C463.706 140.583 464.153 141.644 464.153 142.886C464.153 143.72 463.941 144.485 463.517 145.182C463.108 145.864 462.562 146.409 461.881 146.818C461.199 147.227 460.441 147.432 459.608 147.432ZM477.733 147.432C476.491 147.432 475.422 146.992 474.528 146.114C473.634 145.22 473.188 144.144 473.188 142.886C473.188 141.644 473.634 140.583 474.528 139.705C475.422 138.811 476.491 138.364 477.733 138.364C478.975 138.364 480.044 138.811 480.938 139.705C481.831 140.583 482.278 141.644 482.278 142.886C482.278 143.72 482.066 144.485 481.642 145.182C481.233 145.864 480.688 146.409 480.006 146.818C479.324 147.227 478.566 147.432 477.733 147.432ZM495.858 147.432C494.616 147.432 493.547 146.992 492.653 146.114C491.759 145.22 491.312 144.144 491.312 142.886C491.312 141.644 491.759 140.583 492.653 139.705C493.547 138.811 494.616 138.364 495.858 138.364C497.1 138.364 498.169 138.811 499.062 139.705C499.956 140.583 500.403 141.644 500.403 142.886C500.403 143.72 500.191 144.485 499.767 145.182C499.358 145.864 498.812 146.409 498.131 146.818C497.449 147.227 496.691 147.432 495.858 147.432Z" fill="#36474F"/>
<path fill-rule="evenodd" clip-rule="evenodd" d="M767.14 43.2871C771.395 43.0146 775.613 43.2696 779.715 44.0196L787.39 33.1221L806.885 42.7471L804.285 55.7796C807.6 58.6346 810.57 61.9296 813.1 65.6096L825.097 63.5271L832.077 84.1171L822.043 90.8146C822.425 95.5371 822.145 100.227 821.263 104.767L831.188 111.755L821.563 131.25L809.543 128.852C806.5 132.362 802.97 135.49 799 138.11L799.793 150.325L779.202 157.305L773.602 146.6C768.855 146.892 764.153 146.517 759.61 145.537L751.69 154.562L732.195 144.942L735.81 133.387C732.54 130.445 729.62 127.067 727.155 123.3L713.98 124.157L707 103.567L718.75 97.4221C718.542 93.1421 718.878 88.9096 719.703 84.7971L709.737 76.0546L719.362 56.5596L731.85 60.4671C734.645 57.3271 737.84 54.5071 741.4 52.0996L739.158 39.2046L759.747 32.2246L767.135 43.2796L767.14 43.2871ZM763.183 73.4896C751.338 77.5096 744.99 90.3646 749.008 102.215C753.02 114.06 765.882 120.41 777.732 116.39C789.577 112.375 795.923 99.5146 791.908 87.6696C787.888 75.8221 775.033 69.4771 763.183 73.4921V73.4896Z" fill="#EEF3F6"/>
<path fill-rule="evenodd" clip-rule="evenodd" d="M807.964 503.01C881.797 553.963 882.979 539.295 801.939 577.763C720.899 616.228 733.007 624.583 740.214 535.168C747.422 445.748 734.129 452.063 807.962 503.01H807.964ZM781.977 551.36C781.944 552.535 782.372 554.065 783.272 555.953C784.557 558.665 785.894 560.268 787.289 560.765C788.682 561.26 790.842 560.815 793.769 559.423C796.697 558.038 798.219 556.453 798.324 554.68C798.344 553.725 798.259 552.948 798.067 552.358C797.877 551.763 797.502 550.89 796.952 549.725L796.399 548.565C795.459 546.58 794.297 545.353 792.917 544.88C791.534 544.408 789.792 544.67 787.687 545.67C785.579 546.673 784.112 547.575 783.277 548.388C782.447 549.198 782.012 550.188 781.974 551.36H781.977ZM787.697 538.283C788.502 537.605 788.954 536.868 789.052 536.078C789.152 535.288 789.124 534.638 788.967 534.118C788.812 533.6 788.489 532.833 788.007 531.815L777.082 508.793C776.599 507.778 776.204 507.033 775.887 506.56C775.574 506.083 775.082 505.608 774.407 505.123C773.734 504.643 772.872 504.488 771.829 504.66C770.784 504.83 769.487 505.283 767.937 506.02C766.387 506.753 765.217 507.473 764.422 508.175C763.629 508.88 763.184 509.635 763.099 510.45C763.009 511.263 763.049 511.943 763.217 512.483C763.387 513.028 763.714 513.805 764.192 514.823L775.122 537.845C775.602 538.863 775.997 539.595 776.297 540.045C776.602 540.493 777.082 540.948 777.744 541.405C778.407 541.865 779.254 541.995 780.287 541.8C781.324 541.605 782.617 541.14 784.162 540.405C785.712 539.67 786.892 538.963 787.697 538.285V538.283Z" fill="#EEF3F6"/>
<path fill-rule="evenodd" clip-rule="evenodd" d="M431.383 504.553L454.872 488.273L492.368 588.798L435.005 537.708L416.94 548.951L386 446.261L431.383 504.553Z" fill="#EEF3F6"/>
<path fill-rule="evenodd" clip-rule="evenodd" d="M176.941 1.82915C203.096 -5.48335 230.228 9.78415 237.546 35.9417C244.176 59.6367 232.258 84.1292 210.508 93.9691L212.201 100.014C212.806 99.9992 213.426 99.9942 214.046 100.009L227.018 146.374C228.263 150.832 225.248 155.612 220.316 156.992C215.381 158.372 210.326 155.852 209.078 151.389L196.106 105.024C196.626 104.687 197.156 104.367 197.688 104.064L195.996 98.0192C172.321 100.867 149.451 86.1141 142.831 62.4341C135.513 36.2791 150.786 9.14665 176.941 1.82915ZM181.078 16.6167C163.091 21.6492 152.591 40.3091 157.621 58.2966C162.653 76.2866 181.311 86.7892 199.301 81.7567C217.288 76.7267 227.788 58.0641 222.758 40.0791C217.728 22.0916 199.066 11.5867 181.081 16.6167H181.078Z" fill="#EEF3F6"/>
<path fill-rule="evenodd" clip-rule="evenodd" d="M73.743 197.657L76.5505 201.452L99.0305 184.82C100.858 183.47 103.456 183.86 104.808 185.687C106.161 187.515 105.771 190.112 103.946 191.462L81.463 208.095L94.9355 226.305L117.416 209.677C119.243 208.327 121.841 208.712 123.191 210.54C124.541 212.367 124.156 214.965 122.328 216.315L99.843 232.947L103.073 237.31C104.191 238.825 103.871 240.975 102.358 242.095L79.588 258.937L80.518 260.195C82.408 262.752 81.863 266.39 79.3105 268.28C76.753 270.172 73.1155 269.627 71.2255 267.072L68.9905 264.057L56.4205 265.51L48.973 270.725L28.7905 278.755C25.1905 280.37 22.843 280.637 21.753 279.56L17.4605 274.135C6.68302 281.862 6.48302 287.665 10.0655 293.182C12.1555 296.397 15.368 299.717 18.733 303.192C29.9505 314.785 42.593 327.845 30.4755 348.525L23.983 344.707C33.203 328.967 22.6655 318.077 13.3105 308.412C9.68051 304.662 6.20802 301.075 3.75552 297.305C-2.13448 288.247 -2.44699 279.16 12.778 268.212L10.328 265.112C9.04302 262.77 9.18802 260.54 10.658 258.41L25.4555 240.42L33.9255 233.717L38.733 223.15L35.958 219.405C34.0705 216.85 34.613 213.21 37.1705 211.317C39.728 209.427 43.3655 209.972 45.2555 212.525L46.188 213.787L68.9555 196.945C70.468 195.825 72.6255 196.147 73.743 197.66V197.657Z" fill="#EEF3F6"/>
<path fill-rule="evenodd" clip-rule="evenodd" d="M876.875 10.4425C879.353 10.28 881.81 10.43 884.203 10.87L888.673 4.52L900.028 10.125L898.515 17.715C900.443 19.38 902.17 21.3 903.648 23.4425L910.635 22.2325L914.703 34.2275L908.858 38.1275C909.078 40.8775 908.915 43.6125 908.403 46.255L914.183 50.3225L908.578 61.6775L901.578 60.2825C899.805 62.3275 897.748 64.15 895.435 65.6775L895.898 72.79L883.903 76.8575L880.64 70.6175C877.875 70.7875 875.138 70.5725 872.49 70.0025L867.878 75.2575L856.523 69.6525L858.63 62.925C856.728 61.2125 855.028 59.245 853.59 57.0475L845.915 57.5475L841.848 45.555L848.693 41.9725C848.575 39.4825 848.765 37.015 849.248 34.6225L843.445 29.53L849.05 18.175L856.323 20.4525C857.95 18.6225 859.813 16.9825 861.883 15.58L860.58 8.0675L872.57 4L876.873 10.4425H876.875ZM874.57 28.035C867.673 30.375 863.975 37.8625 866.313 44.765C868.653 51.6625 876.143 55.36 883.043 53.0225C889.945 50.6825 893.643 43.1925 891.3 36.2925C888.96 29.39 881.473 25.6925 874.57 28.035Z" fill="#EEF3F6"/>
<path fill-rule="evenodd" clip-rule="evenodd" d="M151.307 485.208L132 487.84L159.443 555.648L164.75 503.543L179.01 500.875L147.277 435L151.307 485.208Z" fill="#EEF3F6"/>
<path fill-rule="evenodd" clip-rule="evenodd" d="M481.304 435C540.469 435 588.724 386.746 588.724 327.58C588.724 268.414 540.469 220.156 481.304 220.156C422.14 220.156 373.884 268.415 373.884 327.58C373.884 386.744 422.138 435 481.304 435Z" fill="#EEF3F6"/>
<path fill-rule="evenodd" clip-rule="evenodd" d="M470.42 422.841C529.586 422.841 577.841 374.586 577.841 315.42C577.841 256.254 529.586 208 470.42 208C411.254 208 363 256.254 363 315.42C363 374.586 411.256 422.841 470.42 422.841Z" fill="#2F3E45"/>
<path fill-rule="evenodd" clip-rule="evenodd" d="M470.42 386.529C509.586 386.529 541.534 354.584 541.534 315.417C541.534 276.251 509.586 244.303 470.42 244.303C431.253 244.303 399.309 276.248 399.309 315.417C399.309 354.587 431.253 386.529 470.42 386.529Z" fill="#2F3E45"/>
<path d="M540.762 370.466C533.948 370.466 527.515 368.097 522.392 363.643C520.573 362.066 518.965 360.287 517.61 358.352C516.946 357.404 517.177 356.098 518.124 355.434C519.067 354.765 520.373 354.996 521.042 355.948C522.202 357.599 523.579 359.127 525.137 360.481C530.158 364.847 536.662 366.853 543.472 366.131C550.866 365.347 557.702 361.442 562.236 355.412C572.566 341.669 571.915 322.453 571.091 314.483C563.861 319.646 555.679 319.07 547.722 318.477C538.991 317.848 530.734 317.242 523.818 324.162C518.784 329.196 516.154 336.156 516.601 343.267C516.672 344.423 515.8 345.414 514.644 345.49C513.524 345.591 512.497 344.684 512.421 343.533C511.894 335.226 514.972 327.084 520.856 321.2C529.131 312.925 538.734 313.624 548.028 314.302C556.551 314.917 564.605 315.502 571.18 308.931C571.729 308.386 572.526 308.178 573.278 308.413C574.022 308.639 574.576 309.259 574.722 310.025C574.943 311.189 579.986 338.782 565.588 357.931C560.359 364.887 552.464 369.394 543.919 370.297C542.861 370.412 541.807 370.466 540.767 370.466H540.762Z" fill="white"/>
<path d="M470.829 387.065C469.766 387.065 468.699 387.043 467.632 386.994C431.157 385.409 401.041 355.624 399.066 319.181C397.986 299.204 404.942 280.236 418.645 265.767C432.362 251.288 450.896 243.314 470.833 243.314C506.081 243.314 535.892 268.507 541.714 303.211C541.905 304.348 541.139 305.433 539.996 305.619C538.876 305.81 537.774 305.039 537.588 303.901C532.102 271.221 504.031 247.503 470.837 247.503C452.064 247.503 434.611 255.012 421.691 268.649C408.785 282.277 402.237 300.138 403.255 318.955C405.11 353.269 433.473 381.318 467.818 382.81C475.256 383.151 482.597 382.261 489.655 380.224C498.939 377.541 507.361 370.939 513.364 361.624C521.268 349.368 532.465 339.96 546.655 333.655C547.709 333.185 548.949 333.659 549.418 334.717C549.892 335.775 549.414 337.011 548.356 337.48C534.927 343.448 524.34 352.335 516.884 363.895C510.331 374.052 501.078 381.282 490.824 384.244C484.346 386.117 477.638 387.06 470.837 387.06L470.829 387.065Z" fill="white"/>
<path d="M536.769 351.467C533.71 351.467 530.947 350.121 528.631 347.46C527.874 346.588 527.963 345.268 528.835 344.507C529.707 343.75 531.027 343.838 531.788 344.711C534.059 347.318 536.654 347.925 539.953 346.588C541.011 346.154 542.242 346.667 542.676 347.748C543.109 348.819 542.591 350.037 541.52 350.471C539.873 351.139 538.283 351.467 536.765 351.467H536.769Z" fill="white"/>
<path d="M538.761 342.196C537.919 342.196 537.127 341.686 536.808 340.854C535.458 337.352 535.812 333.655 537.826 330.166C538.406 329.161 539.686 328.815 540.687 329.4C541.687 329.975 542.028 331.255 541.453 332.26C540.076 334.651 539.828 337.037 540.718 339.349C541.134 340.429 540.594 341.638 539.513 342.054C539.27 342.147 539.013 342.196 538.761 342.196Z" fill="white"/>
<path d="M459.472 373.339C457.87 373.339 456.316 372.835 455.005 371.874L454.474 371.484C451.609 369.381 450.595 365.627 452.021 362.359L454.859 355.859C455.93 353.398 455.966 350.559 454.952 348.071L451.56 339.774C450.71 337.688 450.365 335.408 450.56 333.172L450.573 333.035L451.264 325.123C451.583 321.492 453.827 318.273 457.126 316.724L459.982 315.378C463.55 313.695 467.681 314.187 470.763 316.644L479.892 323.928C480.49 324.406 481.327 324.446 481.965 324.02L484.71 322.218C487.331 320.496 490.904 321.072 492.843 323.538L493.304 324.122C494.605 325.778 495.34 327.762 495.429 329.865L496.248 349.953C496.381 353.216 494.167 356.116 490.988 356.855L488.934 357.329C487.216 357.728 485.675 358.724 484.608 360.132L478.113 368.677C476.904 370.271 475.071 371.338 473.087 371.599L460.482 373.273C460.145 373.317 459.809 373.339 459.477 373.339H459.472ZM454.744 333.398C454.739 333.465 454.726 333.593 454.722 333.628C454.593 335.112 454.837 336.719 455.435 338.184L458.822 346.486C460.261 350.015 460.212 354.044 458.689 357.533L455.851 364.033C455.213 365.494 455.665 367.172 456.949 368.106L457.476 368.496C458.18 369.014 459.039 369.226 459.92 369.12L472.525 367.446C473.41 367.331 474.225 366.853 474.77 366.145L481.265 357.599C482.925 355.417 485.312 353.871 487.982 353.256L490.032 352.782C491.254 352.494 492.104 351.379 492.055 350.126L491.236 330.038C491.187 328.824 490.762 327.673 490.009 326.712L489.549 326.132C488.938 325.358 487.827 325.172 487.008 325.716L484.262 327.518C482.102 328.94 479.295 328.807 477.276 327.2L468.146 319.916C466.322 318.464 463.878 318.172 461.762 319.168L458.901 320.509C456.949 321.43 455.62 323.334 455.43 325.486L454.739 333.398H454.744Z" fill="white"/>
<path d="M507.556 312.655C505.882 312.655 504.222 312.053 502.894 310.884L498.59 307.089C497.288 305.943 496.456 304.366 496.248 302.635L495.287 294.617C495.061 292.748 493.76 291.168 491.962 290.597L483.961 288.038C482.345 287.52 481.021 286.333 480.326 284.788L477.214 277.872C476.036 275.242 476.895 272.143 479.264 270.5L487.379 264.881C489.376 263.504 490.527 261.229 490.474 258.807L490.24 248.836C490.213 247.68 491.125 246.719 492.281 246.693C492.299 246.693 492.316 246.693 492.33 246.693C493.467 246.693 494.397 247.6 494.424 248.738L494.658 258.709C494.751 262.548 492.923 266.148 489.761 268.33L481.65 273.949C480.942 274.44 480.685 275.37 481.035 276.158L484.152 283.079C484.36 283.544 484.754 283.898 485.241 284.053L493.237 286.612C496.593 287.683 499.028 290.632 499.445 294.125L500.405 302.144C500.49 302.843 500.826 303.485 501.357 303.95L505.665 307.749C506.604 308.581 507.959 308.701 509.03 308.059L514.304 304.911C516.681 303.477 519.719 303.862 521.68 305.823L524.788 308.94C525.607 309.759 525.603 311.083 524.788 311.902C523.969 312.721 522.645 312.726 521.826 311.902L518.718 308.79C518.116 308.196 517.195 308.077 516.451 308.511L511.182 311.659C510.058 312.332 508.805 312.664 507.56 312.664L507.556 312.655Z" fill="white"/>
<path d="M437.313 312.509C435.936 312.509 434.576 312.084 433.425 311.269L432.929 310.915C431.074 309.604 430.025 307.47 430.127 305.221L430.375 299.952C430.414 299.067 429.976 298.217 429.228 297.743L423.109 293.855C420.134 291.96 419.08 288.082 420.7 285.027L421.812 282.933C422.843 280.989 424.765 279.678 426.952 279.426L434.917 278.505C436.387 278.355 437.888 278.651 439.159 279.395L450.467 285.992C452.353 287.095 453.593 289.034 453.783 291.181C453.974 293.306 453.159 295.312 451.547 296.694C449.506 298.438 447.81 300.519 446.504 302.866L443.002 309.184C442.116 310.778 440.58 311.929 438.783 312.341C438.3 312.451 437.804 312.504 437.317 312.504L437.313 312.509ZM435.701 282.649C435.599 282.649 435.497 282.654 435.391 282.663L427.43 283.583C426.611 283.676 425.894 284.168 425.509 284.894L424.397 286.988C423.795 288.126 424.216 289.596 425.358 290.322L431.473 294.21C433.487 295.494 434.669 297.769 434.559 300.152L434.311 305.416C434.271 306.222 434.674 307.019 435.351 307.501L435.847 307.856C436.427 308.263 437.158 308.418 437.844 308.263C438.49 308.117 439.017 307.723 439.332 307.16L442.834 300.842C444.379 298.057 446.389 295.591 448.811 293.519C449.382 293.032 449.67 292.319 449.599 291.566C449.528 290.756 449.068 290.048 448.342 289.623L437.038 283.026C436.626 282.782 436.166 282.663 435.696 282.663L435.701 282.649Z" fill="white"/>
<path fill-rule="evenodd" clip-rule="evenodd" d="M785.507 431H749.5C749 429.511 740.553 423.396 741 422.5L760.5 393L652.696 393.456C651.698 393.456 637.478 381.58 638.015 380.659L651.167 358.118L738.002 218.099C738.532 217.243 739.552 217.226 740.527 216.868L772.726 205.004C773.395 204.758 786.634 217.278 786.636 218.099L787.035 356.784L803.5 352.5C804.441 351.79 815.5 358 817 358.425V391.918C817 392.943 816.468 393.455 815.473 393.455H787.035V429.511C787.035 430.485 786.504 430.998 785.507 430.998V431ZM698.274 356.784H738.935V289.747L698.274 356.784Z" fill="#EEF3F6"/>
<path d="M640.406 380.386V353.753L734.689 204.818H755.676V244.023H742.359L674.923 350.77V352.474H804.149V380.386H640.406ZM743.851 423V372.29L744.064 360.145V204.818H775.278V423H743.851Z" fill="#2F3E45"/>
<path d="M637.406 380.386V353.753L731.689 204.818H752.676V244.023H739.359L671.923 350.77V352.474H801.149V380.386H637.406ZM740.851 423V372.29L741.064 360.145V204.818H772.278V423H740.851Z" fill="#FF9900"/>
<path fill-rule="evenodd" clip-rule="evenodd" d="M288.507 432H252.5C252 430.511 243.553 424.396 244 423.5L263.5 394L155.696 394.456C154.698 394.456 140.478 382.58 141.015 381.659L154.167 359.118L241.002 219.099C241.532 218.243 242.552 218.226 243.527 217.868L275.726 206.004C276.395 205.758 289.634 218.278 289.636 219.099L290.035 357.784L306.5 353.5C307.441 352.79 318.5 359 320 359.425V392.918C320 393.943 319.468 394.455 318.473 394.455H290.035V430.511C290.035 431.485 289.504 431.998 288.507 431.998V432ZM201.274 357.784H241.935V290.747L201.274 357.784Z" fill="#EEF3F6"/>
<path d="M143.406 381.386V354.753L237.689 205.818H258.676V245.023H245.359L177.923 351.77V353.474H307.149V381.386H143.406ZM246.851 424V373.29L247.064 361.145V205.818H278.278V424H246.851Z" fill="#2F3E45"/>
<path d="M140.406 381.386V354.753L234.689 205.818H255.676V245.023H242.359L174.923 351.77V353.474H304.149V381.386H140.406ZM243.851 424V373.29L244.064 361.145V205.818H275.278V424H243.851Z" fill="#FF9900"/>
</svg>
