<svg width="24" height="24" viewBox="0 0 24 24" fill="none" xmlns="http://www.w3.org/2000/svg">
<g clip-path="url(#clip0_940_1456)">
<path d="M11.9941 -0.00300598C9.62077 -0.00300598 7.30069 0.700782 5.3273 2.01936C3.35391 3.33794 1.81584 5.21208 0.907592 7.40479C-0.000659943 9.59751 -0.2383 12.0103 0.224723 14.3381C0.687745 16.6659 1.83063 18.804 3.50886 20.4823C5.18709 22.1605 7.32529 23.3034 9.65306 23.7664C11.9808 24.2294 14.3936 23.9918 16.5863 23.0835C18.7791 22.1753 20.6532 20.6372 21.9718 18.6638C23.2904 16.6904 23.9941 14.3704 23.9941 11.997C23.9907 8.81545 22.7253 5.7652 20.4756 3.51551C18.2259 1.26582 15.1757 0.0004351 11.9941 -0.00300598ZM15.2161 6.99699H8.77215C9.62091 5.32127 10.706 3.77615 11.9941 2.40899C13.2828 3.77577 14.3679 5.32095 15.2161 6.99699ZM16.0161 8.99699C16.3235 9.96767 16.4839 10.9789 16.4921 11.997C16.4839 13.0151 16.3235 14.0263 16.0161 14.997H7.97015C7.6628 14.0263 7.50236 13.0151 7.49415 11.997C7.50236 10.9789 7.6628 9.96767 7.97015 8.99699H16.0161ZM9.39415 2.35299C8.24181 3.76278 7.29073 5.32569 6.56815 6.99699H3.34715C4.673 4.71343 6.8458 3.04475 9.39415 2.35299ZM1.99415 11.997C1.99405 10.9793 2.14952 9.96766 2.45515 8.99699H5.89415C5.6349 9.97614 5.5005 10.9841 5.49415 11.997C5.5005 13.0099 5.6349 14.0179 5.89415 14.997H2.45515C2.14952 14.0263 1.99405 13.0146 1.99415 11.997ZM3.34715 16.997H6.56815C7.29073 18.6683 8.24181 20.2312 9.39415 21.641C6.8458 20.9492 4.673 19.2806 3.34715 16.997ZM8.77215 16.997H15.2161C14.3674 18.6727 13.2823 20.2178 11.9941 21.585C10.7055 20.2182 9.62039 18.673 8.77215 16.997ZM14.5991 21.641C15.7497 20.2309 16.6991 18.668 17.4201 16.997H20.6411C19.3165 19.2795 17.1456 20.9481 14.5991 21.641ZM21.9941 11.997C21.9942 13.0146 21.8388 14.0263 21.5331 14.997H18.0941C18.3534 14.0179 18.4878 13.0099 18.4941 11.997C18.4878 10.9841 18.3534 9.97614 18.0941 8.99699H21.5311C21.8375 9.96756 21.9936 10.9792 21.9941 11.997ZM17.4201 6.99699C16.6991 5.32598 15.7497 3.76308 14.5991 2.35299C17.1456 3.04592 19.3165 4.71446 20.6411 6.99699H17.4201Z" fill="white"/>
</g>
<defs>
<clipPath id="clip0_940_1456">
<rect width="24" height="24" fill="white" transform="translate(-0.00585938 -0.00300598)"/>
</clipPath>
</defs>
</svg>
