<svg width="24" height="24" viewBox="0 0 24 24" fill="none" xmlns="http://www.w3.org/2000/svg">
<path d="M23.701 22.287L17.738 16.324C19.15 14.599 20 12.397 20 10C20 4.486 15.514 0 10 0C4.486 0 0 4.486 0 10C0 15.514 4.486 20 10 20C12.398 20 14.6 19.15 16.324 17.738L22.287 23.701C22.482 23.896 22.738 23.994 22.994 23.994C23.25 23.994 23.506 23.896 23.701 23.701C24.092 23.31 24.092 22.678 23.701 22.287ZM2 10C2 5.589 5.589 2 10 2C14.411 2 18 5.589 18 10C18 14.411 14.411 18 10 18C5.589 18 2 14.411 2 10Z" fill="white"/>
</svg>
