<svg width="1160" height="469" viewBox="0 0 1160 469" fill="none" xmlns="http://www.w3.org/2000/svg">
<g clip-path="url(#clip0_1535_9032)">
<path d="M865.177 465.434C884.406 424.025 895.242 377.923 895.472 329.299C896.328 148.292 750.138 0.875751 568.893 1.23731e-05C387.669 -0.875727 240.038 145.143 239.182 326.129C238.952 375.88 249.83 423.086 269.498 465.414H865.177V465.434Z" fill="#EEF3FF"/>
<path d="M342.906 116.098C342.906 116.098 319.668 144.351 313.029 159.28C306.39 174.23 287.536 153.859 287.536 153.859C287.536 153.859 315.263 118.058 322.007 114.284C328.771 110.51 342.906 116.098 342.906 116.098Z" fill="#F6C257"/>
<path d="M341.256 117.495C341.256 117.495 319.042 148.063 314.616 156.048C310.189 164.013 303.487 155.214 303.487 155.214L337.31 115.994C337.289 115.994 338.793 116.035 341.256 117.495Z" fill="#F2B241"/>
<path fill-rule="evenodd" clip-rule="evenodd" d="M1017.89 187.388C1019.64 190.14 1021.42 188.973 1021.42 188.973C1049.21 184.323 1046.43 144.519 1026.72 159.198C1014.07 168.643 1016.11 184.657 1017.89 187.388ZM1001.7 216.558C1002.43 216.605 1002.9 216.492 1003.21 216.316C1003.25 216.699 1003.51 217.191 1004.29 217.746C1006.11 219.06 1017.63 221.687 1025.9 214.89C1038.35 204.595 1011.56 199.42 1004.13 214.059C1008.06 197.963 983.845 184.649 986.898 200.586C988.902 211.095 999.466 216.412 1001.7 216.558ZM989.403 248.877C990.239 248.931 990.739 248.773 991.038 248.553C991.093 248.953 991.399 249.461 992.389 249.919C994.414 250.858 1006.23 251.337 1013.08 243.122C1023.05 231.176 998.078 230.613 992.146 244.669C994.071 229.37 971.676 217.536 974.6 232.905C976.605 243.414 987.169 248.731 989.403 248.877ZM981.762 280.654C982.798 280.721 983.318 280.462 983.578 280.163C983.746 280.386 983.994 280.628 984.351 280.883C986.167 282.196 997.692 284.824 1005.96 278.026C1018.26 267.859 992.28 262.706 984.475 276.661C986.64 261.241 964.001 249.24 966.959 264.682C968.963 275.191 979.528 280.508 981.762 280.654Z" fill="url(#paint0_linear_1535_9032)"/>
<path d="M977.816 317.122L976.876 316.997C989.716 220.832 1018.34 188.534 1018.61 188.221L1019.3 188.847C1019.05 189.18 990.614 221.312 977.816 317.122Z" fill="#1D4B5A"/>
<path d="M690.676 120.539C690.676 120.539 722.223 170.998 732.725 178.046C743.248 185.094 748.259 153.942 748.259 153.942C748.259 153.942 706.982 118.183 702.744 107.674C698.506 97.1653 701.094 89.1794 695.771 85.4263C690.426 81.6731 691.804 93.579 691.804 93.579C691.804 93.579 682.826 82.1735 680.091 76.9191C677.335 71.6646 668.148 74.9382 668.545 84.342C668.942 93.7458 670.195 104.943 677.022 110.739C683.849 116.536 687.691 119.663 690.676 120.539Z" fill="#FFC89F"/>
<path d="M677.022 110.739C683.849 116.536 687.69 119.664 690.676 120.539C690.676 120.539 721.764 170.269 732.495 177.879C734.959 174.376 736.921 170.415 734.729 168.83C730.428 165.723 692.659 114.576 686.25 113.658C679.84 112.741 669.61 95.2679 669.589 95.2471C670.654 101.356 672.741 107.111 677.022 110.739Z" fill="#FF9A6C"/>
<path d="M871.211 148.73H921.82L925.829 157.07L872.986 172.229C872.965 172.25 869.917 151.211 871.211 148.73Z" fill="#FFC89F"/>
<path d="M766.652 271.104C766.652 271.104 768.323 304.903 774.336 325.671C780.349 346.438 817.303 276.358 816.134 269.102C814.944 261.846 766.652 271.104 766.652 271.104Z" fill="#006282"/>
<path d="M750.138 152.879C750.138 152.879 778.094 161.991 795.59 153.942C813.065 145.873 771.83 194.518 771.83 194.518C771.83 194.518 747.319 192.788 729.906 182.592C729.906 182.592 735.397 157.195 750.138 152.879Z" fill="#934FB2"/>
<path d="M771.83 194.497C771.83 194.497 775.108 190.619 779.451 185.24C778.97 185.261 778.448 185.281 777.885 185.323C759.888 186.741 733.811 170.957 733.79 170.957C731.096 177.191 729.927 182.571 729.927 182.571C747.319 192.767 771.83 194.497 771.83 194.497Z" fill="#884AA8"/>
<path d="M795.59 153.943C795.59 153.943 753.75 197.771 763.729 269.102C763.729 269.102 775.881 280.946 811.353 273.773C846.825 266.6 844.069 216.12 844.069 216.12L844.111 187.617C844.111 187.617 860.855 193.643 871.211 187.533C871.211 187.533 878.497 163.555 871.211 148.751C871.211 148.751 843.067 151.42 825.174 147.02C807.261 142.62 798.012 151.148 795.59 153.943Z" fill="#A859C6"/>
<path d="M779.075 112.532C779.075 112.532 769.638 100.898 773.396 81.7356C773.396 81.7356 795.798 59.2583 823.107 75.3969C850.416 91.5356 837.221 114.096 834.089 119.267C830.958 124.438 823.337 132.841 822.982 139.013C822.627 145.164 779.075 112.532 779.075 112.532Z" fill="#006282"/>
<path d="M780.474 101.252C780.474 101.252 775.88 135.573 783.417 142.037C790.955 148.5 798.826 145.79 798.826 145.79C798.826 145.79 799.076 150.168 796.592 152.9C794.107 155.631 793.878 172.458 801.54 173.709C809.181 174.96 821.249 153.546 822.46 146.457C823.671 139.347 822.022 129.005 825.425 125.377C828.828 121.728 835.906 117.266 830.373 110.218C824.84 103.17 823.671 113.867 821.792 112.804C819.913 111.74 815.674 102.587 815.445 95.5181C815.173 88.4497 808.701 108.779 780.474 101.252Z" fill="#FFC89F"/>
<path d="M782.687 128.129C786.769 128.129 790.078 123.209 790.078 117.141C790.078 111.072 786.769 106.152 782.687 106.152C778.605 106.152 775.296 111.072 775.296 117.141C775.296 123.209 778.605 128.129 782.687 128.129Z" fill="#004A56"/>
<path d="M782.687 126.148C786.031 126.148 788.742 122.115 788.742 117.141C788.742 112.166 786.031 108.133 782.687 108.133C779.343 108.133 776.632 112.166 776.632 117.141C776.632 122.115 779.343 126.148 782.687 126.148Z" fill="#E6FAFF"/>
<path d="M801.519 128.129C805.601 128.129 808.91 123.209 808.91 117.141C808.91 111.072 805.601 106.152 801.519 106.152C797.437 106.152 794.128 111.072 794.128 117.141C794.128 123.209 797.437 128.129 801.519 128.129Z" fill="#004A56"/>
<path d="M801.519 126.148C804.863 126.148 807.574 122.115 807.574 117.141C807.574 112.166 804.863 108.133 801.519 108.133C798.175 108.133 795.464 112.166 795.464 117.141C795.464 122.115 798.175 126.148 801.519 126.148Z" fill="#E6FAFF"/>
<path d="M506.279 259.949C506.279 259.949 480.911 270.729 475.379 277.443C475.379 277.443 471.245 286.388 469.762 303.59L508.074 280.8L506.279 259.949Z" fill="#FF9A6C"/>
<path d="M567.327 249.523C567.911 248.585 516.885 258.26 504.316 257.029C504.316 257.029 495.923 270.082 502.583 279.694C502.583 279.694 560.792 260.115 567.327 249.523Z" fill="#DD5B4A"/>
<path d="M330.567 280.153L321.046 342.185L313.029 271.187L330.567 280.153Z" fill="#006282"/>
<path d="M346.706 116.765L301.274 117.37L303.988 74.0625L352.322 89.4296L346.706 116.765Z" fill="#23728E"/>
<path d="M301.942 117.599C308.388 117.599 313.613 107.741 313.613 95.5807C313.613 83.4202 308.388 73.5621 301.942 73.5621C295.497 73.5621 290.271 83.4202 290.271 95.5807C290.271 107.741 295.497 117.599 301.942 117.599Z" fill="#7DC7E2"/>
<path d="M361.237 145.081C361.237 145.081 385.685 168.455 393.807 180.778C401.929 193.121 397.043 201.337 397.043 201.337C397.043 201.337 393.055 211.825 371.676 226.608C350.297 241.391 334.847 265.37 330.567 280.153C330.567 280.153 324.637 281.467 317.58 278.172C310.523 274.878 313.801 175.044 313.801 175.044L313.76 153.859C313.76 153.859 353.345 128.692 361.237 145.081Z" fill="#D4A84B"/>
<path d="M393.222 146.311C393.222 146.311 405.708 141.87 416.731 131.194C427.755 120.518 422.974 113.304 425.939 109.113C428.903 104.922 433.873 104.317 432.014 99.3756C430.156 94.4548 424.853 92.3488 424.978 85.8225C425.104 79.2961 423.872 78.7957 416.356 77.0859C408.839 75.3553 415.625 69.5796 408.338 67.7239C401.052 65.8681 402.075 68.2243 398.672 58.8622C395.268 49.5002 385.539 46.2891 376.52 53.1908C367.521 60.0924 368.753 76.4604 373.555 83.9876C378.357 91.4939 381.322 119.705 392.241 122.791C403.181 125.856 389.318 141.745 393.222 146.311Z" fill="#006282"/>
<path d="M383.535 167.996C383.535 167.996 388.984 149.022 396.521 142.62C404.037 136.219 402.743 127.399 402.743 127.399C402.743 127.399 410.739 124.292 406.501 116.703C402.931 110.301 394.287 117.995 393.306 117.245C392.325 116.494 393.306 108.008 393.932 104.067C394.559 100.126 391.469 94.2046 385.414 91.619C379.359 89.0335 361.863 123.646 361.863 123.646C361.863 123.646 363.345 134.113 375.685 140.16C375.685 140.16 364.097 148.396 359.775 151.232C355.453 154.068 360.068 174.793 383.535 167.996Z" fill="#F39A82"/>
<path fill-rule="evenodd" clip-rule="evenodd" d="M208.855 119.831C210.608 122.583 212.383 121.416 212.383 121.416C240.151 116.766 237.395 76.9616 217.686 91.6407C205.034 101.086 207.08 117.1 208.855 119.831ZM194.442 148.936C194.136 149.117 193.658 149.236 192.916 149.188C190.682 149.042 180.117 143.725 178.113 133.217C175.076 117.255 199.348 130.635 195.325 146.764C202.683 132.034 229.611 137.208 217.135 147.52C208.867 154.318 197.342 151.691 195.526 150.377C194.741 149.816 194.482 149.32 194.442 148.936ZM183.103 179.672C183.103 179.672 182.059 180.632 183.896 181.945C185.713 183.259 197.238 185.886 205.506 179.089C218.346 168.476 189.471 163.305 183.103 179.672ZM182.685 180.277C182.685 180.277 182.873 181.674 180.618 181.528C178.385 181.382 167.82 176.065 165.816 165.556C162.705 149.188 188.26 163.617 182.685 180.277ZM172.977 213.284C174.028 213.352 174.548 213.085 174.804 212.78C174.973 213.008 175.223 213.254 175.587 213.514C177.403 214.827 188.928 217.454 197.196 210.657C209.509 200.479 183.442 195.326 175.684 209.336C177.901 193.895 155.233 181.856 158.174 197.312C160.179 207.821 170.743 213.138 172.977 213.284Z" fill="url(#paint1_linear_1535_9032)"/>
<path d="M169.052 249.753L168.112 249.627C180.952 153.463 209.577 121.165 209.848 120.852L210.537 121.478C210.266 121.811 181.829 153.942 169.052 249.753Z" fill="#1D4B5A"/>
<path d="M126.23 212.179L127.253 228.109L120.071 208.113C111.95 203.088 102.68 198.626 92.0525 194.977C92.0525 194.977 88.5032 217.642 93.347 246.291L117.942 268.351L95.6436 257.551C103.494 290.266 123.182 327.631 170.346 347.814C170.367 347.814 192.268 259.031 126.23 212.179Z" fill="#005023"/>
<path d="M844.048 216.12L844.09 187.617C844.09 187.617 856.116 191.954 866.096 189.556C868.831 183.592 870.877 179.109 870.877 179.109C869.415 179.255 847.305 184.197 843.067 181.841C838.829 179.485 831.02 288.41 762.79 260.866C763.019 263.577 763.333 266.329 763.708 269.123C763.708 269.123 775.86 280.966 811.332 273.794C815.487 272.96 819.12 271.5 822.293 269.623C828.118 260.095 836.135 246.604 842.462 235.866C844.528 225.002 844.048 216.12 844.048 216.12Z" fill="#8F4AAF"/>
<path d="M93.3679 246.312L117.942 268.351L95.6436 257.551C103.494 290.266 123.182 327.631 170.346 347.814L92.0525 194.977C92.0734 194.977 88.5241 217.642 93.3679 246.312Z" fill="url(#paint2_linear_1535_9032)"/>
<path d="M91.8646 280.779L95.3513 293.831L86.4989 279.194C74.807 276.004 61.9042 274.377 47.8114 275.191L62.2592 286.45L36.8085 276.275C25.2628 277.922 12.9863 281.154 0 286.429C0 286.429 64.2217 378.903 169.72 344.249C169.72 344.249 143.246 297.459 91.8646 280.779Z" fill="#007131"/>
<path d="M169.72 344.249L0 286.429C0 286.429 64.2217 378.903 169.72 344.249Z" fill="url(#paint3_linear_1535_9032)"/>
<path d="M1138.75 380.029L1119.04 381.301L1143.76 372.46C1149.98 362.452 1155.47 351.025 1160 337.91C1160 337.91 1131.98 333.552 1096.55 339.516L1069.3 369.833L1082.67 342.351C1042.2 352.026 996.022 376.318 971.051 434.471C971.03 434.471 1080.81 461.473 1138.75 380.029Z" fill="#005023"/>
<path d="M1096.55 339.516L1069.3 369.833L1082.67 342.352C1042.2 352.026 996.022 376.318 971.051 434.471L1160.02 337.91C1160 337.91 1131.98 333.532 1096.55 339.516Z" fill="url(#paint4_linear_1535_9032)"/>
<path d="M1053.92 337.66L1037.78 341.955L1055.88 331.05C1059.85 316.621 1061.83 300.712 1060.85 283.343L1046.94 301.171L1059.49 269.79C1057.47 255.549 1053.46 240.432 1046.94 224.398C1046.94 224.398 932.614 303.59 975.456 433.699C975.456 433.679 1033.29 401.026 1053.92 337.66Z" fill="#007131"/>
<path d="M975.457 433.679L1046.94 224.377C1046.94 224.377 932.593 303.569 975.457 433.679Z" fill="url(#paint5_linear_1535_9032)"/>
<path d="M563.673 151.232C475.817 151.232 404.58 222.375 404.58 310.116C404.58 397.857 475.817 469 563.673 469C651.529 469 722.766 397.857 722.766 310.116C722.766 222.375 651.529 151.232 563.673 151.232ZM563.673 404.112C511.686 404.112 469.554 362.035 469.554 310.116C469.554 258.197 511.686 216.12 563.673 216.12C615.66 216.12 657.793 258.197 657.793 310.116C657.793 362.035 615.66 404.112 563.673 404.112Z" fill="url(#paint6_linear_1535_9032)"/>
<path d="M371.238 117.599H324.491L328.52 74.9175L376.854 90.2846L371.238 117.599Z" fill="#3486AB"/>
<path d="M583.361 245.582C583.361 245.582 583.57 244.519 579.708 245.082C575.845 245.666 565.74 246.979 555.05 254.611C544.361 262.242 486.653 277.443 469.783 303.59C469.783 303.59 463.29 356.78 511.916 388.62C511.916 388.62 548.954 330.049 575.261 313.306C575.261 313.306 580.48 319.958 608.979 333.678C608.979 333.678 627.394 321.938 634.305 294.832C634.305 294.832 596.807 287.534 589.813 270.291C589.813 270.291 583.111 253.339 583.361 245.582Z" fill="#EE6C53"/>
<path d="M634.284 294.832C634.284 294.832 652.782 293.602 670.549 262.075C670.549 262.075 664.62 247.292 682.053 234.74L685.582 230.632C685.582 230.632 690.593 225.294 696.438 226.525C702.284 227.755 704.247 235.636 704.163 241.224C704.122 244.436 703.454 248.585 702.89 251.546C702.431 253.944 701.324 256.154 699.696 257.968C696.585 261.366 691.323 267.038 688.797 268.998C685.102 271.875 655.663 332.28 609.877 331.3C609.877 331.28 613.071 309.699 634.284 294.832Z" fill="#FFC89F"/>
<path d="M634.284 208.634L635.933 204.61C635.933 204.61 648.293 188.555 643.825 177.358C640.213 168.288 628.688 166.182 622.279 172.437C615.869 178.672 617.184 186.074 608.311 186.553C599.438 187.054 582.86 192.475 580.793 208.634C578.726 224.815 587.433 242.058 595.909 239.744C604.386 237.45 621.485 227.588 621.485 227.588L634.284 208.634Z" fill="#004656"/>
<path d="M300.669 114.284C306.088 114.284 310.482 105.91 310.482 95.5807C310.482 85.2512 306.088 76.8774 300.669 76.8774C295.249 76.8774 290.856 85.2512 290.856 95.5807C290.856 105.91 295.249 114.284 300.669 114.284Z" fill="#005B70"/>
<path d="M306.598 80.714C307.433 83.4663 307.914 86.6565 307.914 90.0552C307.914 100.376 303.529 108.758 298.101 108.758C295.867 108.758 293.821 107.32 292.171 104.922C293.863 110.51 297.036 114.284 300.648 114.284C306.055 114.284 310.461 105.902 310.461 95.5807C310.482 89.5131 308.958 84.1335 306.598 80.714Z" fill="#004A56"/>
<path d="M291.086 96.9986C291.086 87.011 295.867 78.9208 301.796 78.9208C303.634 78.9208 305.387 79.7131 306.891 81.0893C305.2 78.4412 303.049 76.8566 300.69 76.8566C295.282 76.8566 290.877 85.2386 290.877 95.5598C290.877 98.479 291.232 101.21 291.858 103.671C291.357 101.607 291.086 99.3547 291.086 96.9986Z" fill="#056E7F"/>
<path d="M376.081 90.0343L365.642 86.719C367.229 91.2019 368.544 98.9585 363.325 107.09C360.757 111.115 356.289 113.533 351.508 113.533H324.867L324.491 117.599H353.032H371.258L376.875 90.2845L376.081 90.0343Z" fill="#23728E"/>
<path d="M324.491 117.599C330.937 117.599 336.162 107.741 336.162 95.5807C336.162 83.4202 330.937 73.5621 324.491 73.5621C318.045 73.5621 312.82 83.4202 312.82 95.5807C312.82 107.741 318.045 117.599 324.491 117.599Z" fill="#7DC7E2"/>
<path d="M342.718 79.5255C347.165 81.6523 350.464 89.2212 350.464 98.2497C350.464 108.258 346.434 116.494 341.256 117.495C341.653 117.558 342.05 117.599 342.446 117.599C348.835 117.599 354.013 109.071 354.013 98.5624C354.034 88.1787 348.981 79.7757 342.718 79.5255Z" fill="#47A9C4"/>
<path d="M323.217 114.284C328.637 114.284 333.03 105.91 333.03 95.5807C333.03 85.2512 328.637 76.8774 323.217 76.8774C317.798 76.8774 313.405 85.2512 313.405 95.5807C313.405 105.91 317.798 114.284 323.217 114.284Z" fill="#005B70"/>
<path d="M314.574 104.401C314.594 104.463 314.615 104.525 314.615 104.588C314.595 104.525 314.574 104.463 314.574 104.401Z" fill="#056E7F"/>
<path d="M313.613 96.9986C313.613 87.011 318.394 78.9208 324.324 78.9208C326.161 78.9208 327.915 79.7131 329.418 81.0893C327.727 78.4412 325.577 76.8566 323.217 76.8566C317.81 76.8566 313.405 85.2386 313.405 95.5598C313.405 98.479 313.759 101.21 314.386 103.671C313.906 101.607 313.613 99.3547 313.613 96.9986Z" fill="#056E7F"/>
<path d="M329.126 80.6722C330.316 83.7582 331.026 87.5739 331.026 91.7024C331.026 102.024 326.642 110.406 321.213 110.406C319 110.406 316.954 108.988 315.305 106.611C317.079 111.261 319.96 114.284 323.217 114.284C328.625 114.284 333.03 105.902 333.03 95.5807C333.009 89.4922 331.485 84.0918 329.126 80.6722Z" fill="#004A56"/>
<path d="M375.664 140.139C375.664 140.139 378.482 141.995 381.218 142.704C381.218 142.704 370.048 143.851 363.554 148.646L375.664 140.139Z" fill="#BD7850"/>
<path d="M314.302 466.394H263.359C259.037 466.394 255.509 462.891 255.509 458.554V409.554C255.509 405.238 252.001 401.714 247.659 401.714H113.683C109.361 401.714 105.832 398.211 105.832 393.874V351.505C105.832 350.025 106.25 348.565 107.064 347.314L227.866 157.466C229.307 155.214 231.812 153.838 234.485 153.838H314.302C318.624 153.838 322.153 157.341 322.153 161.678V335.325C322.153 339.641 325.66 343.165 330.003 343.165H354.66C358.982 343.165 362.51 346.668 362.51 351.005V393.916C362.51 398.232 359.003 401.756 354.66 401.756H330.003C325.681 401.756 322.153 405.259 322.153 409.596V458.595C322.153 462.891 318.624 466.394 314.302 466.394ZM255.509 335.325V239.39C255.509 231.591 245.32 228.589 241.082 235.136L178.886 331.071C175.503 336.284 179.261 343.165 185.462 343.165H247.659C252.001 343.165 255.509 339.662 255.509 335.325Z" fill="url(#paint7_linear_1535_9032)"/>
<path d="M968.399 466.394H917.456C913.134 466.394 909.606 462.891 909.606 458.554V409.554C909.606 405.238 906.099 401.714 901.756 401.714H767.759C763.437 401.714 759.908 398.211 759.908 393.874V351.505C759.908 350.025 760.326 348.565 761.14 347.314L881.942 157.466C883.383 155.214 885.888 153.838 888.561 153.838H968.379C972.7 153.838 976.229 157.341 976.229 161.678V335.325C976.229 339.641 979.736 343.165 984.079 343.165H1008.74C1013.06 343.165 1016.59 346.668 1016.59 351.005V393.916C1016.59 398.232 1013.08 401.756 1008.74 401.756H984.079C979.757 401.756 976.229 405.259 976.229 409.596V458.595C976.229 462.891 972.721 466.394 968.399 466.394ZM909.606 335.325V239.39C909.606 231.591 899.417 228.589 895.179 235.136L832.983 331.071C829.6 336.284 833.358 343.165 839.559 343.165H901.756C906.099 343.165 909.606 339.662 909.606 335.325Z" fill="url(#paint8_linear_1535_9032)"/>
<path d="M230.894 420.584C230.894 420.584 228.722 456.093 259.267 465.435C259.267 465.435 264.737 428.195 230.894 420.584Z" fill="#007131"/>
<path d="M300.314 430.426C300.314 430.426 291.545 464.913 259.58 464.496C259.601 464.517 265.76 427.382 300.314 430.426Z" fill="#005023"/>
<path d="M366.435 83.6539C365.6 84.6339 365.517 86.0518 366.227 87.136C368.92 91.2645 375.121 103.838 362.51 117.724C347.06 134.739 352.614 131.152 352.614 131.152L369.212 137.116C369.212 137.116 376.52 126.732 383.681 122.666C390.842 118.6 392.262 114.722 392.262 114.722C392.262 114.722 390.592 110.593 385.664 115.827C385.664 115.827 398.985 96.0602 383.806 85.7182C373.346 78.5663 368.461 81.2769 366.435 83.6539Z" fill="#F7B6A0"/>
<path d="M613.677 319.603C602.006 325.838 576.701 302.568 570.584 307.739C568.266 309.699 562.88 316.225 557.076 323.586C549.873 332.739 538.765 338.015 527.115 337.66C514.066 337.264 497.739 333.344 486.924 318.581C466.338 290.495 492.708 354.445 492.708 354.445C492.708 354.445 511.999 364.558 513.523 365.267C515.068 365.976 531.813 358.657 531.813 358.657L535.926 352.777L534.819 355.779C547.179 339.432 562.462 321.48 575.219 313.348C575.219 313.348 580.439 319.999 608.937 333.719C608.937 333.719 610.148 332.948 612.09 331.321C611.338 331.342 610.587 331.342 609.835 331.321C609.877 331.28 610.608 326.359 613.677 319.603Z" fill="#E05A48"/>
<path d="M276.325 420.209L270.374 424.462L276.199 417.519C275.824 411.723 274.55 405.613 271.982 399.337L267.702 409.262L269.769 394.52C267.222 389.537 263.839 384.47 259.413 379.404C259.413 379.404 227.365 422.961 259.58 465.435C259.58 465.435 276.742 446.127 276.325 420.209Z" fill="#007131"/>
<path d="M259.58 465.435L259.413 379.404C259.413 379.404 227.365 422.961 259.58 465.435Z" fill="url(#paint9_linear_1535_9032)"/>
<path d="M635.933 204.61C635.933 204.61 640.568 252.338 633.177 256.279C625.786 260.22 619.209 260.386 613.948 259.24C608.687 258.093 589.813 269.186 589.813 269.186C589.813 269.186 576.096 268.164 582.505 244.936C582.505 244.936 592.944 239.932 595.909 239.765C598.874 239.598 588.915 230.486 598.206 223.188C607.497 215.891 607.998 230.903 609.397 230.903C610.795 230.903 611.61 220.561 613.677 215.703C615.723 210.866 620.17 209.468 626.579 208.405C632.968 207.321 634.701 206.987 635.933 204.61Z" fill="#FFC89F"/>
<path d="M636.455 234.698C638.842 234.698 640.777 229.61 640.777 223.334C640.777 217.058 638.842 211.971 636.455 211.971C634.068 211.971 632.133 217.058 632.133 223.334C632.133 229.61 634.068 234.698 636.455 234.698Z" fill="#004A56"/>
<path d="M637.666 233.781C639.384 233.781 640.777 229.104 640.777 223.334C640.777 217.565 639.384 212.888 637.666 212.888C635.948 212.888 634.555 217.565 634.555 223.334C634.555 229.104 635.948 233.781 637.666 233.781Z" fill="#E6FAFF"/>
<path d="M477.404 300.921L478.072 311.2L473.458 298.314C468.238 295.062 462.246 292.205 455.398 289.849C455.398 289.849 453.122 304.465 456.233 322.918L472.08 337.118L457.716 330.154C462.768 351.234 475.462 375.317 505.861 388.328C505.84 388.328 519.954 331.113 477.404 300.921Z" fill="#005023"/>
<path d="M456.212 322.918L472.059 337.118L457.695 330.154C462.747 351.234 475.441 375.317 505.84 388.328L455.377 289.828C455.377 289.828 453.101 304.444 456.212 322.918Z" fill="url(#paint10_linear_1535_9032)"/>
<path d="M633.135 223.334H607.246V225.357H633.135V223.334Z" fill="#004A56"/>
<path d="M422.097 358.136C422.097 358.136 455.857 402.819 508.408 387.744C508.408 387.744 477.466 338.119 422.097 358.136Z" fill="#007131"/>
<path d="M935.683 405.196C935.683 405.196 897.81 429.3 908.646 466.936C908.646 466.936 950.507 444.855 935.683 405.196Z" fill="#007131"/>
<path d="M443.644 399.587C443.644 399.587 483.876 413.87 508.387 387.702C508.408 387.723 467.633 369.666 443.644 399.587Z" fill="#005023"/>
<path d="M509.557 345.709L512.814 351.005L510.559 343.686C512.834 339.391 515.945 335.283 520.204 331.634L519.787 339.37L523.691 328.965C527.491 326.317 532.022 323.982 537.408 322.147C537.408 322.147 549.33 370.625 508.179 388.349C508.179 388.328 500.433 365.475 509.557 345.709Z" fill="#007131"/>
<path d="M508.178 388.328L537.408 322.126C537.408 322.147 549.33 370.625 508.178 388.328Z" fill="url(#paint11_linear_1535_9032)"/>
<path d="M807.824 113.304L824.485 109.53L823.316 111.49L808.513 114.826L807.824 113.304Z" fill="#004A56"/>
<path d="M794.629 113.679H788.742V115.055H794.629V113.679Z" fill="#004A56"/>
<path d="M897.706 394.667L896.87 402.778L894.699 392.102C890.732 388.891 886.076 385.847 880.606 383.115C880.606 383.115 876.702 394.208 876.848 409.033L888.289 422.211L877.119 414.871C878.539 431.99 885.993 452.465 909.878 466.623C909.919 466.644 929.524 423.837 897.706 394.667Z" fill="#005023"/>
<path d="M876.869 409.033L888.31 422.211L877.14 414.871C878.56 431.99 886.014 452.465 909.898 466.623L880.627 383.094C880.627 383.115 876.744 394.208 876.869 409.033Z" fill="url(#paint12_linear_1535_9032)"/>
<path d="M366.227 87.1361C368.92 91.2646 375.121 103.838 362.51 117.724C357.917 122.791 355.182 126.023 353.616 128.067C355.516 127.608 355.808 130.61 365.642 121.227C373.826 113.429 374.933 104.422 372.929 94.2046C371.697 87.8659 368.565 85.0093 366.373 83.7374C365.6 84.7174 365.538 86.0936 366.227 87.1361Z" fill="#F39A82"/>
<path d="M330.567 280.153C334.847 265.37 350.297 241.391 371.676 226.608C393.055 211.825 397.043 201.337 397.043 201.337C397.043 201.337 397.753 200.148 398.171 197.98H385.143L343.72 216.328C343.72 216.328 364.41 217.371 358.293 225.836C352.176 234.302 332.174 258.802 325.347 279.694C325.284 279.903 325.222 280.091 325.159 280.278C328.437 280.612 330.567 280.153 330.567 280.153Z" fill="#C69744"/>
<path d="M354.097 127.42C354.097 127.42 294.739 186.053 312.82 204.61C330.901 223.168 400.3 222.021 398.651 193.434C397.001 164.868 360.339 178.171 348.981 181.778C348.981 181.778 356.372 155.986 369.212 137.116C369.212 137.116 364.452 126.753 354.097 127.42Z" fill="#FEC34D"/>
<path d="M363.993 130.631C361.696 135.51 347.77 165.723 349.002 181.778C349.002 181.778 356.393 155.986 369.233 137.116C369.213 137.116 367.521 133.446 363.993 130.631Z" fill="#F2B241"/>
<path d="M312.82 204.61C330.901 223.167 400.3 222.021 398.651 193.434C398.63 192.975 398.588 192.517 398.546 192.079L398.317 191.891C384.996 213.659 346.434 210.323 328.312 204.798C310.294 199.293 314.094 179.193 314.135 178.984C309.02 189.389 307.245 198.897 312.82 204.61Z" fill="#F2B241"/>
<path d="M617.56 259.761C616.454 259.657 609.585 256.571 606.599 253.276C603.613 249.982 585.616 270.708 580.96 258.781C580.96 258.781 581.796 268.602 589.792 269.165C589.792 269.165 608.311 258.698 612.633 259.156C616.955 259.594 617.56 259.761 617.56 259.761Z" fill="#FF9A6C"/>
<path d="M688.797 268.977C691.323 267.017 696.585 261.346 699.696 257.947C701.345 256.154 702.431 253.923 702.89 251.525C703.454 248.564 704.122 244.415 704.163 241.204C704.184 239.577 704.038 237.742 703.662 235.928C703.642 236.012 701.261 255.382 687.962 263.514C687.962 263.514 676.813 275.587 669.756 286.554C662.699 297.501 635.474 328.444 613.364 320.291C610.545 326.692 609.877 331.28 609.877 331.28C655.663 332.26 685.102 271.854 688.797 268.977Z" fill="#FF9A6C"/>
<path d="M688.972 242.454C690.989 239.748 691.057 236.388 689.124 234.951C687.191 233.514 683.988 234.544 681.971 237.25C679.954 239.957 679.886 243.316 681.819 244.753C683.752 246.19 686.955 245.161 688.972 242.454Z" fill="#F6947E"/>
<path d="M689.549 209.364H682.972V242.872H686.104C688.004 242.872 689.549 241.329 689.549 239.431V209.364Z" fill="#00759E"/>
<path d="M686.25 211.971C696.547 211.971 704.894 199.564 704.894 184.26C704.894 168.955 696.547 156.549 686.25 156.549C675.953 156.549 667.605 168.955 667.605 184.26C667.605 199.564 675.953 211.971 686.25 211.971Z" fill="#00759E"/>
<path d="M686.25 205.048C693.975 205.048 700.238 195.741 700.238 184.26C700.238 172.779 693.975 163.471 686.25 163.471C678.524 163.471 672.261 172.779 672.261 184.26C672.261 195.741 678.524 205.048 686.25 205.048Z" fill="#7DC7E2"/>
<path d="M798.826 145.79C798.826 145.79 804.63 145.227 809.056 141.474C809.056 141.474 799.828 150.481 798.074 156.174C796.3 161.845 794.734 162.199 795.882 167.016C795.882 167.016 793.648 158.592 796.32 153.275C798.972 147.958 798.993 146.853 798.826 145.79Z" fill="#FF9A6C"/>
<path d="M937.061 139.826C934.765 139.576 932.447 140.097 930.38 141.161C926.893 142.954 921.068 146.394 920.546 148.188C916.266 162.721 937.019 161.595 941.174 158.384C945.329 155.173 946.665 147.249 943.68 144.205C941.466 141.911 940.423 140.181 937.061 139.826Z" fill="#FFC89F"/>
<path d="M929.378 141.64C929.378 141.64 922.989 142.641 920.233 139.785C917.477 136.928 915.202 145.706 923.365 148.063C931.549 150.398 927.603 145.018 929.378 141.64Z" fill="#FFC89F"/>
</g>
<defs>
<linearGradient id="paint0_linear_1535_9032" x1="1004.29" y1="155.965" x2="1004.29" y2="282.497" gradientUnits="userSpaceOnUse">
<stop stop-color="#00AF4D"/>
<stop offset="1" stop-color="#005023"/>
</linearGradient>
<linearGradient id="paint1_linear_1535_9032" x1="195.381" y1="88.408" x2="195.381" y2="215.127" gradientUnits="userSpaceOnUse">
<stop stop-color="#00AF4D"/>
<stop offset="1" stop-color="#005023"/>
</linearGradient>
<linearGradient id="paint2_linear_1535_9032" x1="130.582" y1="194.977" x2="130.582" y2="347.814" gradientUnits="userSpaceOnUse">
<stop stop-color="#005023"/>
<stop offset="1" stop-color="#009F46"/>
</linearGradient>
<linearGradient id="paint3_linear_1535_9032" x1="84.86" y1="286.429" x2="84.86" y2="352.02" gradientUnits="userSpaceOnUse">
<stop stop-color="#005023"/>
<stop offset="1" stop-color="#009F46"/>
</linearGradient>
<linearGradient id="paint4_linear_1535_9032" x1="1065.54" y1="336.365" x2="1065.54" y2="434.471" gradientUnits="userSpaceOnUse">
<stop stop-color="#005023"/>
<stop offset="1" stop-color="#009F46"/>
</linearGradient>
<linearGradient id="paint5_linear_1535_9032" x1="1006.39" y1="224.377" x2="1006.39" y2="433.679" gradientUnits="userSpaceOnUse">
<stop stop-color="#005023"/>
<stop offset="1" stop-color="#009F46"/>
</linearGradient>
<linearGradient id="paint6_linear_1535_9032" x1="563.673" y1="151.232" x2="563.673" y2="469" gradientUnits="userSpaceOnUse">
<stop stop-color="#003399"/>
<stop offset="1" stop-color="#02256A"/>
</linearGradient>
<linearGradient id="paint7_linear_1535_9032" x1="234.171" y1="153.838" x2="234.171" y2="466.394" gradientUnits="userSpaceOnUse">
<stop stop-color="#003399"/>
<stop offset="1" stop-color="#02256A"/>
</linearGradient>
<linearGradient id="paint8_linear_1535_9032" x1="888.248" y1="153.838" x2="888.248" y2="466.394" gradientUnits="userSpaceOnUse">
<stop stop-color="#003399"/>
<stop offset="1" stop-color="#02256A"/>
</linearGradient>
<linearGradient id="paint9_linear_1535_9032" x1="252.4" y1="379.404" x2="252.4" y2="465.435" gradientUnits="userSpaceOnUse">
<stop stop-color="#005023"/>
<stop offset="1" stop-color="#009F46"/>
</linearGradient>
<linearGradient id="paint10_linear_1535_9032" x1="480.207" y1="289.828" x2="480.207" y2="388.328" gradientUnits="userSpaceOnUse">
<stop stop-color="#005023"/>
<stop offset="1" stop-color="#009F46"/>
</linearGradient>
<linearGradient id="paint11_linear_1535_9032" x1="523.595" y1="322.126" x2="523.595" y2="388.328" gradientUnits="userSpaceOnUse">
<stop stop-color="#005023"/>
<stop offset="1" stop-color="#009F46"/>
</linearGradient>
<linearGradient id="paint12_linear_1535_9032" x1="893.382" y1="383.094" x2="893.382" y2="466.623" gradientUnits="userSpaceOnUse">
<stop stop-color="#005023"/>
<stop offset="1" stop-color="#009F46"/>
</linearGradient>
<clipPath id="clip0_1535_9032">
<rect width="1160" height="469" fill="white"/>
</clipPath>
</defs>
</svg>
