<svg width="30" height="30" viewBox="0 0 30 30" fill="none" xmlns="http://www.w3.org/2000/svg">
<g clip-path="url(#clip0_405_10431)">
<path d="M29.5685 15C29.5685 6.99187 23.0766 0.5 15.0685 0.5C7.06035 0.5 0.568481 6.99187 0.568481 15C0.568481 22.2373 5.87089 28.2361 12.8029 29.3238V19.1914H9.12122V15H12.8029V11.8055C12.8029 8.17141 14.9677 6.16406 18.2797 6.16406C19.8662 6.16406 21.5255 6.44727 21.5255 6.44727V10.0156H19.6972C17.896 10.0156 17.3341 11.1334 17.3341 12.2801V15H21.3556L20.7127 19.1914H17.3341V29.3238C24.2661 28.2361 29.5685 22.2375 29.5685 15Z" fill="white"/>
<path d="M20.7127 19.1914L21.3556 15H17.3341V12.2801C17.3341 11.1334 17.896 10.0156 19.6972 10.0156H21.5255V6.44727C21.5255 6.44727 19.8662 6.16406 18.2797 6.16406C14.9677 6.16406 12.8029 8.17141 12.8029 11.8055V15H9.12122V19.1914H12.8029V29.3238C13.5412 29.4397 14.2976 29.5 15.0685 29.5C15.8394 29.5 16.5958 29.4397 17.3341 29.3238V19.1914H20.7127Z" fill="#004A48"/>
</g>
<defs>
<clipPath id="clip0_405_10431">
<rect width="29" height="29" fill="white" transform="translate(0.568481 0.5)"/>
</clipPath>
</defs>
</svg>
