<svg width="11" height="11" viewBox="0 0 11 11" fill="none" xmlns="http://www.w3.org/2000/svg">
<path fill-rule="evenodd" clip-rule="evenodd" d="M5.12931 0.185732C5.30287 0.0121657 5.58428 0.0121657 5.75785 0.185732L10.2023 4.63018C10.2856 4.71353 10.3325 4.82657 10.3325 4.94445V10.5C10.3325 10.7455 10.1335 10.9444 9.88802 10.9444H0.999132C0.753672 10.9444 0.554688 10.7455 0.554688 10.5V4.94445C0.554688 4.82657 0.601513 4.71353 0.684862 4.63018L5.12931 0.185732ZM1.44358 5.12854V10.0556H9.44358V5.12854L5.44358 1.12854L1.44358 5.12854Z" fill="#1B1B1B"/>
<path fill-rule="evenodd" clip-rule="evenodd" d="M4.77951 6.5V10.5C4.77951 10.7455 4.58053 10.9444 4.33507 10.9444C4.08961 10.9444 3.89062 10.7455 3.89062 10.5V6.5C3.89062 6.32539 3.91853 6.13927 3.99866 5.97902C4.07845 5.81944 4.25714 5.61111 4.55729 5.61111H6.33507C6.63522 5.61111 6.81392 5.81944 6.8937 5.97902C6.97383 6.13927 7.00174 6.32539 7.00174 6.5V10.5C7.00174 10.7455 6.80275 10.9444 6.55729 10.9444C6.31183 10.9444 6.11285 10.7455 6.11285 10.5V6.5H4.77951Z" fill="#1B1B1B"/>
</svg>
