<svg width="49" height="49" viewBox="0 0 49 49" fill="none" xmlns="http://www.w3.org/2000/svg">
<path d="M19.3524 1.14111V7.90444L15.4135 9.03014C14.6021 9.26217 13.9876 9.92802 13.8224 10.7556L11.8374 20.6802H8.15519C7.71222 20.6802 7.36488 21.062 7.40707 21.5028L8.75636 35.6742C8.80347 36.1671 9.08964 36.6052 9.52276 36.8456L15.5949 40.2192L15.0507 45.1157C14.9445 46.0727 15.7531 46.882 16.7108 46.7758L21.6073 46.2316L23.1106 47.7349L25.3648 46.2316L30.6256 44.7283L31.8265 46.3293C32.223 46.8581 33.0605 46.6542 33.1687 46.0017L33.6314 43.2251L35.6859 41.1705C36.2273 40.6291 36.2751 39.7671 35.797 39.1687L31.5143 33.8159C31.0439 33.2274 31.2 32.3597 31.8455 31.9716L40.8637 26.5611C41.4677 26.199 41.7391 25.4649 41.5162 24.7969L38.8914 16.9227V12.8221C38.8914 12.0936 38.5399 11.4109 37.9472 10.9876L34.6629 8.64201C34.0216 8.18428 33.1884 8.09428 32.4642 8.40436L28.3699 10.1594L28.9486 6.68804C29.0337 6.17968 28.5921 5.73812 28.0838 5.8232L24.6125 6.40187L24.1175 3.92758C23.9586 3.13446 23.3869 2.48689 22.6198 2.23095L19.3517 1.14182L19.3524 1.14111Z" stroke="#7D0F5C" stroke-width="2" stroke-linecap="round" stroke-linejoin="round"/>
<path d="M8.83118 32.7043H27.6186" stroke="url(#paint0_linear_466_27480)" stroke-width="2" stroke-linecap="round" stroke-linejoin="round"/>
<path d="M18.6009 16.9226H30.6249" stroke="url(#paint1_linear_466_27480)" stroke-width="2" stroke-linecap="round" stroke-linejoin="round"/>
<path d="M12.5884 16.9226H15.5943" stroke="url(#paint2_linear_466_27480)" stroke-width="2" stroke-linecap="round" stroke-linejoin="round"/>
<path d="M33.6325 16.9227C33.6325 17.7531 32.9596 18.426 32.1293 18.426C31.2989 18.426 30.626 17.7531 30.626 16.9227C30.626 16.0923 31.2989 15.4194 32.1293 15.4194C32.9596 15.4194 33.6325 16.0923 33.6325 16.9227Z" stroke="url(#paint3_linear_466_27480)" stroke-width="2" stroke-linecap="round" stroke-linejoin="round"/>
<path d="M33.6318 16.9226H38.8926" stroke="url(#paint4_linear_466_27480)" stroke-width="2" stroke-linecap="round" stroke-linejoin="round"/>
<defs>
<linearGradient id="paint0_linear_466_27480" x1="18.2249" y1="32.7043" x2="18.2249" y2="33.7043" gradientUnits="userSpaceOnUse">
<stop stop-color="#004A48"/>
<stop offset="1" stop-color="#195C5A"/>
</linearGradient>
<linearGradient id="paint1_linear_466_27480" x1="24.6129" y1="16.9226" x2="24.6129" y2="17.9226" gradientUnits="userSpaceOnUse">
<stop stop-color="#004A48"/>
<stop offset="1" stop-color="#195C5A"/>
</linearGradient>
<linearGradient id="paint2_linear_466_27480" x1="14.0914" y1="16.9226" x2="14.0914" y2="17.9226" gradientUnits="userSpaceOnUse">
<stop stop-color="#004A48"/>
<stop offset="1" stop-color="#195C5A"/>
</linearGradient>
<linearGradient id="paint3_linear_466_27480" x1="32.1293" y1="15.4194" x2="32.1293" y2="18.426" gradientUnits="userSpaceOnUse">
<stop stop-color="#004A48"/>
<stop offset="1" stop-color="#195C5A"/>
</linearGradient>
<linearGradient id="paint4_linear_466_27480" x1="36.2622" y1="16.9226" x2="36.2622" y2="17.9226" gradientUnits="userSpaceOnUse">
<stop stop-color="#004A48"/>
<stop offset="1" stop-color="#195C5A"/>
</linearGradient>
</defs>
</svg>
