<svg width="50" height="51" viewBox="0 0 50 51" fill="none" xmlns="http://www.w3.org/2000/svg">
<path d="M49 30.026V22.0139L44.2764 21.4869C43.7829 19.3626 42.9455 17.3702 41.8275 15.5699L44.865 11.8675L39.1921 6.20212L35.4504 9.18778C33.6519 8.06854 31.6609 7.22904 29.5378 6.73152L29.0612 1.93799H21.0384L20.5033 6.72146C18.3701 7.21649 16.37 8.05699 14.5634 9.17922L10.8783 6.16398L5.20538 11.8294L8.18377 15.5519C7.06752 17.345 6.23021 19.3293 5.73388 21.445L1 21.9145V29.9265L5.72362 30.4535C6.21706 32.5778 7.05447 34.5702 8.17251 36.3705L5.13497 40.0729L10.8079 45.7383L14.5496 42.7526C16.3499 43.8731 18.3431 44.7132 20.4688 45.2105L20.9388 49.938H28.9616L29.4893 45.2207C31.6077 44.73 33.5951 43.8988 35.3919 42.7891L39.1216 45.8409L44.7946 40.1755L41.7936 36.4247C42.9212 34.6221 43.7664 32.6253 44.2661 30.4954L49 30.026Z" stroke="#7D0F5C" stroke-width="2" stroke-miterlimit="10" stroke-linecap="round" stroke-linejoin="round"/>
<path d="M25.0006 39.449C32.4902 39.449 38.5617 33.3856 38.5617 25.906C38.5617 18.4264 32.4902 12.363 25.0006 12.363C17.511 12.363 11.4395 18.4264 11.4395 25.906C11.4395 33.3856 17.511 39.449 25.0006 39.449Z" stroke="#004A48" stroke-width="2" stroke-miterlimit="10" stroke-linecap="round" stroke-linejoin="round"/>
<path d="M30.5995 27.1927C30.0766 23.5782 25.0286 20.7594 25.0283 18.3206C25.0286 20.7594 19.9301 23.5771 19.4079 27.1914C18.8856 30.8057 21.9683 33.4189 24.973 33.4192C27.9777 33.4195 31.0889 30.8866 30.5995 27.1927Z" stroke="#004A48" stroke-width="2" stroke-miterlimit="10" stroke-linecap="round" stroke-linejoin="round"/>
</svg>
