<svg width="49" height="43" viewBox="0 0 49 43" fill="none" xmlns="http://www.w3.org/2000/svg">
<g clip-path="url(#clip0_261_13253)">
<path d="M13.476 9.03955V4.86486C13.476 3.20361 14.8354 1.84424 16.4967 1.84424H32.2054C33.8667 1.84424 35.226 3.20361 35.226 4.86486V9.03955M45.0698 22.5395V38.5474C45.0698 40.0942 43.8042 41.3599 42.2573 41.3599H6.44479C4.89792 41.3599 3.63229 40.0942 3.63229 38.5474V22.6333" stroke="#004A48" stroke-width="2" stroke-linecap="round" stroke-linejoin="round"/>
<path d="M20.601 27.2739C10.6832 26.7067 1.75729 23.8708 1.75729 18.7661V12.1099C1.75729 10.5611 3.02104 9.29736 4.56979 9.29736H44.1323C45.681 9.29736 46.9448 10.5611 46.9448 12.1099V18.7661C46.9448 23.9027 37.9064 26.7424 27.9135 27.2842" stroke="#7D0F5C" stroke-width="2" stroke-linecap="round" stroke-linejoin="round"/>
<path d="M20.8823 24.4849H27.8198V27.7192C27.8198 29.4986 26.3648 30.9536 24.5854 30.9536H24.1167C22.3373 30.9536 20.8823 29.4986 20.8823 27.7192V24.4849Z" stroke="#004A48" stroke-width="2" stroke-linecap="round" stroke-linejoin="round"/>
</g>
<defs>
<clipPath id="clip0_261_13253">
<rect width="48" height="42.3281" fill="white" transform="translate(0.351044 0.437988)"/>
</clipPath>
</defs>
</svg>
