<svg width="48" height="49" viewBox="0 0 48 49" fill="none" xmlns="http://www.w3.org/2000/svg">
<g clip-path="url(#clip0_261_13006)">
<path d="M42.7594 35.9819H46.9687M19.68 35.9819H23.4159M9.50343 33.76C10.4081 35.1006 11.9409 35.9819 13.6781 35.9819H13.9266M8.64374 23.3847V28.2175M8.98312 12.8078C8.75812 13.389 8.64281 14.0069 8.64374 14.6303V17.6406M18.2175 9.58936H13.6781C13.59 9.58936 13.5028 9.59123 13.4166 9.59592M28.8047 9.58936H23.9775M34.9978 16.1772V14.6303C34.9997 13.5165 34.6312 12.4347 33.9506 11.5534M34.9978 26.7531V21.9203M34.9978 37.33V32.4972M34.9978 47.9069V43.074" stroke="#7D0F5C" stroke-width="2" stroke-linecap="round" stroke-linejoin="round"/>
<path d="M27.3469 43.552H11.6287C5.80031 43.552 1.03125 38.7783 1.03125 32.9442V12.5771C1.03125 6.74299 5.80031 1.96924 11.6287 1.96924H31.9753C37.8037 1.96924 42.5728 6.74299 42.5728 12.5771V47.9067H27.3478V18.2283C27.3478 17.6686 26.8903 17.2102 26.3306 17.2102H17.2744C16.7147 17.2102 16.2572 17.6686 16.2572 18.2283V27.2939C16.2572 27.8546 16.7147 28.312 17.2744 28.312H27.2541M42.9 28.3289H46.9687V43.6345H42.7594" stroke="#004A48" stroke-width="2" stroke-linecap="round" stroke-linejoin="round"/>
</g>
<defs>
<clipPath id="clip0_261_13006">
<rect width="48" height="48" fill="white" transform="translate(0 0.937988)"/>
</clipPath>
</defs>
</svg>
