<svg width="49" height="49" viewBox="0 0 49 49" fill="none" xmlns="http://www.w3.org/2000/svg">
<g clip-path="url(#clip0_261_13094)">
<path d="M42.875 32.063H6.125M42.875 32.063C44.9375 32.063 46.625 33.7505 46.625 35.813V43.313C46.625 45.3755 44.9375 47.063 42.875 47.063H6.125C4.0625 47.063 2.375 45.3755 2.375 43.313V35.813C2.375 33.7505 4.0625 32.063 6.125 32.063M42.875 32.063V17.4942M6.125 32.063V17.4942M20.75 39.563H28.25M13.625 12.188C13.625 15.2949 11.1069 17.813 8 17.813C4.89313 17.813 2.375 15.2949 2.375 12.188C2.375 10.9233 2.79219 9.75611 3.49719 8.8158L6.87313 4.31486C7.55656 3.40268 8.64687 2.81299 9.875 2.81299H39.125C40.3531 2.81299 41.4425 3.40268 42.1269 4.31486L45.5028 8.8158C46.2078 9.75518 46.625 10.9224 46.625 12.188C46.625 15.2949 44.1069 17.813 41 17.813C37.8931 17.813 35.375 15.2949 35.375 12.188" stroke="#7D0F5C" stroke-width="2" stroke-linecap="round" stroke-linejoin="round"/>
<path d="M13.625 12.188C13.625 15.3005 15.7625 17.813 18.875 17.813C21.9875 17.813 24.5 15.3005 24.5 12.188C24.5 15.3005 27.0125 17.813 30.125 17.813C33.2375 17.813 35.375 15.3005 35.375 12.188" stroke="#004A48" stroke-width="2" stroke-linecap="round" stroke-linejoin="round"/>
</g>
<defs>
<clipPath id="clip0_261_13094">
<rect width="48" height="48" fill="white" transform="translate(0.5 0.937988)"/>
</clipPath>
</defs>
</svg>
