<svg width="50" height="50" viewBox="0 0 50 50" fill="none" xmlns="http://www.w3.org/2000/svg">
<path d="M29.8033 31.3313C28.9192 31.9547 27.8739 32.3147 26.7536 32.3147C23.5802 32.3147 21.0067 29.4225 21.0067 25.8553C21.0067 22.2881 23.5792 19.3959 26.7536 19.3959C28.128 19.3959 29.3898 19.9378 30.378 20.8425M19.4805 23.6522H26.5173M19.4805 28.0247H25.7617" stroke="url(#paint0_linear_352_5846)" stroke-width="2" stroke-linecap="round" stroke-linejoin="round"/>
<path d="M25.4588 1.31364L25.9861 2.8396C26.0509 3.02697 26.2363 3.15349 26.4449 3.15349H28.1515C28.6189 3.15349 28.814 3.71558 28.4354 3.97441L27.0543 4.91703C26.8853 5.03293 26.8138 5.23768 26.8785 5.42408L27.4059 6.95004C27.5507 7.36823 27.0408 7.71591 26.6632 7.45708L25.2821 6.51446C25.1102 6.39857 24.8861 6.39857 24.7142 6.51446L23.3331 7.45708C22.9545 7.71591 22.4455 7.36823 22.5904 6.95004L23.1177 5.42408C23.1824 5.23671 23.1119 5.03196 22.942 4.91703L21.5609 3.97441C21.1823 3.71558 21.3774 3.15349 21.8448 3.15349H23.5514C23.761 3.15349 23.9464 3.02697 24.0101 2.8396L24.5375 1.31364C24.6823 0.895452 25.3111 0.895452 25.4559 1.31364H25.4588ZM35.6412 4.22262L36.1686 5.74858C36.2333 5.93595 36.4187 6.06247 36.6273 6.06247H38.3339C38.8013 6.06247 38.9964 6.62456 38.6178 6.8834L37.2367 7.82601C37.0677 7.94191 36.9962 8.14666 37.0609 8.33306L37.5883 9.85902C37.7331 10.2772 37.2232 10.6249 36.8456 10.3661L35.4645 9.42344C35.2926 9.30755 35.0685 9.30755 34.8966 9.42344L33.5155 10.3661C33.1369 10.6249 32.6279 10.2772 32.7728 9.85902L33.3001 8.33306C33.3648 8.14569 33.2943 7.94094 33.1244 7.82601L31.7433 6.8834C31.3647 6.62456 31.5598 6.06247 32.0272 6.06247H33.7338C33.9434 6.06247 34.1288 5.93595 34.1925 5.74858L34.7199 4.22262C34.8647 3.80443 35.4935 3.80443 35.6383 4.22262H35.6412ZM43.6409 11.4951L44.1683 13.021C44.233 13.2084 44.4184 13.3349 44.627 13.3349H46.3336C46.801 13.3349 46.9961 13.897 46.6175 14.1559L45.2364 15.0985C45.0674 15.2144 44.9959 15.4191 45.0606 15.6055L45.588 17.1315C45.7328 17.5497 45.2229 17.8973 44.8453 17.6385L43.4642 16.6959C43.2923 16.58 43.0682 16.58 42.8963 16.6959L41.5152 17.6385C41.1366 17.8973 40.6276 17.5497 40.7725 17.1315L41.2998 15.6055C41.3645 15.4181 41.294 15.2134 41.1241 15.0985L39.743 14.1559C39.3644 13.897 39.5595 13.3349 40.0269 13.3349H41.7335C41.9431 13.3349 42.1285 13.2084 42.1922 13.021L42.7196 11.4951C42.8644 11.0769 43.4932 11.0769 43.638 11.4951H43.6409ZM45.8227 21.5896L46.35 23.1156C46.4147 23.3029 46.6001 23.4294 46.8087 23.4294H48.5153C48.9828 23.4294 49.1778 23.9915 48.7993 24.2504L47.4182 25.193C47.2491 25.3089 47.1777 25.5136 47.2424 25.7L47.7697 27.226C47.9146 27.6442 47.4046 27.9919 47.027 27.733L45.6459 26.7904C45.474 26.6745 45.2499 26.6745 45.078 26.7904L43.6969 27.733C43.3183 27.9919 42.8094 27.6442 42.9542 27.226L43.4816 25.7C43.5463 25.5127 43.4758 25.3079 43.3058 25.193L41.9247 24.2504C41.5461 23.9915 41.7412 23.4294 42.2086 23.4294H43.9152C44.1248 23.4294 44.3102 23.3029 44.374 23.1156L44.9013 21.5896C45.0462 21.1714 45.6749 21.1714 45.8198 21.5896H45.8227ZM43.497 32.9358L44.0243 34.4617C44.0891 34.6491 44.2745 34.7756 44.4831 34.7756H46.1897C46.6571 34.7756 46.8522 35.3377 46.4736 35.5966L45.0925 36.5392C44.9235 36.6551 44.852 36.8598 44.9167 37.0462L45.4441 38.5722C45.5889 38.9904 45.079 39.338 44.7014 39.0792L43.3203 38.1366C43.1484 38.0207 42.9243 38.0207 42.7524 38.1366L41.3713 39.0792C40.9927 39.338 40.4837 38.9904 40.6286 38.5722L41.1559 37.0462C41.2206 36.8589 41.1501 36.6541 40.9802 36.5392L39.5991 35.5966C39.2205 35.3377 39.4156 34.7756 39.883 34.7756H41.5896C41.7992 34.7756 41.9846 34.6491 42.0483 34.4617L42.5757 32.9358C42.7196 32.5176 43.3493 32.5176 43.4941 32.9358H43.497ZM35.9252 40.5859L36.4525 42.1118C36.5172 42.2992 36.7026 42.4257 36.9112 42.4257H38.6178C39.0853 42.4257 39.2804 42.9878 38.9018 43.2466L37.5207 44.1893C37.3517 44.3051 37.2802 44.5099 37.3449 44.6963L37.8722 46.2223C38.0171 46.6404 37.5071 46.9881 37.1295 46.7293L35.7484 45.7867C35.5765 45.6708 35.3525 45.6708 35.1805 45.7867L33.7994 46.7293C33.4209 46.9881 32.9119 46.6404 33.0568 46.2223L33.5841 44.6963C33.6488 44.5089 33.5783 44.3042 33.4083 44.1893L32.0272 43.2466C31.6486 42.9878 31.8437 42.4257 32.3112 42.4257H34.0177C34.2273 42.4257 34.4127 42.2992 34.4765 42.1118L35.0038 40.5859C35.1487 40.1677 35.7774 40.1677 35.9223 40.5859H35.9252ZM14.075 40.5859L13.5476 42.1118C13.4829 42.2992 13.2975 42.4257 13.0889 42.4257H11.3823C10.9149 42.4257 10.7198 42.9878 11.0984 43.2466L12.4795 44.1893C12.6485 44.3051 12.72 44.5099 12.6552 44.6963L12.1279 46.2223C11.9831 46.6404 12.492 46.9881 12.8706 46.7293L14.2517 45.7867C14.4236 45.6708 14.6477 45.6708 14.8196 45.7867L16.2007 46.7293C16.5793 46.9881 17.0883 46.6404 16.9434 46.2223L16.4161 44.6963C16.3514 44.5089 16.4219 44.3042 16.5918 44.1893L17.9729 43.2466C18.3515 42.9878 18.1564 42.4257 17.689 42.4257H15.9824C15.7728 42.4257 15.5874 42.2992 15.5237 42.1118L14.9963 40.5859C14.8515 40.1677 14.2227 40.1677 14.0779 40.5859H14.075ZM25.4588 42.7676L25.9861 44.2936C26.0509 44.4809 26.2363 44.6074 26.4449 44.6074H28.1515C28.6189 44.6074 28.814 45.1695 28.4354 45.4284L27.0543 46.371C26.8853 46.4869 26.8138 46.6916 26.8785 46.878L27.4059 48.404C27.5507 48.8222 27.0408 49.1699 26.6632 48.911L25.2821 47.9684C25.1102 47.8525 24.8861 47.8525 24.7142 47.9684L23.3331 48.911C22.9545 49.1699 22.4455 48.8222 22.5904 48.404L23.1177 46.878C23.1824 46.6907 23.1119 46.4859 22.942 46.371L21.5609 45.4284C21.1823 45.1695 21.3774 44.6074 21.8448 44.6074H23.5514C23.761 44.6074 23.9464 44.4809 24.0101 44.2936L24.5375 42.7676C24.6823 42.3494 25.3111 42.3494 25.4559 42.7676H25.4588ZM14.3589 4.22262L13.8316 5.74858C13.7669 5.93595 13.5814 6.06247 13.3728 6.06247H11.6663C11.1988 6.06247 11.0037 6.62456 11.3823 6.8834L12.7634 7.82601C12.9324 7.94191 13.0039 8.14666 12.9392 8.33306L12.4119 9.85902C12.267 10.2772 12.776 10.6249 13.1546 10.3661L14.5357 9.42344C14.7076 9.30755 14.9316 9.30755 15.1035 9.42344L16.4846 10.3661C16.8632 10.6249 17.3722 10.2772 17.2273 9.85902L16.7 8.33306C16.6353 8.14569 16.7058 7.94094 16.8758 7.82601L18.2569 6.8834C18.6355 6.62456 18.4404 6.06247 17.9729 6.06247H16.2664C16.0568 6.06247 15.8714 5.93595 15.8076 5.74858L15.2803 4.22262C15.1354 3.80443 14.5067 3.80443 14.3618 4.22262H14.3589ZM6.35921 11.4951L5.83189 13.021C5.76718 13.2084 5.58175 13.3349 5.37313 13.3349H3.66657C3.19913 13.3349 3.00403 13.897 3.38263 14.1559L4.76372 15.0985C4.93273 15.2144 5.0042 15.4191 4.93949 15.6055L4.41217 17.1315C4.2673 17.5497 4.77724 17.8973 5.15486 17.6385L6.53595 16.6959C6.70787 16.58 6.93193 16.58 7.10384 16.6959L8.48493 17.6385C8.86353 17.8973 9.3725 17.5497 9.22763 17.1315L8.70031 15.6055C8.6356 15.4181 8.7061 15.2134 8.87608 15.0985L10.2572 14.1559C10.6358 13.897 10.4407 13.3349 9.97323 13.3349H8.26666C8.05709 13.3349 7.87165 13.2084 7.80791 13.021L7.28058 11.4951C7.13572 11.0769 6.50698 11.0769 6.36211 11.4951H6.35921ZM4.17748 21.5896L3.65015 23.1156C3.58544 23.3029 3.40001 23.4294 3.1914 23.4294H1.48387C1.01642 23.4294 0.821332 23.9915 1.19992 24.2504L2.58101 25.193C2.75003 25.3089 2.8215 25.5136 2.75679 25.7L2.22946 27.226C2.0846 27.6442 2.59454 27.9919 2.97216 27.733L4.35325 26.7904C4.52517 26.6745 4.74923 26.6745 4.92114 26.7904L6.30223 27.733C6.68082 27.9919 7.1898 27.6442 7.04493 27.226L6.5176 25.7C6.4529 25.5127 6.5234 25.3079 6.69338 25.193L8.07447 24.2504C8.45306 23.9915 8.25797 23.4294 7.79053 23.4294H6.08396C5.87438 23.4294 5.68895 23.3029 5.62521 23.1156L5.09788 21.5896C4.95301 21.1714 4.32428 21.1714 4.17941 21.5896H4.17748ZM6.50312 32.9358L5.97579 34.4617C5.91108 34.6491 5.72565 34.7756 5.51704 34.7756H3.81047C3.34303 34.7756 3.14794 35.3377 3.52653 35.5966L4.90762 36.5392C5.07663 36.6551 5.1481 36.8598 5.0834 37.0462L4.55607 38.5722C4.4112 38.9904 4.92114 39.338 5.29877 39.0792L6.67986 38.1366C6.85177 38.0207 7.07584 38.0207 7.24775 38.1366L8.62884 39.0792C9.00743 39.338 9.51641 38.9904 9.37154 38.5722L8.84421 37.0462C8.7795 36.8589 8.85001 36.6541 9.01999 36.5392L10.4011 35.5966C10.7797 35.3377 10.5846 34.7756 10.1171 34.7756H8.41057C8.20099 34.7756 8.01556 34.6491 7.95181 34.4617L7.42449 32.9358C7.27962 32.5176 6.65088 32.5176 6.50602 32.9358H6.50312Z" stroke="#7D0F5C" stroke-width="1.4487" stroke-linecap="round" stroke-linejoin="round"/>
<defs>
<linearGradient id="paint0_linear_352_5846" x1="24.9292" y1="19.3959" x2="24.9292" y2="32.3147" gradientUnits="userSpaceOnUse">
<stop stop-color="#004A48"/>
<stop offset="1" stop-color="#195C5A"/>
</linearGradient>
</defs>
</svg>
