<svg width="45" height="48" viewBox="0 0 45 48" fill="none" xmlns="http://www.w3.org/2000/svg">
<g clip-path="url(#clip0_433_9448)">
<path d="M28.2334 15.3047V21.1894C28.2334 21.7078 27.8124 22.1287 27.294 22.1287H17.2421C16.7237 22.1287 16.3027 21.7078 16.3027 21.1894V15.3047" stroke="#014B49" stroke-width="2" stroke-linecap="round" stroke-linejoin="round"/>
<path d="M20.3125 22.0359V18.6412C20.3125 18.3815 20.5225 18.1715 20.7822 18.1715H23.7541C24.0138 18.1715 24.2238 18.3815 24.2238 18.6412V22.0359M13.5082 26.6737H4.83068C4.36943 26.6737 3.97568 27.0094 3.90255 27.465L0.949427 45.975C0.85849 46.5459 1.29911 47.0625 1.87661 47.0625H26.5554H42.6597C43.2372 47.0625 43.6779 46.5459 43.5869 45.975L40.6338 27.465C40.5607 27.0094 40.1679 26.6737 39.7057 26.6737H31.0282M31.3929 14.0522L30.1985 15.5025C29.8685 15.9028 29.276 15.96 28.8757 15.63L22.2682 10.1831L15.6607 15.63C15.2604 15.96 14.6679 15.9028 14.3379 15.5025L13.1435 14.0522C12.8135 13.6519 12.8707 13.0594 13.271 12.7303L21.671 5.80592C22.0179 5.51904 22.5194 5.51904 22.8654 5.80592L31.2654 12.7303C31.6657 13.0603 31.7229 13.6519 31.3929 14.0522Z" stroke="#7D0F5C" stroke-width="2" stroke-linecap="round" stroke-linejoin="round"/>
<path d="M2.67578 37.2131H14.0008C14.5736 37.2131 15.0133 37.7212 14.9298 38.2884L13.7073 46.6697M42.5252 40.3425H30.9911C30.4183 40.3425 29.9786 40.8506 30.0611 41.4178L30.827 46.6687M42.0883 36.585H30.1698C29.703 36.585 29.3073 36.2428 29.2398 35.7806L28.5977 31.3781H40.9033" stroke="#7D0F5C" stroke-width="2" stroke-linecap="round" stroke-linejoin="round"/>
<path d="M2.67578 37.2131H14.0008C14.5736 37.2131 15.0133 37.7213 14.9298 38.2885L13.7073 46.6697M3.32266 31.0978H8.62047C9.06484 31.0978 9.44828 30.7866 9.54016 30.3516L10.2583 26.9288" stroke="#7D0F5C" stroke-width="2" stroke-linecap="round" stroke-linejoin="round"/>
<path d="M24.4735 37.8403C23.4938 39.5372 21.0451 39.5372 20.0654 37.8403L10.5141 21.2972C5.29039 12.2484 11.821 0.9375 22.2695 0.9375C32.7179 0.9375 39.2485 12.2484 34.0248 21.2972L24.4735 37.8403Z" stroke="#014B49" stroke-width="2" stroke-linecap="round" stroke-linejoin="round"/>
</g>
<defs>
<clipPath id="clip0_433_9448">
<rect width="44.5369" height="48" fill="white"/>
</clipPath>
</defs>
</svg>
