<svg width="47" height="37" viewBox="0 0 47 37" fill="none" xmlns="http://www.w3.org/2000/svg">
<path d="M33.4387 10.9836H26.9937C26.7725 10.9836 26.5934 11.1626 26.5925 11.3839V15.7764" stroke="#7E115E" stroke-width="1.8" stroke-linecap="round" stroke-linejoin="round"/>
<path d="M7.87524 19.7476H14.9115C15.1795 19.7476 15.3099 19.8173 15.4191 19.9578L27.6878 35.8956H32.7017L20.714 20.325C20.4046 19.9247 20.4119 19.7476 21.0233 19.7476H46.3106L46.3033 15.7764H38.0103C37.6826 15.7764 37.4146 15.5084 37.4146 15.1816V4.14118M7.87524 15.7764L17.6287 15.7755H32.8431C33.1708 15.7755 33.4388 15.5084 33.4388 15.1807V4.14026" stroke="#004A48" stroke-width="1.8" stroke-linecap="round" stroke-linejoin="round"/>
<path d="M7.87061 4.14026H13.5859" stroke="#7E115E" stroke-width="1.8" stroke-linecap="round" stroke-linejoin="round"/>
<path d="M13.1003 31.8748V29.1797" stroke="#004A48" stroke-width="1.8" stroke-linecap="round" stroke-linejoin="round"/>
<path d="M13.1004 29.1796C14.2819 29.1796 15.2476 28.2176 15.2476 27.038C15.2476 25.8584 14.2819 24.8964 13.1004 24.8964C11.919 24.8964 10.9561 25.8584 10.9561 27.038C10.9561 28.2176 11.919 29.1796 13.1004 29.1796Z" stroke="#004A48" stroke-width="1.8" stroke-linecap="round" stroke-linejoin="round"/>
<path d="M15.9211 8.97702V6.28186" stroke="#004A48" stroke-width="1.8" stroke-linecap="round" stroke-linejoin="round"/>
<path d="M15.9212 6.28178C17.1027 6.28178 18.0656 5.31975 18.0656 4.14016C18.0656 2.96057 17.1027 1.99854 15.9212 1.99854C14.7398 1.99854 13.7769 2.96057 13.7769 4.14016C13.7769 5.31975 14.7398 6.28178 15.9212 6.28178Z" stroke="#004A48" stroke-width="1.8" stroke-linecap="round" stroke-linejoin="round"/>
<path d="M32.4319 29.3403V26.6451" stroke="#004A48" stroke-width="1.8" stroke-linecap="round" stroke-linejoin="round"/>
<path d="M32.4317 26.6452C33.6132 26.6452 34.5761 25.6831 34.5761 24.5036C34.5761 23.324 33.6132 22.3619 32.4317 22.3619C31.2503 22.3619 30.2874 23.324 30.2874 24.5036C30.2874 25.6831 31.2503 26.6452 32.4317 26.6452Z" stroke="#004A48" stroke-width="1.8" stroke-linecap="round" stroke-linejoin="round"/>
<path d="M0.688477 32.4081V4.59277C0.688477 2.67422 2.26004 1.10449 4.18043 1.10449H6.68098C7.33457 1.10449 7.87066 1.63967 7.87066 2.29234V27.7311C7.87066 28.3838 7.33365 28.9189 6.68098 28.9189H4.18043C2.26004 28.9189 0.688477 30.4887 0.688477 32.4072C0.688477 34.3258 2.26004 35.8955 4.18043 35.8955H16.1269H44.5885C46.038 35.8955 46.3033 35.0455 46.3033 34.1853V5.66863C46.3033 5.04717 46.1114 4.14021 44.7032 4.14021H18.0656" stroke="#7E115E" stroke-width="1.8" stroke-linecap="round" stroke-linejoin="round"/>
</svg>
