<svg width="49" height="49" viewBox="0 0 49 49" fill="none" xmlns="http://www.w3.org/2000/svg">
<mask id="mask0_261_13143" style="mask-type:luminance" maskUnits="userSpaceOnUse" x="0" y="0" width="49" height="49">
<path d="M48.5 0.937988H0.5V48.938H48.5V0.937988Z" fill="white"/>
</mask>
<g mask="url(#mask0_261_13143)">
<path d="M23.7528 21.7458C22.5828 26.5964 18.3284 30.5602 12.9575 30.5602C7.58655 30.5602 3.41467 26.6742 2.22592 21.7458C0.767173 15.7064 4.54436 10.2839 8.6028 6.2058C9.96311 4.83799 11.4078 3.5133 12.9575 2.36111C12.9669 2.35361 12.9781 2.34893 12.9894 2.34424C13.0006 2.34799 13.0119 2.35268 13.0212 2.36111C14.5719 3.5133 16.0156 4.83893 17.3759 6.2058C21.4344 10.2839 25.2115 15.7064 23.7528 21.7458Z" stroke="#7D0F5C" stroke-width="2" stroke-linecap="round" stroke-linejoin="round"/>
<path d="M12.9575 13.3176V47.5317" stroke="#7D0F5C" stroke-width="2" stroke-linecap="round" stroke-linejoin="round"/>
<path d="M12.9575 23.8963L8.06091 18.9998" stroke="#004A48" stroke-width="2" stroke-linecap="round" stroke-linejoin="round"/>
<path d="M12.9575 19.2088L17.854 14.3123" stroke="#004A48" stroke-width="2" stroke-linecap="round" stroke-linejoin="round"/>
<path d="M24.2197 41.2703H47.0937" stroke="#004A48" stroke-width="2" stroke-linecap="round" stroke-linejoin="round"/>
<path d="M24.2197 35.6453H47.0937V30.0203H24.2197V35.6453Z" stroke="#7D0F5C" stroke-width="2" stroke-linecap="round" stroke-linejoin="round"/>
<path d="M27.0322 35.6453V47.5318" stroke="#7D0F5C" stroke-width="2" stroke-linecap="round" stroke-linejoin="round"/>
<path d="M44.2812 35.6453V47.5318" stroke="#7D0F5C" stroke-width="2" stroke-linecap="round" stroke-linejoin="round"/>
<path d="M1.90625 47.5317H47.0938" stroke="#7D0F5C" stroke-width="2" stroke-linecap="round" stroke-linejoin="round"/>
</g>
</svg>
