<svg width="43" height="47" viewBox="0 0 43 47" fill="none" xmlns="http://www.w3.org/2000/svg">
<g clip-path="url(#clip0_893_26405)">
<path d="M40.9367 33.8601V27.9613C40.9367 22.9198 36.8499 18.8339 31.8094 18.8339H29.0692C27.2085 18.8339 25.6994 17.3257 25.6994 15.464V13.3077H16.3884V15.464C16.3884 17.3248 14.8802 18.8339 13.0185 18.8339H7.40332" stroke="#7E115E" stroke-width="2" stroke-linejoin="round"/>
<path d="M7.40332 27.562H14.3973C15.4796 30.1672 18.0472 31.9995 21.0443 31.9995C24.0415 31.9995 26.6091 30.1672 27.6913 27.562H29.4318C30.9657 27.562 32.2096 28.8059 32.2096 30.3398V33.8611" stroke="#7E115E" stroke-width="2" stroke-linejoin="round"/>
<path d="M40.475 42.2064C40.475 44.2966 38.7813 45.9903 36.6911 45.9903C34.6009 45.9903 32.9072 44.2966 32.9072 42.2064C32.9072 40.1162 36.6911 35.6292 36.6911 35.6292C36.6911 35.6292 40.475 40.1171 40.475 42.2064Z" stroke="#004A48" stroke-width="2" stroke-linecap="round" stroke-linejoin="round"/>
<path d="M23.8314 6.71772V13.2454M18.2566 13.2445V6.7168" stroke="#7E115E" stroke-width="2" stroke-linejoin="round"/>
<path d="M31.2771 33.8602H41.8677" stroke="#7E115E" stroke-width="2" stroke-linecap="round" stroke-linejoin="round"/>
<path d="M14.4185 1.00977H27.6685V6.7177H14.4185V1.00977ZM1.00977 15.062H7.40342V31.3349H1.00977V15.062Z" stroke="#004A48" stroke-width="2" stroke-linecap="round" stroke-linejoin="round"/>
</g>
<defs>
<clipPath id="clip0_893_26405">
<rect width="42.8774" height="47" fill="white"/>
</clipPath>
</defs>
</svg>
