<svg width="30" height="30" viewBox="0 0 30 30" fill="none" xmlns="http://www.w3.org/2000/svg">
<path fill-rule="evenodd" clip-rule="evenodd" d="M0.0576172 15C0.0576172 6.94643 6.58633 0.417725 14.6399 0.417725C22.6935 0.417725 29.2222 6.94643 29.2222 15C29.2222 23.0536 22.6935 29.5823 14.6399 29.5823C6.58633 29.5823 0.0576172 23.0536 0.0576172 15Z" fill="white"/>
<g clip-path="url(#clip0_439_23221)">
<path d="M14.5576 7.94947C16.8274 7.94947 17.0959 7.95824 17.9924 7.99907C18.8211 8.03686 19.2712 8.17519 19.5708 8.2916C19.9676 8.4458 20.2507 8.63002 20.5483 8.92728C20.8459 9.22487 21.0301 9.50796 21.184 9.90475C21.3004 10.2044 21.4387 10.6545 21.4765 11.4831C21.5173 12.3793 21.5261 12.6482 21.5261 14.918C21.5261 17.1877 21.5173 17.4563 21.4765 18.3528C21.4387 19.1815 21.3004 19.6316 21.184 19.9312C21.0298 20.328 20.8456 20.6111 20.5483 20.9087C20.2507 21.2063 19.9676 21.3905 19.5708 21.5443C19.2712 21.6607 18.8211 21.7991 17.9924 21.8369C17.0963 21.8777 16.8274 21.8865 14.5576 21.8865C12.2879 21.8865 12.019 21.8777 11.1228 21.8369C10.2941 21.7991 9.84402 21.6607 9.5444 21.5443C9.14761 21.3901 8.86452 21.2059 8.56693 20.9087C8.26933 20.6111 8.08511 20.328 7.93125 19.9312C7.81484 19.6316 7.6765 19.1815 7.63871 18.3528C7.59789 17.4566 7.58912 17.1877 7.58912 14.918C7.58912 12.6482 7.59789 12.3796 7.63871 11.4831C7.6765 10.6545 7.81484 10.2044 7.93125 9.90475C8.08544 9.50796 8.26967 9.22487 8.56693 8.92728C8.86418 8.62968 9.14761 8.44546 9.5444 8.2916C9.84402 8.17519 10.2941 8.03686 11.1228 7.99907C12.019 7.95824 12.2879 7.94947 14.5576 7.94947ZM14.5576 6.41797C12.2491 6.41797 11.9596 6.42775 11.053 6.46925C10.1484 6.51042 9.53023 6.65415 8.9897 6.86436C8.43061 7.08165 7.95655 7.37216 7.48418 7.84487C7.01147 8.31758 6.72096 8.7913 6.50367 9.35039C6.2938 9.89092 6.15007 10.5087 6.1089 11.4133C6.0674 12.3199 6.05762 12.6094 6.05762 14.918C6.05762 17.2265 6.0674 17.516 6.1089 18.4226C6.15007 19.3272 6.2938 19.9454 6.50401 20.4859C6.7213 21.045 7.01181 21.519 7.48452 21.9914C7.95723 22.4641 8.43095 22.7546 8.99004 22.9719C9.53057 23.1821 10.1487 23.3259 11.0533 23.367C11.9599 23.4085 12.2494 23.4183 14.558 23.4183C16.8665 23.4183 17.156 23.4085 18.0626 23.367C18.9672 23.3259 19.5853 23.1821 20.1259 22.9719C20.685 22.7546 21.159 22.4641 21.6314 21.9914C22.1041 21.5187 22.3946 21.045 22.6119 20.4859C22.8221 19.9454 22.9658 19.3272 23.007 18.4226C23.0485 17.516 23.0583 17.2265 23.0583 14.918C23.0583 12.6094 23.0485 12.3199 23.007 11.4133C22.9658 10.5087 22.8221 9.89058 22.6119 9.35005C22.3946 8.79096 22.1041 8.31691 21.6314 7.84453C21.1587 7.37182 20.685 7.08131 20.1259 6.86402C19.5853 6.65382 18.9672 6.51008 18.0626 6.46892C17.156 6.42742 16.8662 6.41797 14.5576 6.41797Z" fill="#004A48"/>
<path d="M14.5591 10.5525C12.1483 10.5525 10.1943 12.5068 10.1943 14.9172C10.1943 17.3277 12.1486 19.2819 14.5591 19.2819C16.9695 19.2819 18.9238 17.3277 18.9238 14.9172C18.9238 12.5068 16.9695 10.5525 14.5591 10.5525ZM14.5591 17.7508C12.9942 17.7508 11.7258 16.4821 11.7258 14.9175C11.7258 13.353 12.9945 12.0843 14.5591 12.0843C16.1236 12.0843 17.3923 13.353 17.3923 14.9175C17.3923 16.4821 16.1236 17.7508 14.5591 17.7508Z" fill="#004A48"/>
<path d="M19.0952 11.4011C19.6585 11.4011 20.1152 10.9444 20.1152 10.3811C20.1152 9.81775 19.6585 9.36108 19.0952 9.36108C18.5319 9.36108 18.0752 9.81775 18.0752 10.3811C18.0752 10.9444 18.5319 11.4011 19.0952 11.4011Z" fill="#004A48"/>
</g>
<defs>
<clipPath id="clip0_439_23221">
<rect width="17" height="17" fill="white" transform="translate(6.05762 6.41772)"/>
</clipPath>
</defs>
</svg>
