<svg width="31" height="30" viewBox="0 0 31 30" fill="none" xmlns="http://www.w3.org/2000/svg">
<path fill-rule="evenodd" clip-rule="evenodd" d="M0.893066 15C0.893066 6.94643 7.42177 0.417725 15.4753 0.417725C23.5289 0.417725 30.0576 6.94643 30.0576 15C30.0576 23.0536 23.5289 29.5823 15.4753 29.5823C7.42177 29.5823 0.893066 23.0536 0.893066 15Z" fill="white"/>
<path d="M11.8756 12.9478H9.03894C8.91305 12.9478 8.81104 13.0498 8.81104 13.1757V22.2887C8.81104 22.4146 8.91305 22.5166 9.03894 22.5166H11.8756C12.0015 22.5166 12.1035 22.4146 12.1035 22.2887V13.1757C12.1035 13.0498 12.0015 12.9478 11.8756 12.9478Z" fill="#004A48"/>
<path d="M10.4583 8.41772C9.42613 8.41772 8.58643 9.25652 8.58643 10.2875C8.58643 11.319 9.42613 12.1581 10.4583 12.1581C11.4896 12.1581 12.3286 11.319 12.3286 10.2875C12.3287 9.25652 11.4896 8.41772 10.4583 8.41772Z" fill="#004A48"/>
<path d="M19.0908 12.7214C17.9515 12.7214 17.1093 13.2112 16.5985 13.7677V13.1758C16.5985 13.05 16.4965 12.9479 16.3706 12.9479H13.6539C13.528 12.9479 13.426 13.05 13.426 13.1758V22.2889C13.426 22.4148 13.528 22.5168 13.6539 22.5168H16.4844C16.6103 22.5168 16.7123 22.4148 16.7123 22.2889V17.7801C16.7123 16.2607 17.125 15.6688 18.1842 15.6688C19.3377 15.6688 19.4293 16.6177 19.4293 17.8582V22.289C19.4293 22.4149 19.5313 22.5169 19.6572 22.5169H22.4888C22.6147 22.5169 22.7167 22.4149 22.7167 22.289V17.2903C22.7167 15.031 22.2859 12.7214 19.0908 12.7214Z" fill="#004A48"/>
</svg>
