<svg width="30" height="26" viewBox="0 0 30 26" fill="none" xmlns="http://www.w3.org/2000/svg">
<path d="M9.9603 23.7193C8.4531 23.9781 6.84835 23.7376 5.42274 22.9146C2.18563 21.0456 1.05592 16.8633 2.93105 13.6155L6.02533 8.25602C7.89427 5.01892 12.0873 3.89539 15.3244 5.76434C18.5615 7.63328 19.6912 11.8156 17.8161 15.0634L17.769 15.1451" stroke="#004A48" stroke-width="3" stroke-linecap="round" stroke-linejoin="round"/>
<path d="M20.031 2.2791C21.5382 2.02022 23.143 2.26072 24.5686 3.08379C27.8057 4.95274 28.9354 9.13507 27.0603 12.3829L23.966 17.7423C22.097 20.9794 17.904 22.103 14.6669 20.234C11.4298 18.3651 10.3001 14.1828 12.1752 10.9349L12.2223 10.8533" stroke="#004A48" stroke-width="3" stroke-linecap="round" stroke-linejoin="round"/>
</svg>
