<svg width="260" height="100" viewBox="0 0 260 100" fill="none" xmlns="http://www.w3.org/2000/svg">
<g clip-path="url(#clip0_66_10007)">
<mask id="mask0_66_10007" style="mask-type:luminance" maskUnits="userSpaceOnUse" x="0" y="0" width="260" height="100">
<path d="M259.524 0H0.207336V100H259.524V0Z" fill="white"/>
</mask>
<g mask="url(#mask0_66_10007)">
<path fill-rule="evenodd" clip-rule="evenodd" d="M38.9082 1.91698L38.0319 35.4694L38.3714 55.8988L38.8863 62.2303H36.0711L37.1446 32.8842L35.8739 8.31418L34.9866 2.00462C34.9647 0.92016 35.8191 0.0219235 36.9036 1.53214e-05C37.988 -0.0218929 38.8863 0.832527 38.9191 1.91698" fill="#8ABD24"/>
<path fill-rule="evenodd" clip-rule="evenodd" d="M80.2928 69.9529C80.2928 70.2487 79.997 70.5335 79.3288 70.7416C78.7373 70.9278 78.2005 70.9716 77.5323 70.9716C76.908 70.9716 76.4041 70.8512 76.0097 70.6211C75.5496 70.3473 75.3196 69.9639 75.3196 69.46C75.3196 68.8027 76.3822 68.1784 77.8829 68.1784C78.7154 68.1784 79.1426 68.3317 79.6903 68.6384C80.2051 68.9232 80.2818 69.5695 80.2818 69.9529M89.3299 55.5264C89.3737 56.1179 89.4285 56.6985 89.3628 57.2681C89.3299 57.4981 89.308 57.7281 89.2642 57.9582C88.8041 60.9596 87.8073 63.8843 85.8794 65.9547C84.8059 67.1158 83.4256 67.8607 82.0454 68.5946C81.6182 68.737 81.1691 68.8575 80.6652 68.9451L80.7638 69.2847L80.8514 69.5914C82.9656 68.737 84.9373 67.6526 86.4161 65.8561C86.4818 65.7684 86.5585 65.6918 86.6242 65.6041C88.5412 63.4352 89.5161 60.5214 90.261 57.5638L90.6554 55.7674C90.6554 55.373 90.3706 54.9896 89.9981 54.9239C89.6257 54.8472 89.319 55.1101 89.308 55.5045M80.6324 68.748L80.479 68.4851L80.3147 68.2003C80.7967 67.9155 81.2239 67.6306 81.6182 67.3349C82.856 66.0971 84.0719 64.8593 84.9154 63.3366C86.5476 60.4009 86.9529 56.9285 86.7447 53.6642C86.7119 53.0946 86.5476 52.5468 86.3942 51.9991C86.3285 51.6157 86.5914 51.2543 86.9638 51.1776C87.3472 51.1009 87.6977 51.3528 87.7635 51.7362L87.7087 53.6094C87.5115 56.7313 87.0843 59.908 85.5946 62.7232C85.5398 62.8327 85.485 62.9423 85.4412 63.0518C84.302 65.3412 82.5603 67.1377 80.6324 68.7589M83.108 50.7066C82.9875 50.3451 83.1737 49.9398 83.5352 49.8083C83.8967 49.6769 84.291 49.8631 84.4115 50.2355L84.6525 52.0868C84.9702 55.1977 85.0578 58.4073 84.0391 61.4197C84.0062 61.5402 83.9734 61.6497 83.9405 61.7702C83.1847 64.213 81.7606 66.2723 80.1175 68.1784L79.9313 67.9483L79.7232 67.6964C80.1613 67.3349 80.5338 66.9953 80.8624 66.6338C81.8811 65.2207 82.8779 63.7967 83.4695 62.1536C84.6087 58.9988 84.4444 55.5045 83.7105 52.3168C83.579 51.7582 83.338 51.2543 83.097 50.7285M79.0878 48.8225C78.9016 48.3952 79.0221 47.979 79.3398 47.8914C79.6574 47.8037 80.0627 48.0776 80.238 48.5048L80.7967 50.5861C81.6401 54.0695 82.2864 57.6186 81.8592 60.7843C81.8592 60.9048 81.8373 61.0363 81.8264 61.1568C81.5415 63.731 80.5557 65.7794 79.3507 67.6306L79.1316 67.3458C79.1316 67.3458 79.1316 67.3458 79.1316 67.3349L78.8907 67.0172C79.2412 66.6886 79.526 66.3709 79.7779 66.0204C80.4899 64.6183 81.1801 63.2052 81.443 61.4854C81.9578 58.1773 81.191 54.2885 79.9422 50.6627C79.7232 50.0274 79.3945 49.4249 79.0878 48.8225ZM78.2553 47.3108L77.9705 58.3087L78.08 65.0126L78.2444 67.0829H77.3242L77.6747 57.4652L77.2585 49.414L76.9737 47.3436C76.9737 46.9931 77.2475 46.6974 77.5981 46.6864C77.9486 46.6864 78.2444 46.9603 78.2553 47.3108ZM74.7062 70.1391C72.6359 69.1861 70.7189 68.0031 69.3168 66.1409C69.251 66.0533 69.1853 65.9656 69.1196 65.878C67.3122 63.6214 66.4687 60.6529 65.8662 57.6734L65.5595 55.8659C65.5595 55.4716 65.8772 55.1101 66.2496 55.0553C66.6221 55.0006 66.9178 55.2744 66.9069 55.6688C66.8411 56.2493 66.7535 56.8409 66.7973 57.4105C67.0383 60.6638 67.8927 63.9282 69.8535 66.2614C70.8723 67.4663 72.2086 68.2879 73.556 69.0875C73.9723 69.2519 74.4104 69.3833 74.9143 69.5038L74.7938 69.8324L74.6843 70.1391H74.7062ZM75.0239 69.1533L75.1772 68.8685L75.3525 68.5617C74.8814 68.3208 74.4761 68.0798 74.0928 67.8169C72.9207 66.6886 71.7595 65.5384 70.9708 64.0596C69.4592 61.2225 69.1853 57.7062 69.503 54.3324C69.5578 53.7408 69.744 53.1712 69.9083 52.5907C69.985 52.1963 69.744 51.8458 69.3715 51.8129C68.9991 51.7801 68.6376 52.0758 68.5609 52.4702V54.3871C68.6267 57.5638 68.9443 60.7843 70.3136 63.501C70.3574 63.6105 70.4122 63.7091 70.456 63.8186C71.4966 66.0423 73.1617 67.7073 75.0129 69.1642M72.3401 50.0493C72.4606 49.7097 72.2634 49.2606 71.891 49.0415C71.5185 48.8225 71.1242 48.9101 71.0037 49.2497L70.7737 51.0352C70.4889 54.0585 70.4341 57.2352 71.5076 60.4886C71.5404 60.6091 71.5843 60.7405 71.6171 60.861C72.4058 63.479 73.8956 65.8889 75.5825 68.2112L75.7687 68.025C75.7687 68.025 75.7687 68.025 75.7687 68.014L75.9769 67.8169C75.5277 67.3458 75.1443 66.9186 74.8048 66.4695C73.7532 64.8045 72.7235 63.1285 72.0991 61.3539C70.9051 57.9253 71.0366 54.4748 71.7376 51.4733C71.8581 50.9476 72.1101 50.5094 72.3401 50.0493ZM73.797 49.644L74.2242 51.4843L75.1005 57.9582L76.185 67.6306L76.8094 67.1377L75.5825 59.9737L74.9253 50.9585V48.8005C74.8814 48.5048 74.6076 48.461 74.3009 48.702C73.9942 48.932 73.7641 49.3592 73.797 49.655M80.479 79.2201C79.5917 79.0558 78.6497 78.9791 77.6528 78.9791C76.656 78.9791 75.3415 79.1325 73.6108 79.4611C73.6765 79.1434 73.7532 78.76 73.8299 78.3328C74.5309 78.2452 74.98 78.0809 75.1882 77.8289C75.3963 77.577 75.5825 77.1169 75.7249 76.4268C75.8673 75.7805 75.933 75.1561 75.933 74.5427C75.933 73.8854 75.6592 73.5568 75.1005 73.5568C74.9253 73.5568 74.761 73.5787 74.6076 73.6116C74.3666 73.0858 74.1585 71.4865 74.1585 71.2674C75.944 71.2565 77.6967 72.1766 79.2521 71.596C79.2631 71.607 79.274 71.6508 79.274 71.7056C79.274 71.8042 79.2521 71.9794 79.2083 72.2314C78.9235 73.7759 78.7921 75.0575 78.7921 76.0872C78.7921 76.7992 78.8797 77.2593 79.044 77.4784C79.1536 77.6098 79.2959 77.6756 79.4931 77.6756C79.7122 77.6756 79.9641 77.6208 80.238 77.5003C80.3147 77.4674 80.3585 77.5003 80.3804 77.6098C80.4242 77.9932 80.4571 78.519 80.468 79.2091" fill="#D3D92B"/>
<path fill-rule="evenodd" clip-rule="evenodd" d="M40.0145 40.4864C39.8721 41.6694 39.7078 42.8415 39.7845 43.9917C40.2774 50.5422 41.9972 57.1147 45.9407 61.8031C48.6354 65.0017 52.4146 66.82 55.9199 69.0109C52.2722 66.9843 48.3725 65.3084 45.4916 62.2412C41.1209 57.5857 39.2368 51.079 37.9004 44.5284L37.276 40.8917C37.2979 40.103 37.9223 39.3691 38.6672 39.2595C39.423 39.15 40.0145 39.6977 39.9926 40.4973" fill="#B9CE00"/>
<path fill-rule="evenodd" clip-rule="evenodd" d="M55.6898 69.6243C51.5273 67.7183 47.6714 65.3303 44.8453 61.584C42.7421 58.7907 41.1866 55.4497 40.4089 51.8129L39.6202 44.9557C40.387 49.1182 40.8032 53.456 42.523 57.1366C43.8485 59.9737 45.8092 62.4165 48.1753 64.2896C51.0015 66.5352 52.9842 67.5868 56.1499 68.3317L55.6898 69.6243Z" fill="#B9CE00"/>
<path fill-rule="evenodd" clip-rule="evenodd" d="M85.1345 40.1906C85.2112 41.3736 85.3317 42.5567 85.1893 43.6959C84.3787 50.2136 82.3521 56.6984 78.1786 61.1896C75.3415 64.2458 71.4747 65.8889 67.8599 67.9045C71.5952 66.0532 75.5715 64.5635 78.5949 61.6497C83.1846 57.2133 85.3755 50.8051 87.0186 44.3203L87.8073 40.7164C87.8292 39.9277 87.2377 39.1609 86.4928 39.0185C85.7479 38.8761 85.1235 39.4019 85.1126 40.1906" fill="#B9CE00"/>
<path fill-rule="evenodd" clip-rule="evenodd" d="M68.068 68.5398C72.3182 66.831 76.2836 64.6292 79.285 61.0253C81.5196 58.3306 83.2285 55.0772 84.1924 51.4843L85.3098 44.6818C84.3458 48.8005 83.7214 53.1055 81.8264 56.7094C80.3695 59.4808 78.2882 61.825 75.8454 63.5776C72.9097 65.6808 70.8832 66.6448 67.6846 67.2363L68.0789 68.5508L68.068 68.5398Z" fill="#B9CE00"/>
<path fill-rule="evenodd" clip-rule="evenodd" d="M46.0503 34.2863C45.7107 35.4475 45.3382 36.6086 45.2287 37.7916C44.5934 44.5722 45.1301 51.6705 48.1754 57.3666C50.2457 61.2553 53.6195 64.0048 56.6538 67.061C53.4552 64.1363 49.939 61.4963 47.6605 57.7062C44.199 51.9334 43.476 44.868 43.3008 37.8902L43.3227 34.0453C43.476 33.2457 44.21 32.6432 44.9548 32.7089C45.6997 32.7747 46.1927 33.4757 46.0393 34.2754" fill="#B9CE00"/>
<path fill-rule="evenodd" clip-rule="evenodd" d="M56.3252 67.6416C52.6008 64.7059 49.2489 61.3649 47.1457 56.8847C45.5792 53.5437 44.6372 49.7754 44.4948 45.8977L44.9001 38.7447C44.9329 43.1592 44.5934 47.6613 45.645 51.8239C46.4446 55.0225 47.9453 57.9801 49.9171 60.4338C52.2831 63.3804 54.0248 64.925 56.9934 66.4366L56.3252 67.6416Z" fill="#B9CE00"/>
<path fill-rule="evenodd" clip-rule="evenodd" d="M50.9248 29.1817C50.4538 30.1019 49.9499 31.0001 49.7089 32.0517C48.2958 38.0874 48.0329 45.0214 50.4319 51.9334C52.075 56.6437 55.1312 60.9596 57.8369 65.3741C54.9559 60.9815 51.7354 56.7094 49.8842 51.9882C47.069 44.8023 47.1566 37.8026 47.77 31.1644L48.2301 27.5605C48.4711 26.8814 49.2817 26.7061 50.0266 27.1443C50.7715 27.5934 51.1768 28.5026 50.9358 29.1708" fill="#B9CE00"/>
<path fill-rule="evenodd" clip-rule="evenodd" d="M57.4425 65.7356C54.0358 61.0801 51.0563 56.2165 49.457 50.9475C48.263 47.0041 47.7481 42.9949 48.0439 39.2814L49.2598 32.7747C48.7888 36.9372 47.9344 40.9903 48.5149 45.4267C48.9531 48.8444 50.1142 52.3825 51.8231 55.7016C53.8715 59.6889 55.4379 62.0331 58.2422 64.9578L57.4316 65.7465L57.4425 65.7356Z" fill="#B9CE00"/>
<path fill-rule="evenodd" clip-rule="evenodd" d="M64.5189 26.7061C65.1432 27.933 65.8005 29.1489 66.2387 30.4196C68.7471 37.7369 70.3026 45.5581 69.262 52.2073C68.55 56.7423 66.3811 60.2257 64.5846 63.9829C66.5563 60.3352 68.8896 56.9723 69.7987 52.503C71.1899 45.7224 69.7987 37.9012 67.9475 30.2553L66.8302 26.0598C66.4687 25.2054 65.6471 24.6577 65.0118 24.833C64.3655 25.0082 64.1464 25.8408 64.5079 26.6952" fill="#B9CE00"/>
<path fill-rule="evenodd" clip-rule="evenodd" d="M65.0446 64.5635C67.4765 60.8391 69.4592 56.7204 70.0288 51.5391C70.456 47.6613 70.204 43.4221 69.2072 39.1719L66.7973 31.4164C68.0351 36.2471 69.6235 41.1217 69.8973 45.7991C70.1054 49.403 69.6454 52.8426 68.6047 55.8112C67.3669 59.3712 66.2825 61.2992 64.1026 63.3585L65.0337 64.5854L65.0446 64.5635Z" fill="#B9CE00"/>
<path fill-rule="evenodd" clip-rule="evenodd" d="M79.2302 33.0814C79.526 34.1878 79.8656 35.2832 79.9313 36.4334C80.3366 43.0058 79.5369 50.0055 76.2507 55.9098C74.0161 59.9299 70.4998 62.9861 67.3012 66.2942C70.6532 63.0847 74.3009 60.138 76.7436 56.1836C80.4571 50.1698 81.443 43.1701 81.8592 36.3238L81.9797 32.5556C81.8483 31.7888 81.1362 31.2849 80.3695 31.4273C79.6027 31.5697 79.0878 32.3146 79.2193 33.0814" fill="#B9CE00"/>
<path fill-rule="evenodd" clip-rule="evenodd" d="M67.6298 66.8091C71.5076 63.5448 75.0239 59.919 77.3133 55.3182C79.0221 51.8786 80.1175 48.0995 80.3914 44.2765L80.238 37.3097C80.0408 41.6366 80.238 46.0072 79.0221 50.1917C78.091 53.4122 76.4808 56.4575 74.3776 59.0755C71.8691 62.2193 70.0507 63.9062 66.9945 65.7027L67.6298 66.8091Z" fill="#B9CE00"/>
<path fill-rule="evenodd" clip-rule="evenodd" d="M72.5921 30.4962C73.0631 31.5369 73.567 32.5666 73.8299 33.6839C75.2977 40.103 75.6263 47.1465 73.3369 53.4999C71.7705 57.8267 68.8019 61.4087 66.1839 65.1988C68.9772 61.4963 72.0991 57.991 73.8737 53.697C76.5684 47.1684 76.4041 40.103 75.7249 33.2786L75.232 29.5432C74.98 28.8093 74.1913 28.4259 73.4574 28.6888C72.7235 28.9517 72.3401 29.7623 72.5921 30.5072" fill="#B9CE00"/>
<path fill-rule="evenodd" clip-rule="evenodd" d="M66.5782 65.6589C69.8864 61.814 72.7673 57.6624 74.279 52.755C75.4182 49.0853 75.8783 45.1747 75.5387 41.3627L74.268 34.5164C74.7719 38.8214 75.6592 43.1044 75.1444 47.4203C74.75 50.7504 73.6436 54.0147 72.0005 56.9394C70.0288 60.4447 68.5062 62.4055 65.7786 64.6621L66.5892 65.6589H66.5782Z" fill="#B9CE00"/>
<path fill-rule="evenodd" clip-rule="evenodd" d="M62.8319 23.6499L62.2075 47.3546L62.1528 53.4341L60.8273 27.8782L60.2358 23.7156C60.2139 23.0036 60.7835 22.4012 61.4955 22.3902C62.2076 22.3683 62.81 22.9379 62.821 23.6499" fill="#B9CE00"/>
<path fill-rule="evenodd" clip-rule="evenodd" d="M60.9588 63.4462L62.0432 33.6948L62.4814 59.2727L62.821 63.4462H60.9588Z" fill="#B9CE00"/>
<path fill-rule="evenodd" clip-rule="evenodd" d="M53.8605 28.3383L54.7259 32.0517L57.9902 56.1946L56.1499 30.9782V26.6294C56.0733 26.0489 55.5146 25.9503 54.8793 26.4213C54.2549 26.8923 53.7948 27.7468 53.8605 28.3273" fill="#B9CE00"/>
<path fill-rule="evenodd" clip-rule="evenodd" d="M59.9291 63.5667L56.3581 42.6005L55.5913 37.1016L58.6694 64.5525L59.9291 63.5667Z" fill="#B9CE00"/>
<path fill-rule="evenodd" clip-rule="evenodd" d="M45.1301 70.9935C45.1301 71.8808 44.2319 72.7681 42.1834 73.4034C40.376 73.9621 38.7219 74.1045 36.7064 74.1045C34.8223 74.1045 33.2668 73.754 32.0618 73.0529C30.6707 72.2314 29.9696 71.0483 29.9696 69.5038C29.9696 67.5101 33.2011 65.5822 37.8018 65.5822C40.3541 65.5822 41.6576 66.0532 43.3227 66.9953C44.8781 67.8716 45.1301 69.8214 45.1301 70.9935ZM45.6887 99.277C42.9831 98.7841 40.1131 98.5431 37.0679 98.5431C34.0226 98.5431 30.0244 99.0251 24.7445 100C24.9526 99.0141 25.1717 97.864 25.4237 96.5714C27.5597 96.3194 28.9399 95.8046 29.5862 95.0487C30.2325 94.282 30.7693 92.8689 31.2184 90.7876C31.6456 88.8159 31.8537 86.8989 31.8537 85.0257C31.8537 83.0321 31.0103 82.0353 29.3233 82.0353C28.7866 82.0353 28.2936 82.101 27.8117 82.2105C27.0777 80.6003 26.4533 75.7476 26.4533 75.0575C31.8975 75.0137 37.2541 77.8289 41.9972 76.0762C42.041 76.1201 42.0739 76.2296 42.0739 76.4158C42.0739 76.7116 42.0082 77.2374 41.8767 78.0151C41.0223 82.7254 40.606 86.636 40.606 89.7689C40.606 91.9378 40.8689 93.3509 41.3838 94.0191C41.7015 94.4244 42.1506 94.6434 42.7421 94.6434C43.4103 94.6434 44.1661 94.4572 45.0205 94.1067C45.2615 94.0081 45.4039 94.1286 45.4478 94.4353C45.5902 95.5965 45.6887 97.2177 45.7326 99.2989" fill="#7D0F5C"/>
<path fill-rule="evenodd" clip-rule="evenodd" d="M46.8499 69.931C53.2909 67.3458 59.3047 64.0048 63.8397 58.5497C67.2355 54.4638 69.8207 49.5345 71.2666 44.0903L72.9645 33.7825C71.4966 40.0263 70.5546 46.555 67.6846 51.9991C65.4719 56.1946 62.3281 59.7547 58.6146 62.4165C54.1673 65.6041 51.1001 67.061 46.2474 67.9483L46.8499 69.942V69.931Z" fill="#7D0F5C"/>
<path fill-rule="evenodd" clip-rule="evenodd" d="M195.409 44.4079H196.603L198.488 42.1404H196.516L195.409 44.4079Z" fill="#7D0F5C"/>
<path fill-rule="evenodd" clip-rule="evenodd" d="M25.3032 9.02618L26.6177 14.6456L29.2795 34.3849L32.5877 63.8953L34.5046 62.4055L30.7802 40.5411L28.7647 13.0354L28.7428 6.44101C28.6442 5.55373 27.8007 5.41133 26.8477 6.12334C25.8947 6.83536 25.2046 8.12794 25.3032 9.01523" fill="#CAD506"/>
<path fill-rule="evenodd" clip-rule="evenodd" d="M20.8668 10.2969C20.1548 11.688 19.388 13.0573 19.0155 14.6457C16.8685 23.7923 16.4742 34.2973 20.1109 44.7694C22.006 50.2136 25.1608 55.3073 28.3703 60.39C29.4329 61.7373 30.594 63.0737 31.9523 64.4978L31.317 65.1112C31.317 65.1112 31.3279 65.1331 31.3389 65.1441C31.3389 65.1441 31.3279 65.1331 31.317 65.1222L30.7364 65.6918C25.577 58.6373 21.0639 51.2762 18.6431 43.2797C18.5335 42.8963 18.413 42.5238 18.3145 42.1404C15.0501 32.2051 15.2254 22.5217 16.0908 13.2983L16.7809 7.84316C17.1533 6.82442 18.3692 6.53962 19.4975 7.21877C20.6258 7.89793 21.2392 9.26719 20.8668 10.2859" fill="#FEC700"/>
<path fill-rule="evenodd" clip-rule="evenodd" d="M29.0385 68.5727C23.3972 64.1363 18.3254 59.0645 15.1378 52.2839C14.9844 51.9663 14.842 51.6376 14.6996 51.32C10.5042 43.0168 9.57308 33.2019 9.32114 23.5185L9.354 17.6799C9.58404 16.464 10.7014 15.5658 11.8296 15.6644C12.9689 15.763 13.7028 16.8255 13.4618 18.0414C12.9469 19.805 12.3883 21.5577 12.224 23.3542C11.2491 33.6291 12.0816 44.3751 16.6932 53.0179C19.0922 57.5091 22.6304 61.0034 26.2124 64.4649C27.3625 65.2755 28.6113 66.0094 30.0463 66.7434L29.5205 67.6854C29.5205 67.6854 29.5315 67.6964 29.5424 67.7073C29.5424 67.7073 29.5315 67.7073 29.5205 67.7073L29.0385 68.5727Z" fill="#E79000"/>
<path fill-rule="evenodd" clip-rule="evenodd" d="M28.0855 71.5741C21.776 68.6822 15.9265 65.0564 11.6653 59.3822C11.4682 59.1193 11.26 58.8454 11.0738 58.5716C5.55294 51.6924 3.00063 42.6443 1.14939 33.5524L0.207336 28.0425C0.240199 26.8376 1.18225 25.7312 2.32148 25.5669C3.4607 25.4026 4.35894 26.2351 4.32608 27.44C4.11795 29.2256 3.85505 31.0111 3.9865 32.7418C4.73138 42.6662 7.33846 52.6235 13.3194 59.7327C16.4304 63.4243 20.5053 65.9108 24.624 68.3536C25.8947 68.8575 27.2421 69.2628 28.7866 69.6243L28.4251 70.6321C28.4251 70.6321 28.4361 70.6321 28.447 70.643C28.447 70.643 28.4361 70.643 28.4251 70.643L28.0965 71.5741H28.0855Z" fill="#7D0F5C"/>
<path fill-rule="evenodd" clip-rule="evenodd" d="M41.4605 6.53961C42.4135 8.39085 43.4103 10.2311 44.0676 12.17C47.8577 23.2556 50.2128 35.1079 48.6464 45.1857C47.8248 50.4218 45.7216 54.7377 43.5527 59.0207C42.775 60.0723 41.8877 61.0472 40.8361 62.055L41.57 63.008C41.57 63.008 41.57 63.019 41.5591 63.0299C41.5591 63.0299 41.5591 63.0299 41.57 63.0299L42.2382 63.9063C45.9297 58.2649 48.9312 52.021 49.7856 44.167C49.8294 43.7945 49.8623 43.4221 49.8951 43.0387C51.1987 33.3881 49.216 22.5436 46.6527 11.929L44.9548 5.5647C44.4071 4.27211 43.1693 3.4396 42.1944 3.71345C41.2304 3.97635 40.8909 5.24703 41.4386 6.53961" fill="#B3CE52"/>
<path fill-rule="evenodd" clip-rule="evenodd" d="M53.7072 12.3015C54.4301 13.8789 55.1969 15.4343 55.5803 17.1322C57.793 26.8595 58.3079 37.5178 54.8354 47.1574C53.028 52.1634 49.9828 56.5122 46.8718 60.8281C45.8421 61.9236 44.7029 62.9751 43.3884 64.0706L44.0128 64.8483C44.0128 64.8483 44.0018 64.8702 43.9909 64.8702C43.9909 64.8702 44.0018 64.8702 44.0128 64.8593L44.5934 65.5713C49.5994 59.7437 53.9701 53.456 56.2704 46.0182C56.38 45.6677 56.4786 45.3171 56.5881 44.9557C59.6881 35.7652 59.4142 25.9831 58.4612 16.5078L57.7164 10.8446C57.333 9.72726 56.139 9.14669 55.0326 9.55199C53.9262 9.95729 53.3347 11.1842 53.7181 12.3015" fill="#EC6408"/>
<path fill-rule="evenodd" clip-rule="evenodd" d="M46.1817 67.313C52.0641 62.3727 57.3878 56.8737 60.8602 49.896C61.0245 49.5673 61.1888 49.2387 61.3422 48.8991C65.8881 40.333 67.1917 30.6277 67.7832 21.1195L67.9585 15.4124C67.7613 14.2513 66.6768 13.4845 65.5157 13.7036C64.3546 13.9227 63.5768 15.04 63.774 16.2121C64.2341 17.8881 64.738 19.5421 64.8475 21.2838C65.4719 31.2411 64.245 41.8447 59.2719 50.7942C56.6867 55.4497 52.9732 59.2398 49.205 63.008C48.011 63.9282 46.7185 64.7716 45.2397 65.6479L45.7326 66.5133C45.7326 66.5133 45.7216 66.5243 45.7107 66.5352C45.7107 66.5352 45.7216 66.5352 45.7326 66.5352L46.1927 67.3349L46.1817 67.313Z" fill="#C80935"/>
<path fill-rule="evenodd" clip-rule="evenodd" d="M46.5432 68.9342C46.5432 68.9342 46.587 68.9342 46.6527 68.9123L46.5432 68.9342ZM46.7513 68.8904C47.9234 68.6165 54.1234 67.0063 60.2139 61.6935L46.7513 68.8904ZM72.6906 26.9909C72.7235 25.786 73.6546 24.9973 74.7829 25.2164C75.9111 25.4354 76.7984 26.5856 76.7765 27.7906L75.5716 33.2567C73.085 43.0715 69.7549 52.7878 62.7991 59.5027C61.9775 60.3024 61.1121 61.0253 60.2029 61.6935C56.139 64.7059 51.3301 66.6338 46.7404 68.8904C46.7404 68.8904 46.7184 68.8904 46.7184 68.9013C46.6965 68.9013 46.6746 68.9232 46.6527 68.9342C46.6089 68.9561 46.576 68.978 46.5322 68.9999C46.5322 68.9999 46.587 68.9561 46.6199 68.9342C46.6308 68.9342 46.6527 68.9232 46.6637 68.9123C46.6965 68.8904 46.7294 68.8685 46.7623 68.8575C52.1626 65.867 57.9135 63.3805 62.1637 58.8126C68.0351 52.4921 71.1023 43.5645 72.4934 34.4069C72.603 33.7058 72.6906 33.0047 72.7783 32.3037C72.9973 30.5729 72.8221 28.7764 72.6906 26.9909Z" fill="#7D0F5C"/>
<path fill-rule="evenodd" clip-rule="evenodd" d="M66.9397 69.2409C66.9397 69.8324 66.3482 70.413 65.0009 70.8292C63.8069 71.1907 62.7224 71.3003 61.386 71.3003C60.1372 71.3003 59.1185 71.0702 58.3189 70.5992C57.3987 70.0515 56.9386 69.2738 56.9386 68.255C56.9386 66.9405 59.0747 65.6699 62.109 65.6699C63.7959 65.6699 64.6613 65.9875 65.7567 66.601C66.7864 67.1815 66.9507 68.4632 66.9507 69.2409M67.3122 87.9067C65.5267 87.589 63.6316 87.4247 61.627 87.4247C59.6224 87.4247 56.9825 87.7424 53.4881 88.3887C53.6195 87.7314 53.7729 86.9865 53.9372 86.1212C55.3393 85.9569 56.2595 85.6173 56.6867 85.1134C57.1139 84.6095 57.4644 83.6674 57.7602 82.2982C58.0341 81.0056 58.1765 79.7349 58.1765 78.4971C58.1765 77.1826 57.6178 76.5254 56.5005 76.5254C56.1499 76.5254 55.8213 76.5692 55.5037 76.6459C55.0217 75.5833 54.6054 72.3738 54.6054 71.9247C58.1984 71.9027 61.7365 73.754 64.8585 72.5928C64.8913 72.6257 64.9023 72.7024 64.9023 72.8229C64.9023 73.0201 64.8585 73.3706 64.7708 73.8745C64.2122 76.9854 63.9274 79.5706 63.9274 81.63C63.9274 83.054 64.1026 83.9961 64.4422 84.4342C64.6503 84.7081 64.9461 84.8395 65.3404 84.8395C65.7786 84.8395 66.2825 84.719 66.8412 84.489C66.9945 84.4233 67.0931 84.5 67.115 84.7081C67.2136 85.4749 67.2684 86.5484 67.3012 87.9176" fill="#B9CE00"/>
<path fill-rule="evenodd" clip-rule="evenodd" d="M94.8508 40.9136H96.5815V46.0839L101.971 40.9136H104.403L98.2685 46.8178L104.447 53.6313H102.234L96.5925 47.4313V53.6313H94.8617V40.9136H94.8508ZM107.897 45.3938V47.0917C108.291 46.4125 108.664 45.9196 109.036 45.6238C109.409 45.3171 109.88 45.1747 110.482 45.1747C110.647 45.1747 110.888 45.2076 111.205 45.2952L110.679 47.0369C110.34 46.9712 110.132 46.9383 110.022 46.9383C109.442 46.9383 108.949 47.1355 108.554 47.5518C108.16 47.9571 107.963 48.4719 107.963 49.0853V53.6532H106.221V45.4157H107.919L107.897 45.3938ZM119.519 45.3938H121.261V53.6313H119.519V51.9991C118.676 53.2479 117.624 53.8613 116.376 53.8613C115.291 53.8613 114.36 53.4341 113.593 52.5797C112.826 51.7253 112.443 50.6956 112.443 49.4797C112.443 48.3295 112.826 47.3217 113.604 46.4563C114.382 45.591 115.291 45.1638 116.332 45.1638C116.978 45.1638 117.592 45.339 118.172 45.6896C118.753 46.0401 119.202 46.5002 119.519 47.0698V45.3938ZM119.739 49.5345C119.739 48.7786 119.465 48.1323 118.928 47.6065C118.391 47.0698 117.745 46.8069 116.989 46.8069C116.233 46.8069 115.609 47.0698 115.072 47.6065C114.524 48.1433 114.25 48.7677 114.25 49.4797C114.25 50.2574 114.513 50.9256 115.05 51.4624C115.587 52.0101 116.233 52.2839 116.989 52.2839C117.745 52.2839 118.391 52.021 118.928 51.4733C119.465 50.9366 119.739 50.2903 119.739 49.5454M123.561 42.71C123.561 42.3376 123.693 42.0309 123.956 41.757C124.219 41.4941 124.536 41.3517 124.909 41.3517C125.281 41.3517 125.588 41.4832 125.862 41.757C126.125 42.0199 126.256 42.3376 126.256 42.71C126.256 43.0825 126.125 43.4002 125.862 43.6631C125.599 43.9369 125.281 44.0684 124.909 44.0684C124.536 44.0684 124.23 43.9369 123.956 43.6631C123.693 43.4002 123.561 43.0715 123.561 42.71ZM124.054 45.3938H125.785V57.4981H124.054V45.3938ZM127.877 49.4797C127.877 48.3514 128.316 47.3546 129.214 46.4783C130.101 45.6019 131.12 45.1638 132.27 45.1638C133.42 45.1638 134.494 45.591 135.37 46.4563C136.257 47.3217 136.695 48.3185 136.695 49.4797C136.695 50.6408 136.257 51.6595 135.392 52.5359C134.527 53.4232 133.519 53.8613 132.38 53.8613C131.164 53.8613 130.101 53.4232 129.214 52.5578C128.316 51.6815 127.866 50.6627 127.866 49.4797M135.03 49.4797C135.03 48.7786 134.768 48.1761 134.231 47.6613C133.694 47.1465 133.07 46.8836 132.336 46.8836C131.602 46.8836 130.934 47.1465 130.397 47.6723C129.86 48.1981 129.586 48.8115 129.586 49.5454C129.586 50.2793 129.86 50.838 130.408 51.3638C130.956 51.8786 131.602 52.1415 132.336 52.1415C133.07 52.1415 133.683 51.8677 134.22 51.3419C134.757 50.8051 135.03 50.1917 135.03 49.4797ZM143.586 45.0433L145.897 50.5094L148.329 45.3938H149.851L145.798 53.8613L143.586 48.6143L141.384 53.7846L137.353 45.3828H138.875L141.307 50.4327L143.597 45.0323L143.586 45.0433ZM157.716 45.3938H159.458V53.6313H157.716V51.9991C156.873 53.2479 155.821 53.8613 154.573 53.8613C153.488 53.8613 152.557 53.4341 151.79 52.5797C151.023 51.7253 150.64 50.6956 150.64 49.4797C150.64 48.3295 151.023 47.3217 151.801 46.4563C152.579 45.591 153.488 45.1638 154.529 45.1638C155.175 45.1638 155.788 45.339 156.369 45.6896C156.95 46.0401 157.399 46.5002 157.716 47.0698V45.3938ZM157.946 49.5345C157.946 48.7786 157.673 48.1323 157.136 47.6065C156.599 47.0698 155.953 46.8069 155.197 46.8069C154.441 46.8069 153.828 47.0698 153.28 47.6065C152.732 48.1433 152.458 48.7677 152.458 49.4797C152.458 50.2574 152.721 50.9256 153.258 51.4624C153.795 52.0101 154.441 52.2839 155.197 52.2839C155.953 52.2839 156.599 52.021 157.136 51.4733C157.673 50.9366 157.946 50.2903 157.946 49.5454M175.637 42.3157L174.224 43.444C173.852 43.0606 173.512 42.7648 173.216 42.5786C172.91 42.3924 172.472 42.2938 171.902 42.2938C171.278 42.2938 170.774 42.4362 170.379 42.721C169.985 43.0058 169.799 43.3673 169.799 43.8164C169.799 44.1998 169.963 44.5394 170.303 44.8351C170.642 45.1309 171.223 45.4595 172.044 45.8101C172.866 46.1606 173.501 46.4892 173.95 46.785C174.41 47.0917 174.783 47.4203 175.079 47.7927C175.374 48.1542 175.593 48.5486 175.736 48.9539C175.878 49.3592 175.955 49.7864 175.955 50.2465C175.955 51.2981 175.572 52.2073 174.805 52.9521C174.038 53.697 173.107 54.0694 172.011 54.0694C170.916 54.0694 170.007 53.7846 169.185 53.1931C168.375 52.6126 167.739 51.7362 167.301 50.5751L169.032 50.0822C169.667 51.5171 170.631 52.2292 171.935 52.2292C172.57 52.2292 173.096 52.0429 173.512 51.6595C173.928 51.2762 174.137 50.8051 174.137 50.2246C174.137 49.874 174.027 49.5235 173.808 49.1839C173.589 48.8334 173.315 48.5486 172.986 48.3185C172.658 48.0885 172.143 47.8366 171.42 47.5408C170.708 47.245 170.16 46.9821 169.777 46.7412C169.393 46.5002 169.065 46.2044 168.78 45.8758C168.506 45.5362 168.298 45.2076 168.167 44.879C168.035 44.5394 167.969 44.1889 167.969 43.8055C167.969 42.8963 168.331 42.1185 169.065 41.4722C169.799 40.8369 170.686 40.5083 171.727 40.5083C172.417 40.5083 173.118 40.6616 173.83 40.9574C174.542 41.2531 175.133 41.7132 175.604 42.3267M177.609 42.6881C177.609 42.3267 177.74 42.0199 178.003 41.757C178.266 41.4941 178.584 41.3627 178.956 41.3627C179.329 41.3627 179.625 41.4941 179.887 41.757C180.15 42.0199 180.282 42.3376 180.282 42.6881C180.282 43.0387 180.15 43.3673 179.887 43.6302C179.625 43.8931 179.307 44.0245 178.956 44.0245C178.606 44.0245 178.266 43.8931 178.003 43.6302C177.74 43.3673 177.609 43.0606 177.609 42.6881ZM178.102 45.3938H179.822V53.6313H178.102V45.3938ZM190.633 49.8412H183.601C183.754 50.6846 184.105 51.2981 184.653 51.6924C185.2 52.0758 185.781 52.273 186.427 52.273C187.413 52.273 188.234 51.8677 188.903 51.0461L190.173 52.0101C189.22 53.2479 187.95 53.8613 186.35 53.8613C185.124 53.8613 184.105 53.4451 183.272 52.6016C182.451 51.7691 182.034 50.7175 182.034 49.4797C182.034 48.3185 182.451 47.3108 183.283 46.4454C184.116 45.591 185.134 45.1638 186.339 45.1638C187.544 45.1638 188.541 45.6019 189.385 46.4673C190.228 47.3327 190.644 48.4609 190.633 49.8521M183.787 48.4609H188.826C188.267 47.3327 187.435 46.7631 186.35 46.7631C185.156 46.7631 184.313 47.3327 183.798 48.4609M198.805 51.1118V53.0945C197.918 53.5984 197.063 53.8504 196.231 53.8504C195.092 53.8504 194.095 53.4232 193.241 52.5687C192.386 51.7143 191.959 50.7175 191.959 49.6002C191.959 48.3185 192.386 47.267 193.241 46.4235C194.095 45.58 195.157 45.1638 196.439 45.1638C197.206 45.1638 197.995 45.3609 198.805 45.7662V47.7051C197.929 47.1465 197.107 46.8726 196.33 46.8726C195.607 46.8726 194.982 47.1245 194.445 47.6284C193.909 48.1323 193.635 48.7348 193.635 49.403C193.635 50.1698 193.887 50.8161 194.391 51.3309C194.895 51.8567 195.519 52.1196 196.253 52.1196C196.987 52.1196 197.852 51.78 198.805 51.1228M93.7992 67.9373C93.7992 66.0971 94.5003 64.5306 95.8805 63.2161C97.2607 61.9016 98.9257 61.2444 100.876 61.2444C102.825 61.2444 104.403 61.9016 105.772 63.2271C107.141 64.5525 107.831 66.119 107.831 67.9373C107.831 69.8653 107.152 71.4865 105.794 72.8229C104.436 74.1483 102.782 74.8165 100.81 74.8165C98.8381 74.8165 97.2169 74.1483 95.8476 72.8119C94.4893 71.4755 93.7992 69.8543 93.7992 67.9483M105.98 68.014C105.98 66.6119 105.476 65.4288 104.458 64.4649C103.45 63.5009 102.201 63.0189 100.722 63.0189C99.2434 63.0189 98.1151 63.5119 97.1183 64.4868C96.1215 65.4727 95.6176 66.6338 95.6176 68.014C95.6176 69.3942 96.1324 70.5773 97.1621 71.5412C98.1918 72.5052 99.4515 72.9872 100.941 72.9872C102.311 72.9872 103.494 72.4942 104.49 71.5193C105.487 70.5335 105.98 69.3723 105.98 68.014ZM110.197 61.4196H111.917V67.773C112.662 66.5352 113.714 65.9108 115.094 65.9108C116.157 65.9108 117.077 66.338 117.865 67.1925C118.643 68.0469 119.037 69.0547 119.037 70.2267C119.037 71.3988 118.654 72.4176 117.876 73.2939C117.11 74.1702 116.211 74.6084 115.193 74.6084C114.535 74.6084 113.911 74.4331 113.319 74.0826C112.728 73.7321 112.257 73.2501 111.917 72.6476V74.3893H110.197V61.4306V61.4196ZM117.197 70.2267C117.197 69.4819 116.923 68.8356 116.387 68.2988C115.85 67.7621 115.193 67.4992 114.426 67.4992C113.659 67.4992 113.046 67.773 112.498 68.3098C111.95 68.8465 111.687 69.4928 111.687 70.2267C111.687 70.9607 111.961 71.6508 112.498 72.1766C113.035 72.7024 113.703 72.9762 114.502 72.9762C115.236 72.9762 115.861 72.7133 116.398 72.1656C116.923 71.6289 117.197 70.9826 117.197 70.2267ZM126.18 67.1158L125.018 68.1345C124.723 67.9154 124.46 67.7621 124.241 67.6525C124.022 67.543 123.77 67.4882 123.463 67.4882C122.762 67.4882 122.4 67.7511 122.4 68.266C122.4 68.6384 122.849 68.9999 123.748 69.3504C124.646 69.701 125.292 70.0843 125.676 70.5006C126.07 70.9169 126.267 71.4317 126.267 72.0232C126.267 72.7133 125.982 73.3158 125.413 73.8306C124.843 74.3455 124.186 74.6084 123.419 74.6084C122.258 74.6084 121.305 74.0716 120.549 72.9872L121.918 72.3299C122.4 72.801 122.893 73.031 123.419 73.031C123.781 73.031 124.098 72.9324 124.361 72.7352C124.624 72.5381 124.766 72.308 124.766 72.0561C124.766 71.596 124.295 71.1798 123.353 70.8183C122.411 70.4568 121.754 70.0843 121.393 69.701C121.031 69.3285 120.845 68.8684 120.845 68.3098C120.845 67.6197 121.097 67.0501 121.623 66.6009C122.137 66.1409 122.784 65.9218 123.561 65.9218C124.339 65.9218 125.216 66.3271 126.18 67.1267M127.374 66.1409H135.162L130.2 72.8557H135.118V74.3784H127.264L132.281 67.6525H127.363V66.1409H127.374ZM143.914 66.1409H145.656V74.3784H143.914V72.7462C143.071 73.995 142.019 74.6084 140.77 74.6084C139.686 74.6084 138.755 74.1812 137.988 73.3268C137.221 72.4723 136.838 71.4427 136.838 70.2267C136.838 69.0766 137.221 68.0688 137.999 67.2034C138.777 66.338 139.686 65.9108 140.727 65.9108C141.373 65.9108 141.986 66.0861 142.567 66.4366C143.147 66.7872 143.597 67.2472 143.914 67.8168V66.1409ZM144.144 70.2815C144.144 69.5257 143.87 68.8794 143.334 68.3536C142.797 67.8168 142.151 67.5539 141.395 67.5539C140.639 67.5539 140.015 67.8168 139.478 68.3536C138.93 68.8903 138.656 69.5147 138.656 70.2267C138.656 71.0045 138.919 71.6727 139.456 72.2094C139.993 72.7571 140.639 73.031 141.395 73.031C142.151 73.031 142.797 72.7571 143.334 72.2204C143.87 71.6836 144.144 71.0373 144.144 70.2925M150.191 66.1409V67.8388C150.574 67.1596 150.958 66.6667 151.33 66.3709C151.703 66.0642 152.174 65.9218 152.776 65.9218C152.94 65.9218 153.181 65.9546 153.499 66.0423L152.973 67.784C152.645 67.7183 152.426 67.6854 152.316 67.6854C151.735 67.6854 151.243 67.8826 150.848 68.2988C150.454 68.7151 150.257 69.219 150.257 69.8324V74.4003H148.515V66.1628H150.213L150.191 66.1409ZM154.605 70.2267C154.605 69.0985 155.044 68.1017 155.942 67.2253C156.829 66.349 157.848 65.9108 158.998 65.9108C160.148 65.9108 161.222 66.338 162.098 67.2034C162.985 68.0688 163.423 69.0766 163.423 70.2267C163.423 71.3769 162.985 72.4066 162.12 73.2829C161.255 74.1702 160.247 74.6084 159.108 74.6084C157.892 74.6084 156.829 74.1702 155.942 73.3048C155.044 72.4395 154.594 71.4098 154.594 70.2267M161.758 70.2267C161.758 69.5257 161.496 68.9232 160.959 68.4084C160.422 67.8935 159.798 67.6306 159.064 67.6306C158.33 67.6306 157.662 67.8935 157.125 68.4193C156.588 68.9451 156.314 69.5695 156.314 70.2925C156.314 71.0154 156.588 71.5851 157.136 72.1109C157.684 72.6257 158.33 72.8886 159.064 72.8886C159.798 72.8886 160.411 72.6147 160.948 72.0889C161.485 71.5522 161.758 70.9388 161.758 70.2267ZM157.859 64.6182L159.184 61.8359H161.539L159.338 64.6182H157.859ZM170.927 65.7903L173.238 71.2564L175.67 66.1409H177.182L173.129 74.6084L170.916 69.3614L168.714 74.5317L164.683 66.1299H166.195L168.627 71.1798L170.916 65.7794L170.927 65.7903ZM193.197 61.2006L197.294 70.5882L201.138 61.7154H202.935L197.294 74.8056L193.197 65.396L189.1 74.8056L183.459 61.7154H185.255L189.122 70.6759L193.197 61.2115V61.2006ZM204.282 63.4681C204.282 63.1066 204.414 62.7999 204.677 62.537C204.94 62.2741 205.257 62.1426 205.63 62.1426C206.002 62.1426 206.298 62.2741 206.561 62.537C206.824 62.7999 206.955 63.1175 206.955 63.4681C206.955 63.8186 206.824 64.1472 206.561 64.4101C206.298 64.673 205.98 64.8045 205.63 64.8045C205.279 64.8045 204.94 64.673 204.677 64.4101C204.414 64.1472 204.282 63.8405 204.282 63.4681ZM204.775 66.1737H206.495V74.4112H204.775V66.1737ZM217.318 70.6211H210.285C210.438 71.4646 210.789 72.0889 211.326 72.4723C211.862 72.8557 212.454 73.0529 213.1 73.0529C214.086 73.0529 214.908 72.6476 215.576 71.826L216.847 72.7791C215.894 74.0169 214.623 74.6303 213.024 74.6303C211.797 74.6303 210.767 74.214 209.946 73.3706C209.124 72.5381 208.708 71.4865 208.708 70.2487C208.708 69.0875 209.124 68.0797 209.956 67.2144C210.789 66.349 211.819 65.9327 213.013 65.9327C214.207 65.9327 215.214 66.3709 216.058 67.2363C216.901 68.1017 217.318 69.2299 217.307 70.6211M210.46 69.2299H215.499C214.941 68.1017 214.108 67.532 213.024 67.532C211.83 67.532 210.986 68.1017 210.471 69.2299M219.016 63.49C219.016 63.1175 219.147 62.8108 219.41 62.5479C219.673 62.285 219.99 62.1426 220.352 62.1426C220.713 62.1426 221.042 62.2741 221.305 62.5479C221.568 62.8108 221.699 63.1285 221.699 63.49C221.699 63.8515 221.568 64.1801 221.305 64.443C221.042 64.7059 220.724 64.8483 220.352 64.8483C219.979 64.8483 219.673 64.7168 219.41 64.443C219.147 64.1801 219.016 63.8515 219.016 63.49ZM219.498 66.1737H221.228V78.278H219.498V66.1737ZM228.765 67.1486L227.604 68.1674C227.308 67.9483 227.045 67.7949 226.826 67.6854C226.607 67.5759 226.344 67.5211 226.048 67.5211C225.347 67.5211 224.986 67.784 224.986 68.2988C224.986 68.6713 225.435 69.0328 226.333 69.3833C227.22 69.7338 227.877 70.1172 228.261 70.5335C228.655 70.9497 228.852 71.4646 228.852 72.0561C228.852 72.7462 228.568 73.3487 228.009 73.8635C227.45 74.3784 226.782 74.6413 226.015 74.6413C224.843 74.6413 223.901 74.1045 223.145 73.02L224.514 72.3628C224.996 72.8338 225.489 73.0639 226.015 73.0639C226.377 73.0639 226.694 72.9653 226.957 72.7681C227.231 72.5709 227.363 72.3409 227.363 72.0889C227.363 71.6289 226.892 71.2126 225.949 70.8511C225.007 70.4896 224.35 70.1172 223.989 69.7338C223.627 69.3614 223.441 68.8903 223.441 68.3426C223.441 67.6525 223.704 67.0829 224.219 66.6228C224.734 66.1737 225.38 65.9437 226.158 65.9437C226.935 65.9437 227.812 66.349 228.776 67.1486M230.506 61.4525H232.237V69.7886L235.655 66.1737H237.9L234.329 69.9748L237.933 74.4112H235.786L232.237 70.0624V74.4112H230.506V61.4525ZM239.237 63.4681C239.237 63.1066 239.368 62.7999 239.631 62.537C239.894 62.2741 240.212 62.1426 240.584 62.1426C240.957 62.1426 241.252 62.2741 241.515 62.537C241.778 62.7999 241.91 63.1175 241.91 63.4681C241.91 63.8186 241.778 64.1472 241.515 64.4101C241.252 64.673 240.935 64.8045 240.584 64.8045C240.234 64.8045 239.894 64.673 239.631 64.4101C239.368 64.1472 239.237 63.8405 239.237 63.4681ZM239.73 66.1737H241.45V74.4112H239.73V66.1737ZM250.224 71.8918V73.8745C249.336 74.3784 248.482 74.6303 247.65 74.6303C246.51 74.6303 245.513 74.2031 244.659 73.3487C243.805 72.4942 243.377 71.4974 243.377 70.3801C243.377 69.0985 243.805 68.0469 244.659 67.2034C245.513 66.3599 246.576 65.9437 247.858 65.9437C248.624 65.9437 249.413 66.1409 250.224 66.5352V68.4741C249.347 67.9154 248.526 67.6306 247.748 67.6306C247.025 67.6306 246.39 67.8826 245.864 68.3865C245.327 68.8903 245.053 69.4819 245.053 70.161C245.053 70.9278 245.305 71.5741 245.809 72.0889C246.313 72.6038 246.938 72.8667 247.671 72.8667C248.405 72.8667 249.271 72.5381 250.224 71.8699M252.349 61.4525H254.08V67.5211C254.562 66.9624 255.011 66.5681 255.427 66.3161C255.843 66.0642 256.347 65.9437 256.95 65.9437C257.651 65.9437 258.253 66.2066 258.757 66.7433C259.261 67.2801 259.524 67.9264 259.524 68.6603V74.4003H257.782V69.1532C257.782 68.6384 257.651 68.2221 257.388 67.9045C257.125 67.5978 256.774 67.4335 256.347 67.4335C255.723 67.4335 255.186 67.6635 254.748 68.1455C254.31 68.6165 254.08 69.1971 254.08 69.8653V74.4112H252.349V61.4525Z" fill="#7D0F5C"/>
</g>
</g>
<defs>
<clipPath id="clip0_66_10007">
<rect width="259.316" height="100" fill="white" transform="translate(0.207336)"/>
</clipPath>
</defs>
</svg>
