<svg width="260" height="100" viewBox="0 0 260 100" fill="none" xmlns="http://www.w3.org/2000/svg">
<g clip-path="url(#clip0_439_23175)">
<mask id="mask0_439_23175" style="mask-type:luminance" maskUnits="userSpaceOnUse" x="0" y="0" width="260" height="100">
<path d="M259.316 0H0V100H259.316V0Z" fill="white"/>
</mask>
<g mask="url(#mask0_439_23175)">
<path fill-rule="evenodd" clip-rule="evenodd" d="M38.7009 1.91689L37.8245 35.4693L38.1641 55.8987L38.6789 62.2302H35.8637L36.9372 32.8841L35.6666 8.31409L34.7793 2.00452C34.7574 0.920068 35.6118 0.021832 36.6962 -7.62313e-05C37.7807 -0.0219844 38.6789 0.832436 38.7118 1.91689" fill="white"/>
<path fill-rule="evenodd" clip-rule="evenodd" d="M80.0854 69.9528C80.0854 70.2486 79.7897 70.5334 79.1215 70.7415C78.53 70.9277 77.9932 70.9715 77.325 70.9715C76.7006 70.9715 76.1967 70.851 75.8024 70.621C75.3423 70.3471 75.1123 69.9637 75.1123 69.4599C75.1123 68.8026 76.1748 68.1782 77.6755 68.1782C78.5081 68.1782 78.9353 68.3316 79.483 68.6383C79.9978 68.9231 80.0745 69.5694 80.0745 69.9528M89.1226 55.5262C89.1664 56.1178 89.2212 56.6983 89.1554 57.2679C89.1226 57.498 89.1007 57.728 89.0569 57.9581C88.5968 60.9595 87.6 63.8842 85.672 65.9545C84.5985 67.1157 83.2183 67.8606 81.8381 68.5945C81.4109 68.7369 80.9618 68.8574 80.4579 68.945L80.5565 69.2846L80.6441 69.5913C82.7582 68.7369 84.73 67.6524 86.2088 65.856C86.2745 65.7683 86.3512 65.6916 86.4169 65.604C88.3339 63.4351 89.3088 60.5213 90.0537 57.5637L90.448 55.7672C90.448 55.3729 90.1632 54.9895 89.7908 54.9238C89.4183 54.8471 89.1116 55.11 89.1007 55.5043M80.425 68.7478L80.2717 68.4849L80.1073 68.2001C80.5893 67.9153 81.0165 67.6305 81.4109 67.3348C82.6487 66.097 83.8646 64.8591 84.7081 63.3365C86.3402 60.4008 86.7455 56.9284 86.5374 53.664C86.5045 53.0944 86.3402 52.5467 86.1869 51.999C86.1211 51.6156 86.384 51.2541 86.7565 51.1775C87.1399 51.1008 87.4904 51.3527 87.5561 51.7361L87.5014 53.6093C87.3042 56.7312 86.877 59.9079 85.3872 62.7231C85.3325 62.8326 85.2777 62.9422 85.2339 63.0517C84.0946 65.3411 82.3529 67.1376 80.425 68.7588M82.9006 50.7064C82.7801 50.345 82.9664 49.9397 83.3279 49.8082C83.6893 49.6768 84.0837 49.863 84.2042 50.2354L84.4452 52.0867C84.7628 55.1976 84.8505 58.4072 83.8317 61.4195C83.7989 61.54 83.766 61.6496 83.7332 61.7701C82.9773 64.2128 81.5533 66.2722 79.9102 68.1782L79.724 67.9482L79.5158 67.6962C79.954 67.3348 80.3264 66.9952 80.655 66.6337C81.6738 65.2206 82.6706 63.7966 83.2621 62.1535C84.4014 58.9987 84.237 55.5043 83.5031 52.3167C83.3717 51.758 83.1307 51.2541 82.8897 50.7283M78.8805 48.8223C78.6943 48.3951 78.8148 47.9789 79.1324 47.8912C79.4501 47.8036 79.8554 48.0775 80.0307 48.5047L80.5893 50.5859C81.4328 54.0693 82.0791 57.6185 81.6519 60.7842C81.6519 60.9047 81.63 61.0362 81.619 61.1567C81.3342 63.7309 80.3483 65.7793 79.1434 67.6305L78.9243 67.3457C78.9243 67.3457 78.9243 67.3457 78.9243 67.3348L78.6833 67.0171C79.0338 66.6885 79.3187 66.3708 79.5706 66.0203C80.2826 64.6181 80.9727 63.2051 81.2356 61.4853C81.7505 58.1771 80.9837 54.2884 79.7349 50.6626C79.5158 50.0273 79.1872 49.4248 78.8805 48.8223ZM78.048 47.3107L77.7632 58.3086L77.8727 65.0125L78.037 67.0828H77.1169L77.4674 57.4651L77.0511 49.4139L76.7663 47.3435C76.7663 46.993 77.0402 46.6972 77.3907 46.6863C77.7413 46.6863 78.037 46.9601 78.048 47.3107ZM74.4988 70.139C72.4285 69.186 70.5116 68.003 69.1094 66.1408C69.0437 66.0531 68.978 65.9655 68.9123 65.8779C67.1048 63.6213 66.2614 60.6528 65.6589 57.6732L65.3522 55.8658C65.3522 55.4715 65.6698 55.11 66.0423 55.0552C66.4147 55.0004 66.7105 55.2743 66.6995 55.6686C66.6338 56.2492 66.5462 56.8407 66.59 57.4103C66.831 60.6637 67.6854 63.928 69.6462 66.2613C70.6649 67.4662 72.0013 68.2878 73.3487 69.0874C73.7649 69.2517 74.2031 69.3832 74.707 69.5037L74.5865 69.8323L74.4769 70.139H74.4988ZM74.8165 69.1531L74.9699 68.8683L75.1451 68.5616C74.6741 68.3206 74.2688 68.0796 73.8854 67.8167C72.7133 66.6885 71.5522 65.5383 70.7635 64.0595C69.2518 61.2224 68.978 57.7061 69.2956 54.3322C69.3504 53.7407 69.5366 53.1711 69.701 52.5905C69.7776 52.1962 69.5366 51.8457 69.1642 51.8128C68.7918 51.7799 68.4303 52.0757 68.3536 52.47V54.387C68.4193 57.5637 68.737 60.7842 70.1063 63.5008C70.1501 63.6104 70.2048 63.709 70.2487 63.8185C71.2893 66.0422 72.9543 67.7072 74.8056 69.1641M72.1328 50.0492C72.2533 49.7096 72.0561 49.2605 71.6836 49.0414C71.3112 48.8223 70.9169 48.91 70.7964 49.2495L70.5663 51.0351C70.2815 54.0584 70.2267 57.2351 71.3002 60.4885C71.3331 60.6089 71.3769 60.7404 71.4098 60.8609C72.1985 63.4789 73.6882 65.8888 75.3752 68.2111L75.5614 68.0249C75.5614 68.0249 75.5614 68.0249 75.5614 68.0139L75.7695 67.8167C75.3204 67.3457 74.937 66.9185 74.5974 66.4694C73.5458 64.8044 72.5162 63.1284 71.8918 61.3538C70.6978 57.9252 70.8292 54.4746 71.5303 51.4732C71.6508 50.9474 71.9027 50.5093 72.1328 50.0492ZM73.5897 49.6439L74.0169 51.4842L74.8932 57.9581L75.9777 67.6305L76.602 67.1376L75.3752 59.9736L74.7179 50.9584V48.8004C74.6741 48.5047 74.4003 48.4608 74.0935 48.7018C73.7868 48.9319 73.5568 49.3591 73.5897 49.6548M80.2717 79.22C79.3844 79.0557 78.4423 78.979 77.4455 78.979C76.4487 78.979 75.1342 79.1323 73.4034 79.461C73.4692 79.1433 73.5458 78.7599 73.6225 78.3327C74.3236 78.2451 74.7727 78.0807 74.9808 77.8288C75.189 77.5769 75.3752 77.1168 75.5176 76.4267C75.66 75.7804 75.7257 75.156 75.7257 74.5426C75.7257 73.8853 75.4519 73.5567 74.8932 73.5567C74.7179 73.5567 74.5536 73.5786 74.4003 73.6115C74.1593 73.0857 73.9511 71.4864 73.9511 71.2673C75.7367 71.2563 77.4893 72.1765 79.0448 71.5959C79.0558 71.6069 79.0667 71.6507 79.0667 71.7054C79.0667 71.804 79.0448 71.9793 79.001 72.2312C78.7162 73.7758 78.5847 75.0574 78.5847 76.0871C78.5847 76.7991 78.6724 77.2592 78.8367 77.4783C78.9462 77.6097 79.0886 77.6754 79.2858 77.6754C79.5049 77.6754 79.7568 77.6207 80.0307 77.5002C80.1073 77.4673 80.1512 77.5002 80.1731 77.6097C80.2169 77.9931 80.2497 78.5189 80.2607 79.209" fill="white"/>
<path fill-rule="evenodd" clip-rule="evenodd" d="M39.8072 40.4862C39.6648 41.6692 39.5005 42.8413 39.5772 43.9915C40.0701 50.542 41.7899 57.1145 45.7334 61.8028C48.4281 65.0014 52.2072 66.8198 55.7125 69.0106C52.0648 66.9841 48.1652 65.3082 45.2842 62.241C40.9136 57.5855 39.0294 51.0788 37.693 44.5282L37.0687 40.8915C37.0906 40.1028 37.715 39.3688 38.4598 39.2593C39.2157 39.1498 39.8072 39.6975 39.7853 40.4971" fill="white"/>
<path fill-rule="evenodd" clip-rule="evenodd" d="M55.4825 69.6242C51.32 67.7182 47.4641 65.3302 44.6379 61.5839C42.5348 58.7906 40.9793 55.4496 40.2015 51.8128L39.4128 44.9556C40.1796 49.1181 40.5959 53.4559 42.3157 57.1365C43.6411 59.9736 45.6019 62.4164 47.968 64.2896C50.7942 66.5351 52.7768 67.5867 55.9426 68.3316L55.4825 69.6242Z" fill="white"/>
<path fill-rule="evenodd" clip-rule="evenodd" d="M84.9271 40.1905C85.0038 41.3735 85.1243 42.5566 84.9819 43.6958C84.1713 50.2135 82.1448 56.6983 77.9713 61.1895C75.1342 64.2457 71.2674 65.8888 67.6525 67.9044C71.3879 66.0531 75.3642 64.5634 78.3875 61.6496C82.9773 57.2132 85.1681 50.805 86.8113 44.3202L87.5999 40.7163C87.6219 39.9276 87.0303 39.1608 86.2855 39.0184C85.5406 38.876 84.9162 39.4018 84.9052 40.1905" fill="white"/>
<path fill-rule="evenodd" clip-rule="evenodd" d="M67.8607 68.5397C72.1109 66.8308 76.0762 64.6291 79.0777 61.0252C81.3123 58.3304 83.0211 55.0771 83.9851 51.4841L85.1024 44.6816C84.1385 48.8004 83.5141 53.1053 81.619 56.7092C80.1621 59.4806 78.0808 61.8248 75.6381 63.5775C72.7024 65.6807 70.6759 66.6446 67.4773 67.2361L67.8716 68.5506L67.8607 68.5397Z" fill="white"/>
<path fill-rule="evenodd" clip-rule="evenodd" d="M45.8429 34.2862C45.5033 35.4473 45.1309 36.6084 45.0214 37.7915C44.386 44.5721 44.9228 51.6703 47.968 57.3664C50.0383 61.2552 53.4122 64.0046 56.4465 67.0608C53.2479 64.1361 49.7316 61.4961 47.4532 57.706C43.9917 51.9332 43.2687 44.8678 43.0934 37.8901L43.1154 34.0452C43.2687 33.2455 44.0026 32.643 44.7475 32.7088C45.4924 32.7745 45.9853 33.4756 45.832 34.2752" fill="white"/>
<path fill-rule="evenodd" clip-rule="evenodd" d="M56.1179 67.6416C52.3935 64.7059 49.0415 61.3649 46.9383 56.8846C45.3719 53.5436 44.4298 49.7754 44.2874 45.8977L44.6927 38.7446C44.7256 43.1591 44.386 47.6613 45.4376 51.8238C46.2373 55.0224 47.738 57.98 49.7097 60.4338C52.0758 63.3804 53.8175 64.9249 56.7861 66.4366L56.1179 67.6416Z" fill="white"/>
<path fill-rule="evenodd" clip-rule="evenodd" d="M50.7175 29.1817C50.2465 30.1019 49.7426 31.0001 49.5016 32.0517C48.0885 38.0874 47.8256 45.0214 50.2246 51.9334C51.8677 56.6437 54.9239 60.9596 57.6295 65.3741C54.7486 60.9815 51.5281 56.7094 49.6769 51.9882C46.8616 44.8023 46.9493 37.8026 47.5627 31.1644L48.0228 27.5605C48.2638 26.8814 49.0744 26.7061 49.8193 27.1443C50.5641 27.5934 50.9694 28.5026 50.7285 29.1708" fill="white"/>
<path fill-rule="evenodd" clip-rule="evenodd" d="M57.2352 65.7355C53.8285 61.0801 50.849 56.2164 49.2497 50.9475C48.0557 47.004 47.5408 42.9948 47.8366 39.2814L49.0525 32.7747C48.5815 36.9372 47.727 40.9902 48.3076 45.4266C48.7458 48.8443 49.9069 52.3825 51.6157 55.7016C53.6642 59.6889 55.2306 62.0331 58.0348 64.9578L57.2242 65.7465L57.2352 65.7355Z" fill="white"/>
<path fill-rule="evenodd" clip-rule="evenodd" d="M64.3115 26.7061C64.9359 27.933 65.5932 29.1489 66.0313 30.4195C68.5398 37.7369 70.0953 45.5581 69.0547 52.2072C68.3426 56.7422 66.1737 60.2256 64.3773 63.9829C66.349 60.3352 68.6822 56.9723 69.5914 52.503C70.9826 45.7224 69.5914 37.9012 67.7402 30.2552L66.6228 26.0598C66.2614 25.2054 65.4398 24.6577 64.8045 24.8329C64.1582 25.0082 63.9391 25.8407 64.3006 26.6951" fill="white"/>
<path fill-rule="evenodd" clip-rule="evenodd" d="M64.8373 64.5634C67.2691 60.839 69.2518 56.7202 69.8214 51.5389C70.2486 47.6612 69.9967 43.422 68.9999 39.1718L66.59 31.4163C67.8278 36.247 69.4161 41.1216 69.69 45.799C69.8981 49.4029 69.438 52.8425 68.3974 55.811C67.1596 59.3711 66.0751 61.299 63.8953 63.3584L64.8264 64.5853L64.8373 64.5634Z" fill="white"/>
<path fill-rule="evenodd" clip-rule="evenodd" d="M79.0229 33.0812C79.3186 34.1876 79.6582 35.283 79.724 36.4332C80.1293 43.0056 79.3296 50.0053 76.0434 55.9096C73.8087 59.9297 70.2925 62.9859 67.0939 66.2941C70.4458 63.0845 74.0935 60.1379 76.5363 56.1834C80.2498 50.1696 81.2356 43.1699 81.6519 36.3236L81.7724 32.5554C81.6409 31.7886 80.9289 31.2847 80.1621 31.4271C79.3953 31.5696 78.8805 32.3144 79.0119 33.0812" fill="white"/>
<path fill-rule="evenodd" clip-rule="evenodd" d="M67.4225 66.809C71.3003 63.5446 74.8165 59.9188 77.1059 55.3181C78.8148 51.8785 79.9102 48.0994 80.184 44.2764L80.0307 37.3096C79.8335 41.6364 80.0307 46.0071 78.8148 50.1916C77.8837 53.4121 76.2734 56.4573 74.1702 59.0754C71.6617 62.2192 69.8434 63.9061 66.7872 65.7026L67.4225 66.809Z" fill="white"/>
<path fill-rule="evenodd" clip-rule="evenodd" d="M72.3847 30.496C72.8557 31.5367 73.3596 32.5664 73.6225 33.6837C75.0904 40.1028 75.419 47.1463 73.1296 53.4996C71.5632 57.8265 68.5946 61.4085 65.9766 65.1986C68.7699 61.4961 71.8918 57.9908 73.6663 53.6968C76.3611 47.1682 76.1967 40.1028 75.5176 33.2784L75.0246 29.543C74.7727 28.8091 73.984 28.4257 73.2501 28.6886C72.5162 28.9515 72.1328 29.7621 72.3847 30.507" fill="white"/>
<path fill-rule="evenodd" clip-rule="evenodd" d="M66.3709 65.6589C69.679 61.814 72.56 57.6624 74.0716 52.7549C75.2109 49.0853 75.6709 45.1747 75.3314 41.3627L74.0607 34.5164C74.5646 38.8213 75.4519 43.1044 74.937 47.4203C74.5427 50.7503 73.4363 54.0147 71.7932 56.9394C69.8215 60.4447 68.2988 62.4055 65.5713 64.662L66.3819 65.6589H66.3709Z" fill="white"/>
<path fill-rule="evenodd" clip-rule="evenodd" d="M62.6246 23.6497L62.0002 47.3544L61.9454 53.4339L60.62 27.878L60.0285 23.7155C60.0066 23.0034 60.5762 22.401 61.2882 22.39C62.0002 22.3681 62.6027 22.9377 62.6136 23.6497" fill="white"/>
<path fill-rule="evenodd" clip-rule="evenodd" d="M60.7514 63.4462L61.8359 33.6948L62.2741 59.2727L62.6136 63.4462H60.7514Z" fill="white"/>
<path fill-rule="evenodd" clip-rule="evenodd" d="M53.6532 28.3382L54.5186 32.0516L57.7829 56.1944L55.9426 30.9781V26.6293C55.8659 26.0488 55.3073 25.9502 54.6719 26.4212C54.0475 26.8922 53.5875 27.7466 53.6532 28.3272" fill="white"/>
<path fill-rule="evenodd" clip-rule="evenodd" d="M59.7218 63.5664L56.1507 42.6003L55.3839 37.1013L58.462 64.5523L59.7218 63.5664Z" fill="white"/>
<path fill-rule="evenodd" clip-rule="evenodd" d="M44.9228 70.9934C44.9228 71.8806 44.0245 72.7679 41.9761 73.4033C40.1687 73.9619 38.5146 74.1043 36.499 74.1043C34.6149 74.1043 33.0595 73.7538 31.8545 73.0527C30.4633 72.2312 29.7623 71.0481 29.7623 69.5036C29.7623 67.51 32.9937 65.582 37.5945 65.582C40.1468 65.582 41.4503 66.0531 43.1153 66.9951C44.6708 67.8714 44.9228 69.8213 44.9228 70.9934ZM45.4814 99.2768C42.7757 98.7839 39.9058 98.5429 36.8605 98.5429C33.8153 98.5429 29.817 99.0249 24.5372 99.9998C24.7453 99.014 24.9644 97.8638 25.2163 96.5712C27.3524 96.3192 28.7326 95.8044 29.3789 95.0486C30.0252 94.2818 30.5619 92.8687 31.011 90.7874C31.4383 88.8157 31.6464 86.8987 31.6464 85.0256C31.6464 83.0319 30.8029 82.0351 29.116 82.0351C28.5792 82.0351 28.0863 82.1008 27.6043 82.2104C26.8704 80.6001 26.246 75.7474 26.246 75.0573C31.6902 75.0135 37.0468 77.8287 41.7899 76.0761C41.8337 76.1199 41.8666 76.2294 41.8666 76.4156C41.8666 76.7114 41.8008 77.2372 41.6694 78.0149C40.815 82.7252 40.3987 86.6358 40.3987 89.7687C40.3987 91.9376 40.6616 93.3507 41.1765 94.0189C41.4941 94.4242 41.9432 94.6433 42.5348 94.6433C43.203 94.6433 43.9588 94.457 44.8132 94.1065C45.0542 94.0079 45.1966 94.1284 45.2404 94.4351C45.3828 95.5963 45.4814 97.2175 45.5252 99.2988" fill="white"/>
<path fill-rule="evenodd" clip-rule="evenodd" d="M46.6426 69.9308C53.0836 67.3456 59.0974 64.0046 63.6324 58.5495C67.0282 54.4636 69.6133 49.5342 71.0593 44.09L72.7572 33.7822C71.2893 40.0261 70.3472 46.5547 67.4773 51.9989C65.2645 56.1943 62.1207 59.7544 58.4073 62.4163C53.9599 65.6039 50.8928 67.0608 46.0401 67.9481L46.6426 69.9417V69.9308Z" fill="white"/>
<path fill-rule="evenodd" clip-rule="evenodd" d="M195.202 44.4079H196.396L198.28 42.1404H196.308L195.202 44.4079Z" fill="white"/>
<path fill-rule="evenodd" clip-rule="evenodd" d="M25.0959 9.02603L26.4104 14.6455L29.0722 34.3848L32.3803 63.8951L34.2973 62.4054L30.5729 40.541L28.5574 13.0352L28.5354 6.44086C28.4369 5.55358 27.5934 5.41118 26.6404 6.12319C25.6874 6.83521 24.9973 8.12779 25.0959 9.01507" fill="white"/>
<path fill-rule="evenodd" clip-rule="evenodd" d="M20.6594 10.2968C19.9474 11.688 19.1806 13.0573 18.8082 14.6456C16.6612 23.7923 16.2668 34.2973 19.9036 44.7694C21.7987 50.2136 24.9534 55.3073 28.163 60.39C29.2255 61.7373 30.3867 63.0737 31.745 64.4977L31.1096 65.1112C31.1096 65.1112 31.1206 65.1331 31.1316 65.144C31.1316 65.144 31.1206 65.1331 31.1096 65.1221L30.5291 65.6917C25.3697 58.6373 20.8566 51.2761 18.4357 43.2796C18.3262 42.8962 18.2057 42.5238 18.1071 42.1404C14.8428 32.205 15.0181 22.5216 15.8834 13.2983L16.5736 7.84313C16.946 6.82439 18.1619 6.53959 19.2902 7.21874C20.4184 7.8979 21.0319 9.26716 20.6594 10.2859" fill="white"/>
<path fill-rule="evenodd" clip-rule="evenodd" d="M28.8312 68.5724C23.1898 64.136 18.1181 59.0643 14.9304 52.2837C14.7771 51.966 14.6347 51.6374 14.4923 51.3197C10.2968 43.0165 9.36574 33.2017 9.1138 23.5182L9.14666 17.6797C9.3767 16.4638 10.494 15.5655 11.6223 15.6641C12.7615 15.7627 13.4954 16.8253 13.2545 18.0412C12.7396 19.8048 12.1809 21.5574 12.0166 23.3539C11.0417 33.6289 11.8742 44.3748 16.4859 53.0176C18.8849 57.5088 22.423 61.0032 26.005 64.4647C27.1552 65.2753 28.404 66.0092 29.839 66.7431L29.3132 67.6852C29.3132 67.6852 29.3241 67.6961 29.3351 67.7071C29.3351 67.7071 29.3241 67.7071 29.3132 67.7071L28.8312 68.5724Z" fill="white"/>
<path fill-rule="evenodd" clip-rule="evenodd" d="M27.8782 71.574C21.5686 68.6822 15.7191 65.0564 11.458 59.3821C11.2608 59.1192 11.0527 58.8454 10.8665 58.5715C5.3456 51.6924 2.7933 42.6443 0.942053 33.5524L0 28.0424C0.0328623 26.8375 0.974915 25.7311 2.11414 25.5668C3.25337 25.4025 4.1516 26.235 4.11874 27.44C3.91061 29.2255 3.64772 31.011 3.77917 32.7418C4.52404 42.6662 7.13112 52.6235 13.1121 59.7327C16.223 63.4242 20.298 65.9108 24.4167 68.3535C25.6874 68.8574 27.0347 69.2627 28.5793 69.6242L28.2178 70.632C28.2178 70.632 28.2287 70.632 28.2397 70.643C28.2397 70.643 28.2287 70.643 28.2178 70.643L27.8891 71.574H27.8782Z" fill="white"/>
<path fill-rule="evenodd" clip-rule="evenodd" d="M41.2531 6.53943C42.2061 8.39067 43.203 10.231 43.8602 12.1698C47.6503 23.2554 50.0055 35.1077 48.439 45.1855C47.6175 50.4216 45.5143 54.7375 43.3454 59.0205C42.5676 60.0721 41.6803 61.0471 40.6288 62.0548L41.3627 63.0078C41.3627 63.0078 41.3627 63.0188 41.3517 63.0297C41.3517 63.0297 41.3517 63.0297 41.3627 63.0297L42.0309 63.9061C45.7224 58.2647 48.7238 52.0209 49.5783 44.1668C49.6221 43.7943 49.6549 43.4219 49.6878 43.0385C50.9913 33.3879 49.0086 22.5434 46.4454 11.9288L44.7475 5.56451C44.1998 4.27193 42.962 3.43942 41.9871 3.71327C41.0231 3.97617 40.6835 5.24684 41.2312 6.53943" fill="white"/>
<path fill-rule="evenodd" clip-rule="evenodd" d="M53.4998 12.3013C54.2228 13.8786 54.9896 15.4341 55.373 17.132C57.5857 26.8593 58.1005 37.5176 54.6281 47.1572C52.8207 52.1632 49.7754 56.512 46.6645 60.8279C45.6348 61.9233 44.4956 62.9749 43.1811 64.0703L43.8054 64.8481C43.8054 64.8481 43.7945 64.87 43.7835 64.87C43.7835 64.87 43.7945 64.87 43.8054 64.859L44.386 65.5711C49.392 59.7435 53.7627 53.4558 56.0631 46.018C56.1726 45.6674 56.2712 45.3169 56.3808 44.9554C59.4808 35.7649 59.2069 25.9829 58.2539 16.5076L57.509 10.8444C57.1256 9.72704 55.9316 9.14648 54.8253 9.55178C53.7189 9.95708 53.1274 11.1839 53.5108 12.3013" fill="white"/>
<path fill-rule="evenodd" clip-rule="evenodd" d="M45.9744 67.3128C51.8567 62.3725 57.1804 56.8735 60.6529 49.8957C60.8172 49.5671 60.9815 49.2385 61.1348 48.8989C65.6808 40.3328 66.9843 30.6275 67.5759 21.1193L67.7511 15.4122C67.5539 14.2511 66.4695 13.4843 65.3084 13.7034C64.1472 13.9225 63.3695 15.0398 63.5667 16.2119C64.0267 17.8879 64.5306 19.5419 64.6402 21.2836C65.2645 31.2409 64.0377 41.8445 59.0645 50.794C56.4794 55.4495 52.7659 59.2396 48.9977 63.0078C47.8037 63.9279 46.5111 64.7714 45.0323 65.6477L45.5253 66.5131C45.5253 66.5131 45.5143 66.5241 45.5033 66.535C45.5033 66.535 45.5143 66.535 45.5253 66.535L45.9853 67.3347L45.9744 67.3128Z" fill="white"/>
<path fill-rule="evenodd" clip-rule="evenodd" d="M46.3358 68.934C46.3358 68.934 46.3797 68.934 46.4454 68.9121L46.3358 68.934ZM46.544 68.8902C47.7161 68.6164 53.9161 67.0061 60.0066 61.6934L46.544 68.8902ZM72.4833 26.9908C72.5161 25.7858 73.4472 24.9971 74.5755 25.2162C75.7038 25.4353 76.5911 26.5855 76.5692 27.7904L75.3642 33.2565C72.8776 43.0714 69.5476 52.7877 62.5917 59.5025C61.7702 60.3022 60.9048 61.0252 59.9956 61.6934C55.9316 64.7057 51.1228 66.6337 46.533 68.8902C46.533 68.8902 46.5111 68.8902 46.5111 68.9012C46.4892 68.9012 46.4673 68.9231 46.4454 68.934C46.4016 68.9559 46.3687 68.9778 46.3249 68.9998C46.3249 68.9998 46.3797 68.9559 46.4125 68.934C46.4235 68.934 46.4454 68.9231 46.4563 68.9121C46.4892 68.8902 46.5221 68.8683 46.5549 68.8574C51.9553 65.8669 57.7062 63.3803 61.9564 58.8124C67.8278 52.4919 70.8949 43.5643 72.2861 34.4067C72.3956 33.7056 72.4833 33.0046 72.5709 32.3035C72.79 30.5728 72.6147 28.7763 72.4833 26.9908Z" fill="white"/>
<path fill-rule="evenodd" clip-rule="evenodd" d="M66.7324 69.2407C66.7324 69.8322 66.1409 70.4128 64.7935 70.8291C63.5995 71.1905 62.5151 71.3001 61.1787 71.3001C59.9299 71.3001 58.9112 71.07 58.1115 70.599C57.1914 70.0513 56.7313 69.2736 56.7313 68.2548C56.7313 66.9404 58.8674 65.6697 61.9016 65.6697C63.5886 65.6697 64.4539 65.9873 65.5494 66.6008C66.579 67.1813 66.7434 68.463 66.7434 69.2407M67.1048 87.9065C65.3193 87.5888 63.4243 87.4245 61.4197 87.4245C59.4151 87.4245 56.7751 87.7422 53.2808 88.3885C53.4122 87.7312 53.5656 86.9864 53.7299 86.121C55.132 85.9567 56.0522 85.6171 56.4794 85.1132C56.9066 84.6093 57.2571 83.6673 57.5529 82.298C57.8267 81.0054 57.9691 79.7347 57.9691 78.4969C57.9691 77.1824 57.4105 76.5252 56.2931 76.5252C55.9426 76.5252 55.614 76.569 55.2963 76.6457C54.8143 75.5831 54.3981 72.3736 54.3981 71.9245C57.991 71.9026 61.5292 73.7538 64.6511 72.5927C64.684 72.6255 64.6949 72.7022 64.6949 72.8227C64.6949 73.0199 64.6511 73.3704 64.5635 73.8743C64.0048 76.9853 63.72 79.5704 63.72 81.6298C63.72 83.0538 63.8953 83.9959 64.2349 84.4341C64.443 84.7079 64.7388 84.8394 65.1331 84.8394C65.5713 84.8394 66.0752 84.7189 66.6338 84.4888C66.7872 84.4231 66.8858 84.4998 66.9077 84.7079C67.0063 85.4747 67.061 86.5482 67.0939 87.9175" fill="white"/>
<path fill-rule="evenodd" clip-rule="evenodd" d="M94.6435 40.9134H96.3742V46.0837L101.764 40.9134H104.195L98.0611 46.8176L104.239 53.6311H102.027L96.3851 47.431V53.6311H94.6544V40.9134H94.6435ZM107.69 45.3936V47.0915C108.084 46.4123 108.457 45.9194 108.829 45.6236C109.201 45.3169 109.672 45.1745 110.275 45.1745C110.439 45.1745 110.68 45.2074 110.998 45.295L110.472 47.0367C110.133 46.971 109.924 46.9381 109.815 46.9381C109.234 46.9381 108.741 47.1353 108.347 47.5515C107.953 47.9568 107.756 48.4717 107.756 49.0851V53.653H106.014V45.4155H107.712L107.69 45.3936ZM119.312 45.3936H121.054V53.6311H119.312V51.9989C118.469 53.2477 117.417 53.8611 116.168 53.8611C115.084 53.8611 114.153 53.4339 113.386 52.5795C112.619 51.7251 112.236 50.6954 112.236 49.4795C112.236 48.3293 112.619 47.3215 113.397 46.4561C114.175 45.5908 115.084 45.1635 116.124 45.1635C116.771 45.1635 117.384 45.3388 117.965 45.6893C118.545 46.0399 118.994 46.5 119.312 47.0696V45.3936ZM119.531 49.5342C119.531 48.7784 119.257 48.1321 118.721 47.6063C118.184 47.0696 117.538 46.8067 116.782 46.8067C116.026 46.8067 115.401 47.0696 114.865 47.6063C114.317 48.1431 114.043 48.7674 114.043 49.4795C114.043 50.2572 114.306 50.9254 114.843 51.4622C115.38 52.0099 116.026 52.2837 116.782 52.2837C117.538 52.2837 118.184 52.0208 118.721 51.4731C119.257 50.9364 119.531 50.2901 119.531 49.5452M123.354 42.7098C123.354 42.3374 123.486 42.0307 123.748 41.7568C124.011 41.4939 124.329 41.3515 124.701 41.3515C125.074 41.3515 125.381 41.483 125.655 41.7568C125.917 42.0197 126.049 42.3374 126.049 42.7098C126.049 43.0823 125.917 43.3999 125.655 43.6628C125.392 43.9367 125.074 44.0681 124.701 44.0681C124.329 44.0681 124.022 43.9367 123.748 43.6628C123.486 43.3999 123.354 43.0713 123.354 42.7098ZM123.847 45.3936H125.578V57.4979H123.847V45.3936ZM127.67 49.4795C127.67 48.3512 128.108 47.3544 129.006 46.478C129.894 45.6017 130.912 45.1635 132.063 45.1635C133.213 45.1635 134.286 45.5908 135.163 46.4561C136.05 47.3215 136.488 48.3183 136.488 49.4795C136.488 50.6406 136.05 51.6593 135.185 52.5357C134.319 53.4229 133.311 53.8611 132.172 53.8611C130.956 53.8611 129.894 53.4229 129.006 52.5576C128.108 51.6812 127.659 50.6625 127.659 49.4795M134.823 49.4795C134.823 48.7784 134.56 48.1759 134.023 47.6611C133.487 47.1462 132.862 46.8833 132.128 46.8833C131.394 46.8833 130.726 47.1462 130.19 47.672C129.653 48.1978 129.379 48.8113 129.379 49.5452C129.379 50.2791 129.653 50.8378 130.2 51.3636C130.748 51.8784 131.394 52.1413 132.128 52.1413C132.862 52.1413 133.476 51.8675 134.012 51.3417C134.549 50.8049 134.823 50.1915 134.823 49.4795ZM143.378 45.0431L145.69 50.5092L148.121 45.3936H149.644L145.591 53.8611L143.378 48.6141L141.176 53.7844L137.145 45.3826H138.668L141.1 50.4325L143.389 45.0321L143.378 45.0431ZM157.509 45.3936H159.251V53.6311H157.509V51.9989C156.666 53.2477 155.614 53.8611 154.365 53.8611C153.281 53.8611 152.35 53.4339 151.583 52.5795C150.816 51.7251 150.433 50.6954 150.433 49.4795C150.433 48.3293 150.816 47.3215 151.594 46.4561C152.372 45.5908 153.281 45.1635 154.321 45.1635C154.968 45.1635 155.581 45.3388 156.162 45.6893C156.742 46.0399 157.191 46.5 157.509 47.0696V45.3936ZM157.739 49.5342C157.739 48.7784 157.465 48.1321 156.928 47.6063C156.392 47.0696 155.745 46.8067 154.99 46.8067C154.234 46.8067 153.62 47.0696 153.073 47.6063C152.525 48.1431 152.251 48.7674 152.251 49.4795C152.251 50.2572 152.514 50.9254 153.051 51.4622C153.587 52.0099 154.234 52.2837 154.99 52.2837C155.745 52.2837 156.392 52.0208 156.928 51.4731C157.465 50.9364 157.739 50.2901 157.739 49.5452M175.43 42.3155L174.017 43.4438C173.644 43.0604 173.305 42.7646 173.009 42.5784C172.702 42.3922 172.264 42.2936 171.695 42.2936C171.07 42.2936 170.566 42.436 170.172 42.7208C169.778 43.0056 169.591 43.3671 169.591 43.8162C169.591 44.1996 169.756 44.5392 170.095 44.8349C170.435 45.1307 171.015 45.4593 171.837 45.8098C172.659 46.1604 173.294 46.489 173.743 46.7848C174.203 47.0915 174.576 47.4201 174.871 47.7925C175.167 48.154 175.386 48.5484 175.529 48.9537C175.671 49.359 175.748 49.7862 175.748 50.2463C175.748 51.2978 175.364 52.207 174.597 52.9519C173.831 53.6968 172.9 54.0692 171.804 54.0692C170.709 54.0692 169.8 53.7844 168.978 53.1929C168.167 52.6123 167.532 51.736 167.094 50.5749L168.825 50.0819C169.46 51.5169 170.424 52.2289 171.727 52.2289C172.363 52.2289 172.889 52.0427 173.305 51.6593C173.721 51.2759 173.929 50.8049 173.929 50.2243C173.929 49.8738 173.82 49.5233 173.601 49.1837C173.382 48.8332 173.108 48.5484 172.779 48.3183C172.45 48.0883 171.936 47.8364 171.213 47.5406C170.501 47.2448 169.953 46.9819 169.57 46.7409C169.186 46.4999 168.857 46.2042 168.573 45.8756C168.299 45.536 168.091 45.2074 167.959 44.8787C167.828 44.5392 167.762 44.1886 167.762 43.8052C167.762 42.8961 168.124 42.1183 168.857 41.472C169.591 40.8367 170.479 40.5081 171.519 40.5081C172.209 40.5081 172.91 40.6614 173.623 40.9572C174.335 41.2529 174.926 41.713 175.397 42.3264M177.402 42.6879C177.402 42.3264 177.533 42.0197 177.796 41.7568C178.059 41.4939 178.377 41.3625 178.749 41.3625C179.121 41.3625 179.417 41.4939 179.68 41.7568C179.943 42.0197 180.074 42.3374 180.074 42.6879C180.074 43.0385 179.943 43.3671 179.68 43.63C179.417 43.8929 179.1 44.0243 178.749 44.0243C178.398 44.0243 178.059 43.8929 177.796 43.63C177.533 43.3671 177.402 43.0604 177.402 42.6879ZM177.895 45.3936H179.614V53.6311H177.895V45.3936ZM190.426 49.841H183.394C183.547 50.6844 183.897 51.2978 184.445 51.6922C184.993 52.0756 185.573 52.2728 186.22 52.2728C187.206 52.2728 188.027 51.8675 188.695 51.0459L189.966 52.0099C189.013 53.2477 187.742 53.8611 186.143 53.8611C184.916 53.8611 183.897 53.4449 183.065 52.6014C182.243 51.7689 181.827 50.7173 181.827 49.4795C181.827 48.3183 182.243 47.3106 183.076 46.4452C183.908 45.5908 184.927 45.1635 186.132 45.1635C187.337 45.1635 188.334 45.6017 189.177 46.4671C190.021 47.3325 190.437 48.4607 190.426 49.8519M183.58 48.4607H188.619C188.06 47.3325 187.228 46.7628 186.143 46.7628C184.949 46.7628 184.106 47.3325 183.591 48.4607M198.598 51.1116V53.0943C197.711 53.5982 196.856 53.8502 196.024 53.8502C194.884 53.8502 193.888 53.4229 193.033 52.5685C192.179 51.7141 191.752 50.7173 191.752 49.6C191.752 48.3183 192.179 47.2667 193.033 46.4233C193.888 45.5798 194.95 45.1635 196.232 45.1635C196.999 45.1635 197.787 45.3607 198.598 45.766V47.7049C197.722 47.1462 196.9 46.8724 196.122 46.8724C195.399 46.8724 194.775 47.1243 194.238 47.6282C193.701 48.1321 193.428 48.7346 193.428 49.4028C193.428 50.1696 193.679 50.8159 194.183 51.3307C194.687 51.8565 195.312 52.1194 196.046 52.1194C196.779 52.1194 197.645 51.7798 198.598 51.1226M93.5919 67.9371C93.5919 66.0968 94.2929 64.5304 95.6731 63.2159C97.0533 61.9014 98.7184 61.2442 100.668 61.2442C102.618 61.2442 104.195 61.9014 105.565 63.2269C106.934 64.5523 107.624 66.1187 107.624 67.9371C107.624 69.865 106.945 71.4863 105.587 72.8227C104.228 74.1481 102.574 74.8163 100.602 74.8163C98.6307 74.8163 97.0095 74.1481 95.6403 72.8117C94.282 71.4753 93.5919 69.8541 93.5919 67.9481M105.773 68.0138C105.773 66.6117 105.269 65.4286 104.25 64.4647C103.242 63.5007 101.994 63.0187 100.515 63.0187C99.036 63.0187 97.9078 63.5117 96.9109 64.4866C95.9141 65.4725 95.4102 66.6336 95.4102 68.0138C95.4102 69.394 95.9251 70.5771 96.9548 71.541C97.9845 72.505 99.2442 72.987 100.734 72.987C102.103 72.987 103.286 72.494 104.283 71.5191C105.28 70.5332 105.773 69.3721 105.773 68.0138ZM109.99 61.4194H111.71V67.7728C112.455 66.535 113.506 65.9106 114.887 65.9106C115.949 65.9106 116.869 66.3378 117.658 67.1922C118.436 68.0467 118.83 69.0544 118.83 70.2265C118.83 71.3986 118.447 72.4174 117.669 73.2937C116.902 74.17 116.004 74.6082 114.985 74.6082C114.328 74.6082 113.704 74.4329 113.112 74.0824C112.521 73.7318 112.05 73.2499 111.71 72.6474V74.3891H109.99V61.4304V61.4194ZM116.99 70.2265C116.99 69.4817 116.716 68.8354 116.179 68.2986C115.642 67.7619 114.985 67.499 114.218 67.499C113.452 67.499 112.838 67.7728 112.291 68.3096C111.743 68.8463 111.48 69.4926 111.48 70.2265C111.48 70.9605 111.754 71.6506 112.291 72.1764C112.827 72.7022 113.495 72.976 114.295 72.976C115.029 72.976 115.653 72.7131 116.19 72.1654C116.716 71.6287 116.99 70.9824 116.99 70.2265ZM125.972 67.1156L124.811 68.1343C124.515 67.9152 124.252 67.7619 124.033 67.6523C123.814 67.5428 123.562 67.488 123.256 67.488C122.554 67.488 122.193 67.7509 122.193 68.2657C122.193 68.6382 122.642 68.9997 123.54 69.3502C124.439 69.7007 125.085 70.0841 125.468 70.5004C125.863 70.9166 126.06 71.4315 126.06 72.023C126.06 72.7131 125.775 73.3156 125.205 73.8304C124.636 74.3453 123.979 74.6082 123.212 74.6082C122.051 74.6082 121.098 74.0714 120.342 72.987L121.711 72.3297C122.193 72.8007 122.686 73.0308 123.212 73.0308C123.573 73.0308 123.891 72.9322 124.154 72.735C124.417 72.5378 124.559 72.3078 124.559 72.0559C124.559 71.5958 124.088 71.1795 123.146 70.8181C122.204 70.4566 121.547 70.0841 121.185 69.7007C120.824 69.3283 120.638 68.8682 120.638 68.3096C120.638 67.6195 120.889 67.0498 121.415 66.6007C121.93 66.1407 122.576 65.9216 123.354 65.9216C124.132 65.9216 125.008 66.3269 125.972 67.1265M127.166 66.1407H134.955L129.992 72.8555H134.911V74.3781H127.057L132.074 67.6523H127.155V66.1407H127.166ZM143.707 66.1407H145.449V74.3781H143.707V72.746C142.863 73.9947 141.812 74.6082 140.563 74.6082C139.479 74.6082 138.547 74.181 137.781 73.3265C137.014 72.4721 136.631 71.4424 136.631 70.2265C136.631 69.0764 137.014 68.0686 137.792 67.2032C138.569 66.3378 139.479 65.9106 140.519 65.9106C141.166 65.9106 141.779 66.0859 142.36 66.4364C142.94 66.7869 143.389 67.247 143.707 67.8166V66.1407ZM143.937 70.2813C143.937 69.5255 143.663 68.8792 143.126 68.3534C142.59 67.8166 141.943 67.5537 141.187 67.5537C140.432 67.5537 139.807 67.8166 139.27 68.3534C138.723 68.8901 138.449 69.5145 138.449 70.2265C138.449 71.0043 138.712 71.6725 139.249 72.2092C139.785 72.7569 140.432 73.0308 141.187 73.0308C141.943 73.0308 142.59 72.7569 143.126 72.2202C143.663 71.6834 143.937 71.0371 143.937 70.2923M149.984 66.1407V67.8385C150.367 67.1594 150.75 66.6665 151.123 66.3707C151.495 66.064 151.966 65.9216 152.569 65.9216C152.733 65.9216 152.974 65.9544 153.292 66.0421L152.766 67.7838C152.437 67.718 152.218 67.6852 152.109 67.6852C151.528 67.6852 151.035 67.8824 150.641 68.2986C150.246 68.7149 150.049 69.2188 150.049 69.8322V74.4H148.308V66.1626H150.005L149.984 66.1407ZM154.398 70.2265C154.398 69.0983 154.836 68.1014 155.734 67.2251C156.622 66.3488 157.64 65.9106 158.791 65.9106C159.941 65.9106 161.014 66.3378 161.891 67.2032C162.778 68.0686 163.216 69.0764 163.216 70.2265C163.216 71.3767 162.778 72.4064 161.913 73.2827C161.047 74.17 160.039 74.6082 158.9 74.6082C157.684 74.6082 156.622 74.17 155.734 73.3046C154.836 72.4393 154.387 71.4096 154.387 70.2265M161.551 70.2265C161.551 69.5255 161.288 68.923 160.751 68.4082C160.215 67.8933 159.59 67.6304 158.856 67.6304C158.122 67.6304 157.454 67.8933 156.918 68.4191C156.381 68.9449 156.107 69.5693 156.107 70.2923C156.107 71.0152 156.381 71.5848 156.928 72.1106C157.476 72.6255 158.122 72.8884 158.856 72.8884C159.59 72.8884 160.204 72.6145 160.741 72.0887C161.277 71.552 161.551 70.9386 161.551 70.2265ZM157.651 64.618L158.977 61.8357H161.332L159.13 64.618H157.651ZM170.72 65.7901L173.031 71.2562L175.463 66.1407H176.974L172.921 74.6082L170.709 69.3612L168.507 74.5315L164.476 66.1297H165.988L168.419 71.1795L170.709 65.7792L170.72 65.7901ZM192.989 61.2004L197.086 70.588L200.931 61.7152H202.728L197.086 74.8053L192.989 65.3958L188.893 74.8053L183.251 61.7152H185.048L188.914 70.6756L192.989 61.2113V61.2004ZM204.075 63.4679C204.075 63.1064 204.206 62.7997 204.469 62.5368C204.732 62.2739 205.05 62.1424 205.422 62.1424C205.795 62.1424 206.09 62.2739 206.353 62.5368C206.616 62.7997 206.748 63.1173 206.748 63.4679C206.748 63.8184 206.616 64.147 206.353 64.4099C206.09 64.6728 205.773 64.8043 205.422 64.8043C205.072 64.8043 204.732 64.6728 204.469 64.4099C204.206 64.147 204.075 63.8403 204.075 63.4679ZM204.568 66.1735H206.288V74.411H204.568V66.1735ZM217.11 70.6209H210.078C210.231 71.4643 210.582 72.0887 211.118 72.4721C211.655 72.8555 212.247 73.0527 212.893 73.0527C213.879 73.0527 214.7 72.6474 215.369 71.8258L216.639 72.7788C215.686 74.0167 214.416 74.6301 212.816 74.6301C211.589 74.6301 210.56 74.2138 209.738 73.3704C208.917 72.5379 208.5 71.4863 208.5 70.2484C208.5 69.0873 208.917 68.0795 209.749 67.2142C210.582 66.3488 211.611 65.9325 212.805 65.9325C213.999 65.9325 215.007 66.3707 215.851 67.2361C216.694 68.1014 217.11 69.2297 217.099 70.6209M210.253 69.2297H215.292C214.733 68.1014 213.901 67.5318 212.816 67.5318C211.622 67.5318 210.779 68.1014 210.264 69.2297M218.808 63.4898C218.808 63.1173 218.94 62.8106 219.203 62.5477C219.465 62.2848 219.783 62.1424 220.145 62.1424C220.506 62.1424 220.835 62.2739 221.098 62.5477C221.36 62.8106 221.492 63.1283 221.492 63.4898C221.492 63.8512 221.36 64.1799 221.098 64.4428C220.835 64.7057 220.517 64.8481 220.145 64.8481C219.772 64.8481 219.465 64.7166 219.203 64.4428C218.94 64.1799 218.808 63.8512 218.808 63.4898ZM219.29 66.1735H221.021V78.2778H219.29V66.1735ZM228.557 67.1484L227.396 68.1672C227.1 67.9481 226.838 67.7947 226.618 67.6852C226.399 67.5756 226.136 67.5209 225.841 67.5209C225.14 67.5209 224.778 67.7838 224.778 68.2986C224.778 68.671 225.227 69.0325 226.126 69.3831C227.013 69.7336 227.67 70.117 228.053 70.5332C228.448 70.9495 228.645 71.4643 228.645 72.0559C228.645 72.746 228.36 73.3485 227.802 73.8633C227.243 74.3781 226.575 74.641 225.808 74.641C224.636 74.641 223.694 74.1043 222.938 73.0198L224.307 72.3626C224.789 72.8336 225.282 73.0636 225.808 73.0636C226.169 73.0636 226.487 72.9651 226.75 72.7679C227.024 72.5707 227.155 72.3407 227.155 72.0887C227.155 71.6287 226.684 71.2124 225.742 70.8509C224.8 70.4894 224.143 70.117 223.781 69.7336C223.42 69.3612 223.234 68.8901 223.234 68.3424C223.234 67.6523 223.497 67.0827 224.011 66.6226C224.526 66.1735 225.173 65.9435 225.95 65.9435C226.728 65.9435 227.604 66.3488 228.568 67.1484M230.299 61.4523H232.03V69.7884L235.447 66.1735H237.693L234.122 69.9746L237.726 74.411H235.579L232.03 70.0622V74.411H230.299V61.4523ZM239.029 63.4679C239.029 63.1064 239.161 62.7997 239.424 62.5368C239.687 62.2739 240.004 62.1424 240.377 62.1424C240.749 62.1424 241.045 62.2739 241.308 62.5368C241.571 62.7997 241.702 63.1173 241.702 63.4679C241.702 63.8184 241.571 64.147 241.308 64.4099C241.045 64.6728 240.727 64.8043 240.377 64.8043C240.026 64.8043 239.687 64.6728 239.424 64.4099C239.161 64.147 239.029 63.8403 239.029 63.4679ZM239.522 66.1735H241.242V74.411H239.522V66.1735ZM250.016 71.8916V73.8743C249.129 74.3781 248.275 74.6301 247.442 74.6301C246.303 74.6301 245.306 74.2029 244.452 73.3484C243.597 72.494 243.17 71.4972 243.17 70.3799C243.17 69.0983 243.597 68.0467 244.452 67.2032C245.306 66.3597 246.369 65.9435 247.65 65.9435C248.417 65.9435 249.206 66.1407 250.016 66.535V68.4739C249.14 67.9152 248.319 67.6304 247.541 67.6304C246.818 67.6304 246.182 67.8824 245.657 68.3862C245.12 68.8901 244.846 69.4817 244.846 70.1608C244.846 70.9276 245.098 71.5739 245.602 72.0887C246.106 72.6036 246.73 72.8665 247.464 72.8665C248.198 72.8665 249.063 72.5378 250.016 71.8696M252.142 61.4523H253.872V67.5209C254.354 66.9622 254.803 66.5679 255.22 66.3159C255.636 66.064 256.14 65.9435 256.742 65.9435C257.443 65.9435 258.046 66.2064 258.55 66.7431C259.054 67.2799 259.316 67.9262 259.316 68.6601V74.4H257.575V69.153C257.575 68.6382 257.443 68.2219 257.18 67.9043C256.917 67.5976 256.567 67.4332 256.14 67.4332C255.515 67.4332 254.979 67.6633 254.54 68.1453C254.102 68.6163 253.872 69.1968 253.872 69.865V74.411H252.142V61.4523Z" fill="white"/>
</g>
</g>
<defs>
<clipPath id="clip0_439_23175">
<rect width="259.316" height="100" fill="white"/>
</clipPath>
</defs>
</svg>
