<svg width="30" height="30" viewBox="0 0 30 30" fill="none" xmlns="http://www.w3.org/2000/svg">
<circle cx="15.1485" cy="14.9977" r="14.58" fill="#004A48"/>
<path fill-rule="evenodd" clip-rule="evenodd" d="M0.568481 15C0.568481 6.94643 7.09719 0.417725 15.1508 0.417725C23.2043 0.417725 29.733 6.94643 29.733 15C29.733 23.0536 23.2043 29.5823 15.1508 29.5823C7.09719 29.5823 0.568481 23.0536 0.568481 15ZM22.6029 11.3989C22.424 10.7117 21.897 10.1706 21.2277 9.98694C20.0148 9.65317 15.1508 9.65317 15.1508 9.65317C15.1508 9.65317 10.2867 9.65317 9.07375 9.98694C8.40447 10.1706 7.87738 10.7117 7.69851 11.3989C7.37354 12.6444 7.37354 15.243 7.37354 15.243C7.37354 15.243 7.37354 17.8416 7.69851 19.0872C7.87738 19.7744 8.40447 20.3155 9.07375 20.4992C10.2867 20.8329 15.1508 20.8329 15.1508 20.8329C15.1508 20.8329 20.0148 20.8329 21.2277 20.4992C21.897 20.3155 22.424 19.7744 22.6029 19.0872C22.928 17.8416 22.928 15.243 22.928 15.243C22.928 15.243 22.928 12.6444 22.6029 11.3989Z" fill="white"/>
<path fill-rule="evenodd" clip-rule="evenodd" d="M13.6935 17.9152V13.0544L17.5821 15.4849L13.6935 17.9152Z" fill="white"/>
</svg>
