<svg width="24" height="24" viewBox="0 0 24 24" fill="none" xmlns="http://www.w3.org/2000/svg">
<g clip-path="url(#clip0_751_6900)">
<path d="M24 2.75006C24 1.23303 22.767 0 21.2499 0H2.75006C1.23303 0 0 1.23303 0 2.75006V21.2499C0 22.767 1.23303 24 2.75006 24H21.2499C22.767 24 24 22.767 24 21.2499V2.75006Z" fill="#EF5350"/>
<g clip-path="url(#clip1_751_6900)">
<mask id="mask0_751_6900" style="mask-type:luminance" maskUnits="userSpaceOnUse" x="3" y="3" width="18" height="18">
<path d="M21 3H3V21H21V3Z" fill="white"/>
</mask>
<g mask="url(#mask0_751_6900)">
<path d="M7.26172 3.52734V5.56359C7.26172 9.72363 11.9987 12 11.9987 12C11.9987 12 16.7356 9.72328 16.7356 5.56324V3.52734H7.26172Z" stroke="white" stroke-width="1.40625" stroke-linecap="round" stroke-linejoin="round"/>
<path d="M11.9987 12C11.9987 12 7.26172 14.2767 7.26172 18.4368V20.4727H16.7356V18.4364C16.7356 14.2764 11.9987 12 11.9987 12Z" stroke="white" stroke-width="1.40625" stroke-linecap="round" stroke-linejoin="round"/>
<path d="M7.26145 3.52734H5.98633" stroke="white" stroke-width="1.40625" stroke-linecap="round" stroke-linejoin="round"/>
<path d="M16.7344 3.52734H18.0095" stroke="white" stroke-width="1.40625" stroke-linecap="round" stroke-linejoin="round"/>
<path d="M7.26145 20.4727H5.98633" stroke="white" stroke-width="1.40625" stroke-linecap="round" stroke-linejoin="round"/>
<path d="M16.7344 20.4727H18.0095" stroke="white" stroke-width="1.40625" stroke-linecap="round" stroke-linejoin="round"/>
<path d="M7.78125 7.89056H16.16" stroke="white" stroke-width="1.40625" stroke-linecap="round" stroke-linejoin="round"/>
<path d="M9.39641 18.1977L7.26172 20.4727H16.6808L14.5461 18.1977C13.1514 16.7113 10.7911 16.7113 9.39641 18.1977Z" stroke="white" stroke-width="1.40625" stroke-linecap="round" stroke-linejoin="round"/>
</g>
</g>
</g>
<defs>
<clipPath id="clip0_751_6900">
<rect width="24" height="24" fill="white"/>
</clipPath>
<clipPath id="clip1_751_6900">
<rect width="18" height="18" fill="white" transform="translate(3 3)"/>
</clipPath>
</defs>
</svg>
