<svg width="50" height="63" viewBox="0 0 50 63" fill="none" xmlns="http://www.w3.org/2000/svg">
    <path d="M28.6748 1.97754H15.1037C8.96939 1.97754 5.90221 1.97754 3.99652 3.9097C2.09082 5.84187 2.09082 8.95164 2.09082 15.1712V48.1553C2.09082 54.3748 2.09082 57.4846 3.99652 59.4168C5.90221 61.3489 8.96939 61.3489 15.1037 61.3489H34.6231C40.7574 61.3489 43.8246 61.3489 45.7303 59.4168C47.636 57.4846 47.636 54.3748 47.636 48.1553V21.2021C47.636 19.8539 47.636 19.1797 47.3884 18.5736C47.1407 17.9674 46.6706 17.4908 45.7303 16.5374L33.2756 3.9097C32.3353 2.95636 31.8651 2.47969 31.2673 2.22862C30.6694 1.97754 30.0046 1.97754 28.6748 1.97754Z" stroke="#2F3E45" stroke-width="3"></path>
    <path class="hover-effect" d="M17.6362 32.3936L35.6362 32.3936" stroke="#2F3E45" stroke-width="3" stroke-linecap="round"></path>
    <path class="hover-effect" d="M17.6362 44.5605L29.6362 44.5605" stroke="#2F3E45" stroke-width="3" stroke-linecap="round"></path>
    <path d="M29.6367 1.97754V14.1442C29.6367 17.0119 29.6367 18.4458 30.5154 19.3367C31.3941 20.2275 32.8083 20.2275 35.6367 20.2275H47.6367" stroke="#2F3E45" stroke-width="3"></path>
</svg>