<svg width="64" height="64" viewBox="0 0 64 64" fill="none" xmlns="http://www.w3.org/2000/svg">
<path d="M51.9673 32.6873C51.648 33.8807 51.8847 35.1333 52.114 36.3453C52.3027 37.342 52.5167 38.4727 52.2107 39.0013C51.894 39.548 50.7947 39.9313 49.824 40.268C48.6707 40.6693 47.4767 41.084 46.6153 41.9453C45.7513 42.81 45.3367 44.0033 44.9353 45.1573C44.5973 46.128 44.2153 47.2267 43.6693 47.5433C43.6027 47.5813 43.4033 47.6967 42.8853 47.6967C42.3353 47.6967 41.6633 47.57 41.0133 47.4467C40.268 47.3053 39.4247 47.146 38.614 47.146C38.1553 47.146 37.744 47.196 37.3587 47.298C36.2007 47.6087 35.258 48.4233 34.346 49.212C33.5187 49.928 32.6647 50.6667 32 50.6667C31.334 50.6667 30.48 49.928 29.6533 49.212C28.7413 48.4233 27.798 47.608 26.6453 47.3007C26.2587 47.1973 25.8447 47.1473 25.382 47.1473C24.574 47.1473 23.7307 47.3067 22.9867 47.448C22.3333 47.5713 21.6613 47.698 21.112 47.698C20.596 47.698 20.396 47.582 20.3307 47.5447C19.7833 47.2273 19.4 46.128 19.0633 45.1573C18.662 44.004 18.2473 42.81 17.386 41.9487C16.5213 41.0847 15.328 40.67 14.174 40.2687C13.2033 39.9307 12.1047 39.5487 11.788 39.0027C11.4827 38.474 11.696 37.3447 11.8847 36.3473C12.1147 35.1287 12.35 33.8793 12.032 32.688C11.7233 31.5353 10.908 30.592 10.12 29.6807C9.40532 28.852 8.66666 27.998 8.66666 27.3333C8.66666 26.6673 9.40532 25.8133 10.1213 24.9867C10.91 24.0747 11.7253 23.1313 12.0327 21.9787C12.352 20.7853 12.1153 19.5327 11.886 18.3207C11.6973 17.324 11.4833 16.1933 11.7893 15.6647C12.106 15.118 13.2053 14.7347 14.176 14.398C15.3293 13.9967 16.5233 13.582 17.3847 12.7207C18.2487 11.856 18.6633 10.6627 19.0647 9.50867C19.4027 8.538 19.7847 7.43933 20.3307 7.12267C20.3973 7.08467 20.5973 6.96867 21.1153 6.96867C21.6667 6.96867 22.3373 7.096 22.986 7.21933C23.73 7.36 24.5713 7.51933 25.386 7.51933C25.8433 7.51933 26.2513 7.47067 26.6353 7.36933C27.7993 7.05733 28.742 6.24267 29.6533 5.454C30.4813 4.73867 31.3353 4 32 4C32.666 4 33.52 4.73867 34.3467 5.45467C35.2587 6.24333 36.202 7.05867 37.3547 7.366C37.7407 7.46867 38.1533 7.51933 38.616 7.51933C39.4207 7.51933 40.266 7.36 41.0113 7.21933C41.664 7.09533 42.3373 6.96867 42.8867 6.96867C43.4027 6.96867 43.6033 7.08467 43.6687 7.122C44.216 7.43933 44.5993 8.53867 44.936 9.50933C45.3373 10.6627 45.752 11.8567 46.6133 12.718C47.478 13.582 48.6713 13.9967 49.8253 14.398C50.796 14.736 51.8947 15.118 52.2113 15.664C52.5167 16.1927 52.3033 17.322 52.1147 18.3193C51.8847 19.538 51.6493 20.7873 51.9673 21.9787C52.276 23.1313 53.0913 24.0747 53.8793 24.986C54.5947 25.8147 55.3333 26.6687 55.3333 27.3333C55.3333 27.9993 54.5947 28.8533 53.8787 29.68C53.0907 30.592 52.2747 31.5353 51.9673 32.6873ZM48.6667 27.3333C48.6667 18.1433 41.19 10.6667 32 10.6667C22.81 10.6667 15.3333 18.1433 15.3333 27.3333C15.3333 36.5233 22.81 44 32 44C41.19 44 48.6667 36.5233 48.6667 27.3333Z" fill="#164194"/>
<path d="M45.6669 27.3334C45.6669 35.0527 39.3862 41.3334 31.6669 41.3334C23.9475 41.3334 17.6669 35.0527 17.6669 27.3334C17.6669 19.6141 23.9475 13.3334 31.6669 13.3334C39.3862 13.3334 45.6669 19.6141 45.6669 27.3334ZM40.2989 24.5667C40.2195 24.3301 40.0142 24.1574 39.7675 24.1194L34.5909 23.3281L32.2702 18.3834C32.1602 18.1501 31.9255 18.0001 31.6669 18.0001C31.4082 18.0001 31.1735 18.1501 31.0635 18.3834L28.7429 23.3281L23.5662 24.1194C23.3195 24.1574 23.1142 24.3294 23.0349 24.5667C22.9555 24.8041 23.0155 25.0647 23.1895 25.2441L26.9355 29.0834L25.6835 34.5174C25.6255 34.7701 25.7195 35.0334 25.9235 35.1934C26.1275 35.3527 26.4069 35.3794 26.6369 35.2607L31.6669 32.6827L36.6962 35.2594C36.7915 35.3094 36.8969 35.3334 37.0002 35.3334C37.1462 35.3334 37.2909 35.2861 37.4095 35.1927C37.6142 35.0334 37.7075 34.7694 37.6495 34.5167L36.3975 29.0827L40.1435 25.2434C40.3189 25.0647 40.3782 24.8034 40.2989 24.5667Z" fill="#009640"/>
<path d="M27.2295 51.1093L24.3022 60.378C24.2149 60.6553 23.9582 60.844 23.6669 60.844H11.6669C11.4549 60.844 11.2549 60.7427 11.1289 60.5713C11.0029 60.4 10.9669 60.1793 11.0315 59.9767L15.7609 45.0007C15.9215 45.3753 16.0682 45.7953 16.2129 46.2107C16.7029 47.62 17.2582 49.2167 18.6635 50.03C20.0495 50.832 21.6982 50.5193 23.1509 50.2453C24.0689 50.0713 25.0175 49.8927 25.6262 50.0553C26.0909 50.1787 26.6582 50.6233 27.2295 51.1093ZM47.5728 45C47.4122 45.3747 47.2648 45.7953 47.1202 46.2113C46.6302 47.62 46.0748 49.2173 44.6702 50.03C43.2842 50.832 41.6355 50.5207 40.1829 50.2453C39.2635 50.0713 38.3149 49.894 37.7075 50.0547C37.2429 50.1793 36.6755 50.6233 36.1042 51.1093L39.0309 60.378C39.1189 60.6553 39.3755 60.844 39.6669 60.844H51.6669C51.8789 60.844 52.0788 60.7427 52.2048 60.5713C52.3308 60.4 52.3669 60.1793 52.3022 59.9767L47.5728 45Z" fill="#004A48"/>
</svg>
