<svg xmlns="http://www.w3.org/2000/svg" width="72" height="73" viewBox="0 0 72 73" fill="none"><path d="M39.6748 4.97754H26.1037C19.9694 4.97754 16.9022 4.97754 14.9965 6.9097C13.0908 8.84187 13.0908 11.9516 13.0908 18.1712V51.1553C13.0908 57.3748 13.0908 60.4846 14.9965 62.4168C16.9022 64.3489 19.9694 64.3489 26.1037 64.3489H45.6231C51.7574 64.3489 54.8246 64.3489 56.7303 62.4168C58.636 60.4846 58.636 57.3748 58.636 51.1553V24.2021C58.636 22.8539 58.636 22.1797 58.3884 21.5736C58.1407 20.9674 57.6706 20.4908 56.7303 19.5374L44.2756 6.9097C43.3353 5.95636 42.8651 5.47969 42.2673 5.22862C41.6694 4.97754 41.0046 4.97754 39.6748 4.97754Z" stroke="#2F3E45" stroke-width="3"></path><path class="hover-effect" d="M28.6362 35.3936L46.6362 35.3936" stroke="#2F3E45" stroke-width="3" stroke-linecap="round"></path><path class="hover-effect" d="M28.6362 47.5605L40.6362 47.5605" stroke="#2F3E45" stroke-width="3" stroke-linecap="round"></path><path d="M40.6367 4.97754V17.1442C40.6367 20.0119 40.6367 21.4458 41.5154 22.3367C42.3941 23.2275 43.8083 23.2275 46.6367 23.2275H58.6367" stroke="#2F3E45" stroke-width="3"></path></svg>