<svg width="24" height="24" viewBox="0 0 24 24" fill="none" xmlns="http://www.w3.org/2000/svg">
<g clip-path="url(#clip0_751_7059)">
<path d="M24 2.75006C24 1.23303 22.767 0 21.2499 0H2.75006C1.23303 0 0 1.23303 0 2.75006V21.2499C0 22.767 1.23303 24 2.75006 24H21.2499C22.767 24 24 22.767 24 21.2499V2.75006Z" fill="#EF5350"/>
<g clip-path="url(#clip1_751_7059)">
<g clip-path="url(#clip2_751_7059)">
<mask id="mask0_751_7059" style="mask-type:luminance" maskUnits="userSpaceOnUse" x="3" y="3" width="18" height="18">
<path d="M21 3H3V21H21V3Z" fill="white"/>
</mask>
<g mask="url(#mask0_751_7059)">
<path d="M20.4727 11.9648C20.4727 16.6248 16.66 20.4727 12 20.4727C7.34004 20.4727 3.52734 16.6248 3.52734 11.9648C3.52734 7.30488 7.34004 3.52734 12 3.52734C16.66 3.52734 20.4727 7.30488 20.4727 11.9648Z" fill="white"/>
<path d="M6.8127 8.30402C6.07547 9.33866 5.63672 10.6004 5.63672 11.9648C5.63672 15.4544 8.51039 18.3633 12 18.3633C13.3644 18.3633 14.6262 17.9249 15.6608 17.1873L6.8127 8.30402Z" fill="#EF5350"/>
<path d="M17.1528 15.696C17.89 14.6613 18.3639 13.3293 18.3639 11.9648C18.3639 8.47523 15.4903 5.63672 12.0007 5.63672C10.6362 5.63672 9.33934 6.07512 8.30469 6.8127L17.1528 15.696Z" fill="#EF5350"/>
</g>
</g>
</g>
</g>
<defs>
<clipPath id="clip0_751_7059">
<rect width="24" height="24" fill="white"/>
</clipPath>
<clipPath id="clip1_751_7059">
<rect width="18" height="18" fill="white" transform="translate(3 3)"/>
</clipPath>
<clipPath id="clip2_751_7059">
<rect width="18" height="18" fill="white" transform="translate(3 3)"/>
</clipPath>
</defs>
</svg>
